<?xml version="1.0" encoding="utf-8"?>
<!-- Generator: Adobe Illustrator 15.1.0, SVG Export Plug-In . SVG Version: 6.00 Build 0)  -->
<!DOCTYPE svg PUBLIC "-//W3C//DTD SVG 1.1//EN" "http://www.w3.org/Graphics/SVG/1.1/DTD/svg11.dtd">
<svg version="1.1" id="Layer_1" xmlns="http://www.w3.org/2000/svg" xmlns:xlink="http://www.w3.org/1999/xlink" x="0px" y="0px"
	 width="612px" height="792px" viewBox="0 0 612 792" enable-background="new 0 0 612 792" xml:space="preserve">
<path fill-rule="evenodd" clip-rule="evenodd" stroke="#000000" stroke-width="2.9999" stroke-linecap="round" stroke-linejoin="round" stroke-miterlimit="22.9256" d="
	M330.213,753.535c-32.732,0.18-67.914,6.296-81.943-1.439c-14.028-7.734-6.902-29.319-0.891-106.128
	c2.793-35.686,5.346-83.293,7.313-133.237c-16.036-2.137-33.088-6.579-46.914-12.179c-26.383-10.686-41.014-25.581-54.236-40.511
	c-13.221-14.93-25.031-29.894-32.25-58.364c-7.219-28.471-9.847-70.451-10.262-110.327c-0.415-39.877,1.384-77.652,10.558-101.036
	c9.174-23.384,25.723-32.378,40.473-32.018c14.75,0.359,27.702,10.073,31.119,28.96c3.418,18.887-2.699,46.948-3.778,80.945
	c-1.079,33.997,2.878,73.93,12.231,99.652c9.354,25.723,24.104,37.235,42.631,42.991c4.318,1.342,8.841,2.37,13.449,3.094
	c0.519-24.203,0.839-47.438,0.917-68.537c0.341-91.725-3.877-143.145-4.816-187.034c-0.94-43.89,1.398-80.25,14.418-100.59
	c13.02-20.34,36.721-24.658,54.709-20.161c17.987,4.497,30.263,17.809,36.052,40.294c5.789,22.484,5.094,54.142,5.859,92.995
	c0.642,32.523,2.306,70.093,3.615,126.416c12.926-3.927,24.318-11.891,33.527-28.92c9.533-17.628,16.729-44.97,18.031-72.895
	s-3.286-56.435-3.826-77.48c-0.54-21.046,2.971-34.628,13.54-41.779c10.568-7.151,28.197-7.87,40.788-1.395
	c12.592,6.476,20.146,20.146,25.003,45.869c4.857,25.723,7.016,63.497,4.316,102.891c-2.697,39.393-10.252,80.405-27.16,109.545
	c-16.909,29.14-43.171,46.408-65.262,59.176c-13.635,7.88-25.68,14.045-37.006,16.977c1.155,62.318,3.258,130.484,9.45,184.134
	c8.906,77.168,26.274,124.296,19.817,144.981C393.23,759.111,362.946,753.355,330.213,753.535z"/>
</svg>
