<?xml version="1.0" encoding="UTF-8" standalone="no"?>
<svg
   xmlns:dc="http://purl.org/dc/elements/1.1/"
   xmlns:cc="http://creativecommons.org/ns#"
   xmlns:rdf="http://www.w3.org/1999/02/22-rdf-syntax-ns#"
   xmlns:svg="http://www.w3.org/2000/svg"
   xmlns="http://www.w3.org/2000/svg"
   xmlns:sodipodi="http://sodipodi.sourceforge.net/DTD/sodipodi-0.dtd"
   xmlns:inkscape="http://www.inkscape.org/namespaces/inkscape"
   sodipodi:docname="mexican style buntings - 30th background.svg"
   inkscape:version="1.0beta2 (2b71d25, 2019-12-03)"
   id="svg4842"
   version="1.1"
   viewBox="0 0 210 297"
   height="297mm"
   width="210mm">
  <defs
     id="defs4836" />
  <sodipodi:namedview
     inkscape:window-maximized="0"
     inkscape:window-y="23"
     inkscape:window-x="0"
     inkscape:window-height="880"
     inkscape:window-width="1600"
     showgrid="false"
     inkscape:document-rotation="0"
     inkscape:current-layer="layer1"
     inkscape:document-units="mm"
     inkscape:cy="560"
     inkscape:cx="400"
     inkscape:zoom="0.35"
     inkscape:pageshadow="2"
     inkscape:pageopacity="0.0"
     borderopacity="1.0"
     bordercolor="#666666"
     pagecolor="#ffffff"
     id="base" />
  <metadata
     id="metadata4839">
    <rdf:RDF>
      <cc:Work
         rdf:about="">
        <dc:format>image/svg+xml</dc:format>
        <dc:type
           rdf:resource="http://purl.org/dc/dcmitype/StillImage" />
        <dc:title></dc:title>
      </cc:Work>
    </rdf:RDF>
  </metadata>
  <g
     id="layer1"
     inkscape:groupmode="layer"
     inkscape:label="Layer 1">
    <path
       id="path938"
       style="display:inline;fill:#ee1c81;fill-opacity:1;fill-rule:nonzero;stroke:none;stroke-width:0.0829858"
       d="m 9.9559039,15.2572 v 104.77659 h -0.021908 v 11.72952 c 0,6.47806 5.2503881,11.72949 11.7282911,11.72949 5.658834,0 10.380232,-4.00772 11.48395,-9.33959 1.103708,5.33187 5.826333,9.33959 11.485159,9.33959 5.658834,0 10.380237,-4.00772 11.483951,-9.33959 1.103715,5.33187 5.826326,9.33959 11.485155,9.33959 5.658004,0 10.380237,-4.00772 11.483952,-9.33959 1.103714,5.33187 5.826328,9.33959 11.48517,9.33959 5.658832,0 10.379396,-4.00772 11.483936,-9.33959 1.10372,5.33187 5.82512,9.33959 11.48395,9.33959 5.658,0 10.38145,-4.00772 11.48515,-9.33959 1.10373,5.33187 5.82515,9.33959 11.48396,9.33959 5.65802,0 10.38023,-4.00772 11.48394,-9.33959 1.10459,5.33187 5.82597,9.33959 11.48395,9.33959 5.65885,0 10.38146,-4.00772 11.48517,-9.33959 1.10373,5.33187 5.82598,9.33959 11.48397,9.33959 6.4779,0 11.72949,-5.25143 11.72949,-11.72949 v -11.72952 h -0.23096 V 15.2572 c 0,0 -27.85573,3.175561 -87.47469,3.419531 C 46.849356,18.921562 9.9558893,15.2572 9.9558893,15.2572 Z m 6.6956301,8.807153 c 0.926127,0 1.67512,0.749829 1.67512,1.675144 0,0.926959 -0.748993,1.677551 -1.67512,1.677551 -0.925301,0 -1.676336,-0.750592 -1.676336,-1.677551 0,-0.925315 0.751035,-1.675144 1.676336,-1.675144 z m 6.354039,0 c 0.925294,0 1.675126,0.749829 1.675126,1.675144 0,0.926959 -0.749832,1.677551 -1.675126,1.677551 -0.926123,0 -1.67634,-0.750592 -1.67634,-1.677551 0,-0.925315 0.750217,-1.675144 1.67634,-1.675144 z m 6.351609,0 c 0.926126,0 1.676336,0.749829 1.676336,1.675144 0,0.926959 -0.75021,1.677551 -1.676336,1.677551 -0.925301,0 -1.67634,-0.750592 -1.67634,-1.677551 0,-0.925315 0.751039,-1.675144 1.67634,-1.675144 z m 6.354035,0 c 0.925302,0 1.675123,0.749829 1.675123,1.675144 0,0.926959 -0.749821,1.677551 -1.675123,1.677551 -0.926133,0 -1.676347,-0.750592 -1.676336,-1.677551 0,-0.925315 0.750203,-1.675144 1.676336,-1.675144 z m 6.352821,0 c 0.926124,0 1.676347,0.749829 1.676342,1.675144 0,0.926959 -0.750218,1.677551 -1.676342,1.677551 -0.925295,0 -1.676339,-0.750592 -1.676339,-1.677551 0,-0.925315 0.751044,-1.675144 1.676339,-1.675144 z m 6.352826,0 c 0.92529,0 1.676342,0.749829 1.676342,1.675144 0,0.926959 -0.751052,1.677551 -1.676342,1.677551 -0.926121,0 -1.676337,-0.750592 -1.676337,-1.677551 0,-0.925315 0.750216,-1.675144 1.676337,-1.675144 z m 6.108475,0 c 0.925309,0 1.676339,0.749829 1.676339,1.675144 0,0.926959 -0.75103,1.677551 -1.676339,1.677551 -0.925293,0 -1.675117,-0.750592 -1.675117,-1.677551 0,-0.925315 0.749824,-1.675144 1.675117,-1.675144 z m 6.35404,0 c 0.925296,0 1.67513,0.749829 1.67513,1.675144 0,0.926959 -0.749834,1.677551 -1.67513,1.677551 -0.926126,0 -1.676326,-0.750592 -1.676326,-1.677551 0,-0.925315 0.7502,-1.675144 1.676326,-1.675144 z m 6.352829,0 c 0.926126,0 1.676336,0.749829 1.676328,1.675144 8e-6,0.926959 -0.750202,1.677551 -1.676328,1.677551 -0.925299,0 -1.676337,-0.750592 -1.676337,-1.677551 0,-0.925315 0.751038,-1.675144 1.676337,-1.675144 z m 6.352817,0 c 0.925288,0 1.675117,0.749829 1.675117,1.675144 0,0.926959 -0.749829,1.677551 -1.675117,1.677551 -0.925298,0 -1.676336,-0.750592 -1.676336,-1.677551 0,-0.925315 0.751038,-1.675144 1.676336,-1.675144 z m 6.354033,0 c 0.925301,0 1.675127,0.749829 1.675127,1.675144 0,0.926959 -0.749826,1.677551 -1.675127,1.677551 -0.926127,0 -1.676339,-0.750592 -1.676339,-1.677551 0,-0.925315 0.750212,-1.675144 1.676339,-1.675144 z m 6.351606,0 c 0.926126,0 1.676339,0.749829 1.676339,1.675144 0,0.926959 -0.750213,1.677551 -1.676339,1.677551 -0.925296,0 -1.676337,-0.750592 -1.676337,-1.677551 0,-0.925315 0.751041,-1.675144 1.676337,-1.675144 z m 6.354043,0 c 0.925295,0 1.675124,0.749829 1.675124,1.675144 0,0.926959 -0.749829,1.677551 -1.675124,1.677551 -0.926132,0 -1.676345,-0.750592 -1.676345,-1.677551 0,-0.925315 0.750213,-1.675144 1.676345,-1.675144 z m 6.352828,0 c 0.92611,0 1.676325,0.749829 1.676325,1.675144 0,0.926959 -0.750215,1.677551 -1.676325,1.677551 -0.925309,0 -1.676339,-0.750592 -1.676339,-1.677551 0,-0.925315 0.75103,-1.675144 1.676339,-1.675144 z m 6.352815,0 c 0.9253,0 1.67634,0.749829 1.67634,1.675144 0,0.926959 -0.75104,1.677551 -1.67634,1.677551 -0.92613,0 -1.67634,-0.750592 -1.67634,-1.677551 0,-0.925315 0.75021,-1.675144 1.67634,-1.675144 z m 6.35283,0 c 0.92613,0 1.67634,0.749829 1.67634,1.675144 0,0.926959 -0.75021,1.677551 -1.67634,1.677551 -0.9253,0 -1.67633,-0.750592 -1.67633,-1.677551 0,-0.925315 0.75103,-1.675144 1.67633,-1.675144 z m 6.35403,0 c 0.9253,0 1.67634,0.749829 1.67634,1.675144 0,0.926959 -0.75104,1.677551 -1.67634,1.677551 -0.92529,0 -1.67633,-0.750592 -1.67633,-1.677551 0,-0.925315 0.75104,-1.675144 1.67633,-1.675144 z m 6.35162,0 c 0.92612,0 1.67633,0.749829 1.67633,1.675144 0,0.926959 -0.75021,1.677551 -1.67633,1.677551 -0.9253,0 -1.67514,-0.750592 -1.67514,-1.677551 0,-0.925315 0.74984,-1.675144 1.67514,-1.675144 z m 6.35403,0 c 0.92614,0 1.67633,0.749829 1.67633,1.675144 0,0.926959 -0.75019,1.677551 -1.67633,1.677551 -0.92528,0 -1.67634,-0.750592 -1.67634,-1.677551 0,-0.925315 0.75104,-1.675144 1.67634,-1.675144 z m 6.35284,0 c 0.92528,0 1.67631,0.749829 1.67631,1.675144 0,0.926959 -0.75103,1.677551 -1.67631,1.677551 -0.92532,0 -1.67636,-0.750592 -1.67636,-1.677551 0,-0.925315 0.75104,-1.675144 1.67636,-1.675144 z m 6.3528,0 c 0.92612,0 1.67636,0.749829 1.67636,1.675144 0,0.926959 -0.75024,1.677551 -1.67636,1.677551 -0.92529,0 -1.67512,-0.750592 -1.67512,-1.677551 0,-0.925315 0.74983,-1.675144 1.67512,-1.675144 z m 6.35402,0 c 0.92616,0 1.67635,0.749829 1.67635,1.675144 0,0.926959 -0.75019,1.677551 -1.67635,1.677551 -0.92611,0 -1.67633,-0.750592 -1.67633,-1.677551 0,-0.925315 0.75022,-1.675144 1.67633,-1.675144 z m 6.35284,0 c 0.92532,0 1.67513,0.749829 1.67513,1.675144 0,0.926959 -0.74981,1.677551 -1.67513,1.677551 -0.92529,0 -1.67632,-0.750592 -1.67632,-1.677551 0,-0.925315 0.75103,-1.675144 1.67632,-1.675144 z m 6.35283,0 c 0.92529,0 1.67634,0.749829 1.67634,1.675144 0,0.926959 -0.75105,1.677551 -1.67634,1.677551 -0.92529,0 -1.67511,-0.750592 -1.67511,-1.677551 0,-0.925315 0.74982,-1.675144 1.67511,-1.675144 z m 6.35281,0 c 0.92697,0 1.67634,0.749829 1.67634,1.675144 0,0.926959 -0.74937,1.677551 -1.67634,1.677551 -0.92527,0 -1.67634,-0.750592 -1.67634,-1.677551 0,-0.925315 0.75107,-1.675144 1.67634,-1.675144 z m 6.35408,0 c 0.92527,0 1.67512,0.749829 1.67512,1.675144 0,0.926959 -0.74985,1.677551 -1.67512,1.677551 -0.92617,0 -1.67635,-0.750592 -1.67635,-1.677551 0,-0.925315 0.75018,-1.675144 1.67635,-1.675144 z m 6.35279,0 c 0.92533,0 1.67513,0.749829 1.67513,1.675144 0,0.926959 -0.7498,1.677551 -1.67513,1.677551 -0.92529,0 -1.67632,-0.750592 -1.67632,-1.677551 0,-0.925315 0.75103,-1.675144 1.67632,-1.675144 z m 6.3528,0 c 0.92618,0 1.67639,0.749829 1.67639,1.675144 0,0.926959 -0.75021,1.677551 -1.67639,1.677551 -0.92526,0 -1.67629,-0.750592 -1.67629,-1.677551 0,-0.925315 0.75103,-1.675144 1.67629,-1.675144 z M 43.376909,28.515947 c 2.401908,-0.01743 4.831818,2.410266 4.142824,4.810209 -0.658905,2.297896 -4.488722,4.788641 -8.177458,4.221837 -6.555085,-1.005777 -9.395524,-6.095083 -9.395524,-6.095083 0,0 5.540498,3.296376 11.154519,-2.013081 0.677786,-0.640845 1.475002,-0.918033 2.275639,-0.923882 z m 117.494381,0 c 0.80075,0.006 1.59886,0.283037 2.27688,0.923882 5.61403,5.309457 11.15452,2.013081 11.15452,2.013081 0,0 -2.84085,5.089306 -9.39675,6.095083 -3.68791,0.566804 -7.51855,-1.923941 -8.17746,-4.221837 -0.68964,-2.399943 1.7406,-4.827665 4.14281,-4.810209 z M 23.810316,29.132278 c 2.024856,0 3.665085,1.642283 3.665085,3.666317 0,2.024034 -1.640229,3.663851 -3.665085,3.663851 -2.024035,0 -3.665097,-1.639817 -3.665097,-3.663851 0,-2.024034 1.641062,-3.666317 3.665097,-3.666317 z m 156.627594,0 c 2.02487,0 3.66632,1.642283 3.66632,3.666317 0,2.024034 -1.64145,3.663851 -3.66632,3.663851 -2.02404,0 -3.66512,-1.639817 -3.66512,-3.663851 0,-2.024034 1.64108,-3.666317 3.66512,-3.666317 z M 61.319437,29.39242 c 1.95598,0 3.541093,1.585947 3.541093,3.541084 0,1.956004 -1.585113,3.54113 -3.541093,3.54113 -1.955162,0 -3.541101,-1.585126 -3.541101,-3.54113 0,-1.955137 1.585939,-3.541084 3.541101,-3.541084 z m 81.609343,0 c 1.95514,0 3.54108,1.585947 3.54108,3.541084 0,1.956004 -1.58594,3.54113 -3.54108,3.54113 -1.95683,0 -3.54111,-1.585126 -3.54111,-3.54113 0,-1.955137 1.58428,-3.541084 3.54111,-3.541084 z M 16.166507,30.138799 c 0.925294,0 1.675127,0.75106 1.675127,1.676354 0,0.9253 -0.749833,1.675126 -1.675127,1.675126 -0.92613,0 -1.676343,-0.749826 -1.676343,-1.675126 0,-0.925294 0.750213,-1.676354 1.676343,-1.676354 z m 171.774163,0 c 0.92618,0 1.67639,0.75106 1.67639,1.676354 0,0.9253 -0.75021,1.675126 -1.67639,1.675126 -0.92526,0 -1.67629,-0.749826 -1.67629,-1.675126 0,-0.925294 0.75103,-1.676354 1.67629,-1.676354 z m -85.92719,0.03894 c 0,0 3.05038,4.282457 2.99893,6.4683 -0.0515,2.186686 -1.50305,3.926611 -3.24327,3.88511 -1.74022,-0.04067 -3.108732,-1.846735 -3.057281,-4.033418 0.05145,-2.185021 3.301621,-6.319992 3.301621,-6.319992 z m -21.025336,1.143889 5.875073,5.875094 -5.875073,5.873856 -5.873872,-5.873856 z m 41.294556,0 5.8751,5.875094 -5.8751,5.873856 -5.87387,-5.873856 z m -27.144756,3.524084 c 0.41737,0.02078 0.84255,0.125839 1.135385,0.409652 0.780894,0.756825 1.193737,3.339317 1.193737,3.339317 0,0 -2.594872,-0.331145 -3.375771,-1.087984 -0.780902,-0.756849 -0.322141,-2.495677 -0.322141,-2.495677 0,0 0.673174,-0.200067 1.36879,-0.165308 z m 12.731176,0.05709 c 0.52934,0.01701 0.96398,0.131282 0.96398,0.131282 0,0 0.51128,1.722886 -0.24556,2.502952 -0.75683,0.781748 -3.33931,1.19375 -3.33931,1.19375 0,0 0.33237,-2.592839 1.0892,-3.37457 0.37801,-0.390041 1.00234,-0.470422 1.53169,-0.453414 z m -91.702613,1.588861 c 0.925294,0 1.675127,0.751039 1.675127,1.676336 0,0.925301 -0.749833,1.676337 -1.675127,1.676337 -0.92613,0 -1.676343,-0.751036 -1.676343,-1.676337 0,-0.925297 0.750213,-1.676336 1.676343,-1.676336 z m 171.774163,0 c 0.92618,0 1.67639,0.751039 1.67639,1.676336 0,0.925301 -0.75021,1.676337 -1.67639,1.676337 -0.92526,0 -1.67629,-0.751036 -1.67629,-1.676337 0,-0.925297 0.75103,-1.676336 1.67629,-1.676336 z m -160.123681,0.06928 c 0,0 9.661159,3.469901 11.414658,5.314682 1.754328,1.843122 1.682277,4.761003 -0.161679,6.514498 -1.844778,1.75433 -4.762214,1.68189 -6.515713,-0.16289 -1.754329,-1.843954 -4.737266,-11.66629 -4.737266,-11.66629 z m 148.614251,0 c 0,0 -2.9826,9.822336 -4.73605,11.66629 -1.75434,1.84478 -4.67178,1.91722 -6.51574,0.16289 -1.84396,-1.753495 -1.91638,-4.671376 -0.16287,-6.514498 1.75433,-1.844781 11.41466,-5.314682 11.41466,-5.314682 z M 21.056931,38.054938 c 0,0 5.530966,1.834564 7.748358,8.085077 1.248113,3.517778 -0.480007,7.746578 -2.613586,8.825388 -2.971726,1.50205 -7.030042,-2.43168 -5.01928,-5.57603 4.161758,-6.510271 -0.115492,-11.334435 -0.115492,-11.334435 z m 162.134359,0 c 0,0 -4.27606,4.824164 -0.1143,11.334435 2.0108,3.14435 -2.04873,7.07808 -5.02048,5.57603 -2.13275,-1.07881 -3.86049,-5.30761 -2.61234,-8.825388 2.21655,-6.250513 7.74712,-8.085077 7.74712,-8.085077 z M 65.620292,38.909517 c 0.639249,0 1.329523,0.10535 2.05804,0.317278 5.104479,1.484626 1.791333,12.656078 20.415091,9.463588 0.487138,0.11121 -0.602678,0.90781 -1.166995,1.24723 -4.780827,2.87962 -9.58615,4.64725 -15.093121,3.57756 -4.570873,-0.88878 -10.15446,-3.79999 -10.534537,-9.108626 -0.254873,-3.556057 1.551432,-5.499595 4.321522,-5.49703 z m 73.008848,0 c 2.76984,-0.0025 4.57518,1.940973 4.3203,5.49703 -0.38089,5.308636 -5.96245,8.219846 -10.53334,9.108626 -5.50779,1.06969 -10.31349,-0.69794 -15.09433,-3.57756 -0.56348,-0.33942 -1.6533,-1.13602 -1.16699,-1.24723 18.62459,3.19249 15.31099,-7.978962 20.41631,-9.463588 0.72837,-0.211928 1.41884,-0.316682 2.05805,-0.317278 z m -88.428966,0.486255 c 2.563445,0 4.642445,2.078168 4.642445,4.642443 0,2.56427 -2.079,4.642448 -4.642445,4.642448 -2.564275,0 -4.64245,-2.078178 -4.64245,-4.642448 0,-2.564275 2.078175,-4.642443 4.64245,-4.642443 z m 103.847876,0 c 2.56427,0 4.64363,2.078168 4.64363,4.642443 0,2.56427 -2.07936,4.642448 -4.64363,4.642448 -2.5643,0 -4.64125,-2.078178 -4.64125,-4.642448 0,-2.564275 2.07695,-4.642443 4.64125,-4.642443 z m -46.25188,0.03404 c 2.1867,-0.05145 6.46832,3.000149 6.46832,3.000149 0,0 -4.13416,3.249784 -6.32001,3.300394 -2.18669,0.05228 -3.99193,-1.317056 -4.03342,-3.057276 -0.0407,-1.740222 1.69925,-3.191818 3.88511,-3.243267 z m -12.737244,0.719641 c 2.186686,-0.05145 3.991922,1.317893 4.033425,3.057288 0.04066,1.740217 -1.698046,3.193865 -3.883903,3.244479 -2.185858,0.05228 -6.469526,-3.000144 -6.469526,-3.000144 0,0 4.134141,-3.250166 6.320004,-3.301623 z m 6.408744,1.196171 c 0.38195,0 0.76345,0.14593 1.05516,0.437621 0.58256,0.582563 0.58256,1.52654 0,2.109103 -0.5834,0.583393 -1.52693,0.583393 -2.11033,0 -0.582559,-0.582563 -0.582559,-1.52654 0,-2.109103 0.29171,-0.291691 0.67322,-0.437621 1.05517,-0.437621 z m -85.301163,1.498865 c 0.925294,0 1.675127,0.749829 1.675127,1.675125 0,0.926957 -0.749833,1.677551 -1.675127,1.677551 -0.92613,0 -1.676343,-0.750594 -1.676343,-1.677551 0,-0.925296 0.750213,-1.675125 1.676343,-1.675125 z m 171.774163,0 c 0.92618,0 1.67639,0.749829 1.67639,1.675125 0,0.926957 -0.75021,1.677551 -1.67639,1.677551 -0.92526,0 -1.67629,-0.750594 -1.67629,-1.677551 0,-0.925296 0.75103,-1.675125 1.67629,-1.675125 z m -86.70518,2.505395 c 1.74022,0.0415 3.10872,1.847569 3.05727,4.033419 -0.0515,2.18586 -3.30162,6.32 -3.30162,6.32 0,0 -3.051589,-4.28162 -3.000141,-6.46831 0.05145,-2.185846 1.504262,-3.924942 3.244491,-3.885109 z m 3.98115,1.061234 c 0,0 2.57502,0.449847 3.32106,1.242355 0.74522,0.79169 0.20788,2.50783 0.20788,2.50783 0,0 -1.7452,0.43308 -2.48959,-0.35861 -0.74605,-0.79252 -1.03935,-3.391575 -1.03935,-3.391575 z m -7.784825,0.07054 c 0,0 -0.449463,2.575855 -1.241152,3.321065 -0.792506,0.74522 -2.507821,0.20787 -2.507821,0.20787 0,0 -0.431856,-1.74559 0.359833,-2.4908 0.791686,-0.746045 3.38914,-1.038135 3.38914,-1.038135 z m -81.265308,2.716905 c 0.925294,0 1.675127,0.75022 1.675127,1.67634 0,0.9253 -0.749833,1.67512 -1.675127,1.67512 -0.92613,0 -1.676343,-0.74982 -1.676343,-1.67512 0,-0.92612 0.750213,-1.67634 1.676343,-1.67634 z m 171.774163,0 c 0.92618,0 1.67639,0.75022 1.67639,1.67634 0,0.9253 -0.75021,1.67512 -1.67639,1.67512 -0.92526,0 -1.67629,-0.74982 -1.67629,-1.67512 0,-0.92612 0.75103,-1.67634 1.67629,-1.67634 z m -171.774163,6.3516 c 0.925294,0 1.675127,0.75105 1.675127,1.67635 0,0.92529 -0.749833,1.67633 -1.675127,1.67633 -0.92613,0 -1.676343,-0.75104 -1.676343,-1.67633 0,-0.9253 0.750213,-1.67635 1.676343,-1.67635 z m 171.774163,0 c 0.92618,0 1.67639,0.75105 1.67639,1.67635 0,0.92529 -0.75021,1.67633 -1.67639,1.67633 -0.92526,0 -1.67629,-0.75104 -1.67629,-1.67633 0,-0.9253 0.75103,-1.67635 1.67629,-1.67635 z m -161.934952,3.92398 c 1.765114,0.0556 3.150179,1.53285 3.093745,3.29797 -0.0556,1.76512 -3.454781,13.32074 -3.454781,13.32074 0,0 -2.993368,-11.75985 -2.936931,-13.52497 0.05643,-1.76512 1.532848,-3.15018 3.297967,-3.09374 z m 152.238002,0 c 1.76508,-0.0564 3.24156,1.32862 3.29796,3.09374 0.0564,1.76512 -2.93816,13.52497 -2.93816,13.52497 0,0 -3.39918,-11.55562 -3.45476,-13.32074 -0.0556,-1.76512 1.32985,-3.24238 3.09496,-3.29797 z m -162.077213,2.43001 c 0.925294,0 1.675127,0.74984 1.675127,1.67512 0,0.92613 -0.749833,1.67756 -1.675127,1.67756 -0.92613,0 -1.676343,-0.75143 -1.676343,-1.67756 0,-0.92528 0.750213,-1.67512 1.676343,-1.67512 z m 171.774163,0 c 0.92618,0 1.67639,0.74984 1.67639,1.67512 0,0.92613 -0.75021,1.67756 -1.67639,1.67756 -0.92526,0 -1.67629,-0.75143 -1.67629,-1.67756 0,-0.92528 0.75103,-1.67512 1.67629,-1.67512 z m -171.774163,6.35283 c 0.925294,0 1.675127,0.75021 1.675127,1.67633 0,0.92613 -0.749833,1.67634 -1.675127,1.67634 -0.92613,0 -1.676343,-0.75021 -1.676343,-1.67634 0,-0.92612 0.750213,-1.67633 1.676343,-1.67633 z m 171.774163,0 c 0.92618,0 1.67639,0.75021 1.67639,1.67633 0,0.92613 -0.75021,1.67634 -1.67639,1.67634 -0.92526,0 -1.67629,-0.75021 -1.67629,-1.67634 0,-0.92612 0.75103,-1.67633 1.67629,-1.67633 z m -171.774163,6.35282 c 0.925294,0 1.675127,0.75022 1.675127,1.67634 0,0.92529 -0.749833,1.67634 -1.675127,1.67634 -0.92613,0 -1.676343,-0.75105 -1.676343,-1.67634 0,-0.92612 0.750213,-1.67634 1.676343,-1.67634 z m 171.774163,0 c 0.92618,0 1.67639,0.75022 1.67639,1.67634 0,0.92529 -0.75021,1.67634 -1.67639,1.67634 -0.92526,0 -1.67629,-0.75105 -1.67629,-1.67634 0,-0.92612 0.75103,-1.67634 1.67629,-1.67634 z m -161.931304,2.90412 c 1.214917,0 2.199051,0.98534 2.199051,2.20026 0,1.21409 -0.984134,2.19906 -2.199051,2.19906 -1.214084,0 -2.19905,-0.98497 -2.19905,-2.19906 0,-1.21492 0.984966,-2.20026 2.19905,-2.20026 z m 152.230684,0 c 1.21408,0 2.19786,0.98534 2.19786,2.20026 0,1.21409 -0.98378,2.19906 -2.19786,2.19906 -1.21492,0 -2.20028,-0.98497 -2.20028,-2.19906 0,-1.21492 0.98536,-2.20026 2.20028,-2.20026 z m -162.073543,3.4487 c 0.925294,0 1.675127,0.75105 1.675127,1.67634 0,0.92613 -0.749833,1.67634 -1.675127,1.67634 -0.92613,0 -1.676343,-0.75021 -1.676343,-1.67634 0,-0.92529 0.750213,-1.67634 1.676343,-1.67634 z m 171.774163,0 c 0.92618,0 1.67639,0.75105 1.67639,1.67634 0,0.92613 -0.75021,1.67634 -1.67639,1.67634 -0.92526,0 -1.67629,-0.75021 -1.67629,-1.67634 0,-0.92529 0.75103,-1.67634 1.67629,-1.67634 z m -162.209677,5.36696 c 0,0 3.895612,12.79023 3.810959,14.713837 -0.08548,1.92196 -2.049053,3.43977 -4.385952,3.38915 -2.336888,-0.0515 -4.163042,-1.65113 -4.078396,-3.57392 0.08465,-1.922787 4.653389,-14.529067 4.653389,-14.529067 z m 152.787457,0 c 0,0 4.5675,12.60628 4.65217,14.529067 0.0855,1.92279 -1.74153,3.52247 -4.07839,3.57392 -2.3361,0.0506 -4.30013,-1.46719 -4.38477,-3.38915 -0.0847,-1.923607 3.81099,-14.713837 3.81099,-14.713837 z m -162.351943,0.98708 c 0.925294,0 1.675127,0.75021 1.675127,1.67634 0,0.9253 -0.749833,1.67633 -1.675127,1.67633 -0.92613,0 -1.676343,-0.75103 -1.676343,-1.67633 0,-0.92613 0.750213,-1.67634 1.676343,-1.67634 z m 171.774163,0 c 0.92618,0 1.67639,0.75021 1.67639,1.67634 0,0.9253 -0.75021,1.67633 -1.67639,1.67633 -0.92526,0 -1.67629,-0.75103 -1.67629,-1.67633 0,-0.92613 0.75103,-1.67634 1.67629,-1.67634 z m -171.774163,6.35282 c 0.925294,0 1.675127,0.74983 1.675127,1.67513 0,0.92612 -0.749833,1.67633 -1.675127,1.67633 -0.92613,0 -1.676343,-0.75021 -1.676343,-1.67633 0,-0.9253 0.750213,-1.67513 1.676343,-1.67513 z m 171.774163,0 c 0.92618,0 1.67639,0.74983 1.67639,1.67513 0,0.92612 -0.75021,1.67633 -1.67639,1.67633 -0.92526,0 -1.67629,-0.75021 -1.67629,-1.67633 0,-0.9253 0.75103,-1.67513 1.67629,-1.67513 z M 16.166507,100.02231 c 0.925294,0 1.675127,0.75021 1.675127,1.67634 0,0.92613 -0.749833,1.67634 -1.675127,1.67634 -0.92613,0 -1.676343,-0.75021 -1.676343,-1.67634 0,-0.92613 0.750213,-1.67634 1.676343,-1.67634 z m 171.774163,0 c 0.92618,0 1.67639,0.75021 1.67639,1.67634 0,0.92613 -0.75021,1.67634 -1.67639,1.67634 -0.92526,0 -1.67629,-0.75021 -1.67629,-1.67634 0,-0.92613 0.75103,-1.67634 1.67629,-1.67634 z m -114.176953,4.07232 c 1.579007,0.081 3.145441,1.57472 2.795926,3.17641 -0.356841,1.634 -2.920116,3.54685 -5.522555,3.31863 -4.624829,-0.40829 -6.839064,-3.83527 -6.839064,-3.83526 0,0 4.019219,2.05407 7.702159,-1.90852 0.44459,-0.47842 0.989652,-0.70857 1.548698,-0.74883 0.10481,-0.007 0.209572,-0.007 0.314836,-0.002 z m 56.719553,0 c 0.10529,-0.006 0.21123,-0.005 0.31606,0.002 0.55914,0.0402 1.10389,0.27042 1.54869,0.74883 3.68294,3.96259 7.70218,1.90852 7.70218,1.90852 0,0 -2.21305,3.42698 -6.83787,3.83527 -2.60328,0.22821 -5.16692,-1.68463 -5.52377,-3.31863 -0.3501,-1.60169 1.21542,-3.0954 2.79471,-3.17641 z m -75.538535,0.29782 c 1.183376,0.004 2.139993,0.96622 2.135844,2.15043 -0.0042,1.18256 -0.966219,2.13999 -2.15043,2.13585 -1.182558,-0.004 -2.138781,-0.96582 -2.134635,-2.14921 0.0032,-1.18422 0.965833,-2.14122 2.149221,-2.13707 z m 94.359965,0 c 1.18254,-0.004 2.14468,0.95285 2.148,2.13707 0.004,1.18339 -0.95123,2.14506 -2.13464,2.14921 -1.18337,0.004 -2.14712,-0.95329 -2.15041,-2.13585 -0.004,-1.18421 0.95366,-2.14627 2.13705,-2.15043 z m -108.372404,1.50008 c 2.014908,0 3.648073,1.63438 3.648073,3.64929 0,2.0149 -1.633165,3.64685 -3.648073,3.64685 -2.014908,0 -3.648064,-1.63195 -3.648064,-3.64685 0,-2.01491 1.633156,-3.64929 3.648064,-3.64929 z m 122.383594,0 c 2.01494,0 3.64933,1.63438 3.64933,3.64929 0,2.0149 -1.63439,3.64685 -3.64933,3.64685 -2.01406,0 -3.64685,-1.63195 -3.64685,-3.64685 0,-2.01491 1.63279,-3.64929 3.64685,-3.64929 z M 50.553922,106.1952 c 0.548436,0.002 1.096436,0.21262 1.513441,0.63211 0.834014,0.83983 0.830098,2.19653 -0.0097,3.03055 -0.838989,0.834 -2.196132,0.83009 -3.029321,-0.01 -0.834003,-0.83983 -0.830479,-2.19652 0.0085,-3.03053 0.41991,-0.41701 0.968648,-0.62407 1.517089,-0.6224 z m 103.140388,0 c 0.54852,-0.002 1.09838,0.20539 1.51828,0.62239 0.83818,0.83402 0.84254,2.19072 0.009,3.03054 -0.834,0.83982 -2.19072,0.84373 -3.03053,0.01 -0.83899,-0.83401 -0.84373,-2.19071 -0.01,-3.03054 0.41744,-0.4195 0.9649,-0.63046 1.51346,-0.63211 z m -94.370922,0.028 c 0.548437,0.002 1.096436,0.21342 1.513452,0.63334 0.834006,0.83899 0.830087,2.1953 -0.0097,3.02932 -0.839819,0.83401 -2.196529,0.83009 -3.03054,-0.01 -0.834009,-0.839 -0.830091,-2.19653 0.0097,-3.03054 0.419913,-0.41701 0.968664,-0.62416 1.517097,-0.6224 z m 85.601442,0 c 0.54832,-0.002 1.09759,0.20539 1.51707,0.6224 0.83983,0.83401 0.84375,2.19154 0.01,3.03053 -0.834,0.83982 -2.19033,0.84374 -3.02932,0.01 -0.83983,-0.83401 -0.84375,-2.19033 -0.01,-3.02932 0.417,-0.41991 0.96389,-0.63158 1.51225,-0.63333 z m -128.758323,0.15192 c 0.925294,0 1.675127,0.75021 1.675127,1.67634 0,0.9253 -0.749833,1.67635 -1.675127,1.67635 -0.92613,0 -1.676343,-0.75105 -1.676343,-1.67635 0,-0.92613 0.750213,-1.67634 1.676343,-1.67634 z m 171.774163,0 c 0.92618,0 1.67639,0.75021 1.67639,1.67634 0,0.9253 -0.75021,1.67635 -1.67639,1.67635 -0.92526,0 -1.67629,-0.75105 -1.67629,-1.67635 0,-0.92613 0.75103,-1.67634 1.67629,-1.67634 z m -82.75565,0.0231 c 0.44177,0.0111 0.88863,0.10661 1.32018,0.29541 1.84145,0.80496 2.70234,3.0017 1.9231,4.90623 -0.74937,1.82985 -6.14028,6.12613 -6.56434,6.46223 -0.001,0.0116 -0.002,0.0182 -0.002,0.0182 0,0 -0.004,-0.002 -0.0109,-0.007 -0.009,0.007 -0.0146,0.0109 -0.0146,0.0109 0,0 -5.709095,-4.66702 -6.429413,-6.50598 -0.751025,-1.91699 0.142952,-4.09949 1.996049,-4.87707 1.711163,-0.71783 3.642114,0.0154 4.518454,1.64108 0.66161,-1.24914 1.93865,-1.97703 3.26393,-1.94377 z m -80.098305,0.84243 c 0.229111,-0.007 0.463127,0.009 0.69777,0.0499 1.877144,0.32614 3.134585,2.11047 2.809292,3.98845 -0.326139,1.87631 -4.897733,8.05469 -4.897733,8.05469 0,0 -2.226151,-7.35669 -1.900012,-9.23383 0.284646,-1.64252 1.68686,-2.8106 3.290683,-2.85915 z m 154.074765,0 c 1.60384,0.0486 3.00729,1.21663 3.2919,2.85915 0.32534,1.87714 -1.90121,9.23383 -1.90121,9.23383 0,0 -4.57243,-6.17838 -4.89774,-8.05469 -0.32528,-1.87798 0.93256,-3.66231 2.81053,-3.98845 0.23464,-0.0407 0.46744,-0.0568 0.69652,-0.0499 z m -94.813363,0.0328 4.967004,5.39127 -5.390049,4.96703 -10.775244,-5.62589 z m 35.553193,0 11.19706,4.73241 -10.77403,5.62589 -5.39004,-4.96703 z m -64.973603,2.49323 c 1.639816,0.006 2.964624,1.33928 2.958825,2.97827 -0.005,1.64063 -1.338461,2.96623 -2.978267,2.96125 -1.639805,-0.005 -2.964627,-1.33968 -2.958817,-2.97948 0.005,-1.63982 1.338459,-2.96419 2.978259,-2.96004 z m 94.392783,0 c 1.64064,-0.004 2.9745,1.32022 2.9795,2.96004 0.006,1.6398 -1.3194,2.9745 -2.96004,2.97948 -1.63898,0.005 -2.9733,-1.32062 -2.97828,-2.96125 -0.005,-1.63899 1.31901,-2.97247 2.95882,-2.97827 z m -100.596074,0.80714 c 1.183383,0.003 2.139161,0.96584 2.135833,2.14922 -0.0042,1.18338 -0.966208,2.14 -2.150428,2.13585 -1.183381,-0.003 -2.13877,-0.96706 -2.134629,-2.15044 0.0032,-1.18254 0.965838,-2.13877 2.149224,-2.13463 z m 106.800594,0 c 1.18256,-0.004 2.14551,0.95209 2.14802,2.13463 0.004,1.18338 -0.95125,2.14711 -2.13464,2.15044 -1.18339,0.004 -2.14591,-0.95247 -2.1492,-2.13585 -0.004,-1.18338 0.95245,-2.14589 2.13582,-2.14922 z m -94.398854,0.0401 c 1.182555,0.004 2.138773,0.96623 2.134619,2.15044 -0.0032,1.18255 -0.965833,2.13878 -2.149213,2.13462 -1.183378,-0.004 -2.139993,-0.96621 -2.135836,-2.15043 0.0042,-1.18338 0.967049,-2.13877 2.15043,-2.13463 z m 81.997114,0 c 1.18338,-0.004 2.14507,0.95125 2.1492,2.13463 0.004,1.18422 -0.95121,2.14629 -2.13459,2.15043 -1.18341,0.004 -2.1463,-0.95207 -2.15046,-2.13462 -0.003,-1.18421 0.95246,-2.14628 2.13585,-2.15044 z m -126.956763,2.11524 c 0.925294,0 1.675127,0.74983 1.675127,1.67512 0,0.92531 -0.749833,1.67634 -1.675127,1.67634 -0.92613,0 -1.676343,-0.75103 -1.676343,-1.67634 0,-0.92529 0.750213,-1.67512 1.676343,-1.67512 z m 171.774163,0 c 0.92618,0 1.67639,0.74983 1.67639,1.67512 0,0.92531 -0.75021,1.67634 -1.67639,1.67634 -0.92526,0 -1.67629,-0.75103 -1.67629,-1.67634 0,-0.92529 0.75103,-1.67512 1.67629,-1.67512 z m -119.362776,0.36712 c 1.450176,0.0333 3.375782,0.39991 5.276996,1.73225 2.140214,1.49957 2.870885,4.61261 2.093296,6.09391 -1.085459,2.06303 -4.997582,1.46762 -5.128689,-1.14147 -0.269719,-5.40324 -4.666768,-6.41847 -4.666768,-6.41847 0,0 0.974974,-0.29952 2.425165,-0.26622 z m 67.092416,0 c 1.45039,-0.0333 2.42639,0.26622 2.42639,0.26622 0,0 -4.39828,1.01523 -4.668,6.41847 -0.13027,2.60909 -4.04322,3.2045 -5.12868,1.14147 -0.77925,-1.4813 -0.0461,-4.59434 2.09329,-6.09391 1.90123,-1.33234 3.82662,-1.69895 5.277,-1.73225 z m -101.140673,0.73668 c 1.469881,-0.0429 2.860079,0.8653 3.362398,2.32913 0.61908,1.80245 -0.341503,3.76527 -2.143134,4.38352 -1.802462,0.61907 -9.417399,-0.41454 -9.417399,-0.41454 0,0 5.375776,-5.49304 7.178227,-6.11213 0.337809,-0.11608 0.680702,-0.17608 1.019908,-0.18598 z m 135.188943,0 c 0.33926,0.01 0.68331,0.0699 1.02111,0.18598 1.80163,0.61909 7.177,6.11213 7.177,6.11213 0,0 -7.61494,1.03361 -9.41737,0.41454 -1.80163,-0.61825 -2.7614,-2.58107 -2.14316,-4.38352 0.50234,-1.46383 1.89231,-2.37204 3.36242,-2.32913 z m -119.192619,1.13052 c 0.54833,0.002 1.095637,0.21263 1.512231,0.63212 0.834832,0.83982 0.830477,2.19653 -0.0085,3.03054 -0.83983,0.83485 -2.196534,0.8301 -3.030548,-0.01 -0.833168,-0.83816 -0.830085,-2.1957 0.0097,-3.03054 0.419904,-0.41701 0.968764,-0.62427 1.517094,-0.62241 z m 103.196289,0 c 0.54845,-0.002 1.09841,0.20539 1.5183,0.6224 0.83901,0.83484 0.84293,2.19238 0.01,3.03054 -0.83402,0.83982 -2.19153,0.84457 -3.03054,0.01 -0.83981,-0.83401 -0.84373,-2.19071 -0.01,-3.03054 0.417,-0.41949 0.96378,-0.63025 1.51223,-0.63212 z m -94.426823,0.028 c 0.548235,0.002 1.09523,0.21384 1.512234,0.63334 0.834015,0.83983 0.83048,2.19569 -0.0085,3.03053 -0.839825,0.83402 -2.197749,0.82927 -3.031758,-0.01 -0.834011,-0.83899 -0.828878,-2.19691 0.01093,-3.03175 0.419915,-0.417 0.968862,-0.62426 1.517097,-0.62239 z m 85.658573,0 c 0.54833,-0.002 1.09636,0.20539 1.51586,0.62239 0.83983,0.83484 0.84578,2.19276 0.0109,3.03175 -0.83401,0.83899 -2.19073,0.84374 -3.03054,0.01 -0.83981,-0.83482 -0.84373,-2.1907 -0.01,-3.03053 0.417,-0.41949 0.96512,-0.63147 1.51345,-0.63334 z m -53.335271,1.38945 c 1.955977,0 3.541096,1.58511 3.541096,3.5411 0,1.95599 -1.585119,3.54109 -3.541096,3.54109 -1.955168,0 -3.541106,-1.5851 -3.541106,-3.54109 0,-1.95599 1.585938,-3.5411 3.541106,-3.5411 z m 19.544711,0 c 1.95516,0 3.54109,1.58511 3.54109,3.5411 0,1.95599 -1.58593,3.54109 -3.54109,3.54109 -1.95599,0 -3.54109,-1.5851 -3.54109,-3.54109 0,-1.95599 1.5851,-3.5411 3.54109,-3.5411 z m -56.258823,0.4133 c 1.183386,0.004 2.139989,0.96584 2.135851,2.14922 -0.0042,1.18338 -0.965845,2.13999 -2.149223,2.13584 -1.183384,-0.003 -2.140382,-0.96582 -2.137051,-2.1492 0.0042,-1.18256 0.967034,-2.13917 2.150423,-2.13586 z m 94.438973,0 c 1.18336,-0.003 2.14628,0.95329 2.15043,2.13586 0.004,1.18338 -0.95246,2.14588 -2.13585,2.1492 -1.18419,0.004 -2.14627,-0.95246 -2.1504,-2.13584 -0.004,-1.18338 0.95246,-2.14506 2.13582,-2.14922 z m -83.505702,0.3039 c 1.214914,0 2.19905,0.98535 2.19905,2.20028 0,1.21491 -0.984136,2.19906 -2.19905,2.19906 -1.214088,0 -2.199055,-0.98415 -2.199055,-2.19906 0,-1.21493 0.984967,-2.20028 2.199055,-2.20028 z m 72.572412,0 c 1.21412,0 2.19908,0.98535 2.19908,2.20028 0,1.21491 -0.98496,2.19906 -2.19908,2.19906 -1.21492,0 -2.19903,-0.98415 -2.19903,-2.19906 0,-1.21493 0.98411,-2.20028 2.19903,-2.20028 z m -122.243793,1.98389 c 0.925294,0 1.675127,0.7502 1.675127,1.67633 0,0.92612 -0.749833,1.67633 -1.675127,1.67633 -0.92613,0 -1.676343,-0.75021 -1.676343,-1.67633 0,-0.92613 0.750213,-1.67633 1.676343,-1.67633 z m 171.774163,0 c 0.92618,0 1.67639,0.7502 1.67639,1.67633 0,0.92612 -0.75021,1.67633 -1.67639,1.67633 -0.92526,0 -1.67629,-0.75021 -1.67629,-1.67633 0,-0.92613 0.75103,-1.67633 1.67629,-1.67633 z m -171.289136,6.1145 c 0.926127,0 1.67512,0.75022 1.67512,1.67634 0,0.92547 -0.748993,1.67634 -1.67512,1.67634 -0.925301,0 -1.676336,-0.75087 -1.676336,-1.67634 0,-0.92612 0.751035,-1.67634 1.676336,-1.67634 z m 6.354039,0 c 0.925294,0 1.675126,0.75022 1.675126,1.67634 0,0.92547 -0.749832,1.67634 -1.675126,1.67634 -0.926123,0 -1.67634,-0.75087 -1.67634,-1.67634 0,-0.92612 0.750217,-1.67634 1.67634,-1.67634 z m 6.351609,0 c 0.926126,0 1.676336,0.75022 1.676336,1.67634 0,0.92547 -0.75021,1.67634 -1.676336,1.67634 -0.925301,0 -1.67634,-0.75087 -1.67634,-1.67634 0,-0.92612 0.751039,-1.67634 1.67634,-1.67634 z m 6.354035,0 c 0.925302,0 1.675123,0.75022 1.675123,1.67634 0,0.92547 -0.749821,1.67634 -1.675123,1.67634 -0.926133,0 -1.676347,-0.75087 -1.676336,-1.67634 0,-0.92612 0.750203,-1.67634 1.676336,-1.67634 z m 6.352821,0 c 0.926124,0 1.676347,0.75022 1.676342,1.67634 0,0.92547 -0.750218,1.67634 -1.676342,1.67634 -0.925295,0 -1.676339,-0.75087 -1.676339,-1.67634 0,-0.92612 0.751044,-1.67634 1.676339,-1.67634 z m 6.352826,0 c 0.92529,0 1.676342,0.75022 1.676342,1.67634 0,0.92547 -0.751052,1.67634 -1.676342,1.67634 -0.926121,0 -1.676337,-0.75087 -1.676337,-1.67634 0,-0.92612 0.750216,-1.67634 1.676337,-1.67634 z m 6.108475,0 c 0.925309,0 1.676339,0.75022 1.676339,1.67634 0,0.92547 -0.75103,1.67634 -1.676339,1.67634 -0.925293,0 -1.675117,-0.75087 -1.675117,-1.67634 0,-0.92612 0.749824,-1.67634 1.675117,-1.67634 z m 6.35404,0 c 0.925296,0 1.67513,0.75022 1.67513,1.67634 0,0.92547 -0.749834,1.67634 -1.67513,1.67634 -0.926126,0 -1.676326,-0.75087 -1.676326,-1.67634 0,-0.92612 0.7502,-1.67634 1.676326,-1.67634 z m 6.352829,0 c 0.926126,0 1.676336,0.75022 1.676328,1.67634 8e-6,0.92547 -0.750202,1.67634 -1.676328,1.67634 -0.925299,0 -1.676337,-0.75087 -1.676337,-1.67634 0,-0.92612 0.751038,-1.67634 1.676337,-1.67634 z m 6.352817,0 c 0.925288,0 1.675117,0.75022 1.675117,1.67634 0,0.92547 -0.749829,1.67634 -1.675117,1.67634 -0.925298,0 -1.676336,-0.75087 -1.676336,-1.67634 0,-0.92612 0.751038,-1.67634 1.676336,-1.67634 z m 6.354033,0 c 0.925301,0 1.675127,0.75022 1.675127,1.67634 0,0.92547 -0.749826,1.67634 -1.675127,1.67634 -0.926127,0 -1.676339,-0.75087 -1.676339,-1.67634 0,-0.92612 0.750212,-1.67634 1.676339,-1.67634 z m 6.351606,0 c 0.926126,0 1.676339,0.75022 1.676339,1.67634 0,0.92547 -0.750213,1.67634 -1.676339,1.67634 -0.925296,0 -1.676337,-0.75087 -1.676337,-1.67634 0,-0.92612 0.751041,-1.67634 1.676337,-1.67634 z m 6.354043,0 c 0.925295,0 1.675124,0.75022 1.675124,1.67634 0,0.92547 -0.749829,1.67634 -1.675124,1.67634 -0.926132,0 -1.676345,-0.75087 -1.676345,-1.67634 0,-0.92612 0.750213,-1.67634 1.676345,-1.67634 z m 6.352828,0 c 0.92611,0 1.676325,0.75022 1.676325,1.67634 0,0.92547 -0.750215,1.67634 -1.676325,1.67634 -0.925309,0 -1.676339,-0.75087 -1.676339,-1.67634 0,-0.92612 0.75103,-1.67634 1.676339,-1.67634 z m 6.352815,0 c 0.9253,0 1.67634,0.75022 1.67634,1.67634 0,0.92547 -0.75104,1.67634 -1.67634,1.67634 -0.92613,0 -1.67634,-0.75087 -1.67634,-1.67634 0,-0.92612 0.75021,-1.67634 1.67634,-1.67634 z m 6.35283,0 c 0.92613,0 1.67634,0.75022 1.67634,1.67634 0,0.92547 -0.75021,1.67634 -1.67634,1.67634 -0.9253,0 -1.67633,-0.75087 -1.67633,-1.67634 0,-0.92612 0.75103,-1.67634 1.67633,-1.67634 z m 6.35403,0 c 0.9253,0 1.67634,0.75022 1.67634,1.67634 0,0.92547 -0.75104,1.67634 -1.67634,1.67634 -0.92529,0 -1.67633,-0.75087 -1.67633,-1.67634 0,-0.92612 0.75104,-1.67634 1.67633,-1.67634 z m 6.35162,0 c 0.92612,0 1.67633,0.75022 1.67633,1.67634 0,0.92547 -0.75021,1.67634 -1.67633,1.67634 -0.9253,0 -1.67514,-0.75087 -1.67514,-1.67634 0,-0.92612 0.74984,-1.67634 1.67514,-1.67634 z m 6.35403,0 c 0.92614,0 1.67633,0.75022 1.67633,1.67634 0,0.92547 -0.75019,1.67634 -1.67633,1.67634 -0.92528,0 -1.67634,-0.75087 -1.67634,-1.67634 0,-0.92612 0.75104,-1.67634 1.67634,-1.67634 z m 6.35284,0 c 0.92528,0 1.67631,0.75022 1.67631,1.67634 0,0.92547 -0.75103,1.67634 -1.67631,1.67634 -0.92532,0 -1.67636,-0.75087 -1.67636,-1.67634 0,-0.92612 0.75104,-1.67634 1.67636,-1.67634 z m 6.3528,0 c 0.92612,0 1.67636,0.75022 1.67636,1.67634 0,0.92547 -0.75024,1.67634 -1.67636,1.67634 -0.92529,0 -1.67512,-0.75087 -1.67512,-1.67634 0,-0.92612 0.74983,-1.67634 1.67512,-1.67634 z m 6.35402,0 c 0.92616,0 1.67635,0.75022 1.67635,1.67634 0,0.92547 -0.75019,1.67634 -1.67635,1.67634 -0.92611,0 -1.67633,-0.75087 -1.67633,-1.67634 0,-0.92612 0.75022,-1.67634 1.67633,-1.67634 z m 6.35284,0 c 0.92532,0 1.67513,0.75022 1.67513,1.67634 0,0.92547 -0.74981,1.67634 -1.67513,1.67634 -0.92529,0 -1.67632,-0.75087 -1.67632,-1.67634 0,-0.92612 0.75103,-1.67634 1.67632,-1.67634 z m 6.35283,0 c 0.92529,0 1.67634,0.75022 1.67634,1.67634 0,0.92547 -0.75105,1.67634 -1.67634,1.67634 -0.92529,0 -1.67511,-0.75087 -1.67511,-1.67634 0,-0.92612 0.74982,-1.67634 1.67511,-1.67634 z m 6.35281,0 c 0.92697,0 1.67634,0.75022 1.67634,1.67634 0,0.92547 -0.74937,1.67634 -1.67634,1.67634 -0.92527,0 -1.67634,-0.75087 -1.67634,-1.67634 0,-0.92612 0.75107,-1.67634 1.67634,-1.67634 z m 6.35408,0 c 0.92527,0 1.67512,0.75022 1.67512,1.67634 0,0.92547 -0.74985,1.67634 -1.67512,1.67634 -0.92617,0 -1.67635,-0.75087 -1.67635,-1.67634 0,-0.92612 0.75018,-1.67634 1.67635,-1.67634 z m 6.35279,0 c 0.92533,0 1.67513,0.75022 1.67513,1.67634 0,0.92547 -0.7498,1.67634 -1.67513,1.67634 -0.92529,0 -1.67632,-0.75087 -1.67632,-1.67634 0,-0.92612 0.75103,-1.67634 1.67632,-1.67634 z m 6.3528,0 c 0.92618,0 1.67639,0.75022 1.67639,1.67634 0,0.92547 -0.75021,1.67634 -1.67639,1.67634 -0.92526,0 -1.67629,-0.75087 -1.67629,-1.67634 0,-0.92612 0.75103,-1.67634 1.67629,-1.67634 z m -166.034021,4.41391 c 1.455582,0 2.634252,1.17755 2.634252,2.63304 0,1.45583 -1.17867,2.63546 -2.634252,2.63546 -1.454746,0 -2.635458,-1.17963 -2.635458,-2.63546 0,-1.45549 1.180712,-2.63304 2.635458,-2.63304 z m 23.213459,0 c 1.454748,0 2.634237,1.17755 2.634237,2.63304 0,1.45583 -1.179489,2.63546 -2.634237,2.63546 -1.455579,0 -2.635459,-1.17963 -2.635459,-2.63546 0,-1.45549 1.17988,-2.63304 2.635459,-2.63304 z m 22.723546,0 c 1.455584,0 2.635462,1.17755 2.635462,2.63304 0,1.45583 -1.179878,2.63546 -2.635462,2.63546 -1.455578,0 -2.634236,-1.17963 -2.634236,-2.63546 0,-1.45549 1.178658,-2.63304 2.634236,-2.63304 z m 23.214677,0 c 1.45474,0 2.634237,1.17755 2.634237,2.63304 0,1.45583 -1.179497,2.63546 -2.634237,2.63546 -1.455589,0 -2.635472,-1.17963 -2.635472,-2.63546 0,-1.45549 1.179883,-2.63304 2.635472,-2.63304 z m 22.723559,0 c 1.45558,0 2.63546,1.17755 2.63546,2.63304 0,1.45583 -1.17988,2.63546 -2.63546,2.63546 -1.45475,0 -2.63425,-1.17963 -2.63425,-2.63546 0,-1.45549 1.1795,-2.63304 2.63425,-2.63304 z m 22.9691,0 c 1.45475,0 2.63426,1.17755 2.63426,2.63304 0,1.45583 -1.17951,2.63546 -2.63426,2.63546 -1.45474,0 -2.63546,-1.17963 -2.63546,-2.63546 0,-1.45549 1.18072,-2.63304 2.63546,-2.63304 z m 23.21348,0 c 1.45555,0 2.63424,1.17755 2.63424,2.63304 0,1.45583 -1.17869,2.63546 -2.63424,2.63546 -1.45477,0 -2.63547,-1.17963 -2.63547,-2.63546 0,-1.45549 1.1807,-2.63304 2.63547,-2.63304 z m 22.23609,0 c 1.45475,0 2.63424,1.17755 2.63424,2.63304 0,1.45583 -1.17949,2.63546 -2.63424,2.63546 -1.45562,0 -2.63549,-1.17963 -2.63549,-2.63546 0,-1.45549 1.17987,-2.63304 2.63549,-2.63304 z m -168.912638,1.7505 c 0,0 3.34724,0.59164 5.27335,3.04877 1.925277,2.45656 1.700653,5.84834 1.700653,5.84834 0,0 -3.34603,-0.59163 -5.27214,-3.04876 -1.925281,-2.45657 -1.701863,-5.84835 -1.701863,-5.84835 z m 17.236252,0 c 0,0 0.22546,3.39178 -1.700654,5.84835 -1.925284,2.45713 -5.27335,3.04876 -5.27335,3.04876 0,0 -0.224247,-3.39178 1.701864,-5.84834 1.925284,-2.45713 5.27214,-3.04877 5.27214,-3.04877 z m 5.977198,0 c 0,0 3.34686,0.59164 5.272133,3.04877 1.926119,2.45656 1.70308,5.84834 1.70308,5.84834 0,0 -3.348074,-0.59163 -5.273347,-3.04876 -1.926119,-2.45657 -1.701866,-5.84835 -1.701866,-5.84835 z m 17.236247,0 c 0,0 0.224634,3.39178 -1.700646,5.84835 -1.926109,2.45713 -5.273353,3.04876 -5.273353,3.04876 0,0 -0.223409,-3.39178 1.701869,-5.84834 1.926106,-2.45713 5.27213,-3.04877 5.27213,-3.04877 z m 5.488519,0 c 0,0 3.347241,0.59164 5.273358,3.04877 1.925272,2.45656 1.700641,5.84834 1.700641,5.84834 0,0 -3.347239,-0.59163 -5.273344,-3.04876 -1.925283,-2.45657 -1.700655,-5.84835 -1.700655,-5.84835 z m 17.236252,0 c 0,0 0.224251,3.39178 -1.701863,5.84835 -1.925286,2.45713 -5.27213,3.04876 -5.27213,3.04876 0,0 -0.224258,-3.39178 1.70185,-5.84834 1.925283,-2.45713 5.272143,-3.04877 5.272143,-3.04877 z m 5.9772,0 c 0,0 3.346857,0.59164 5.272132,3.04877 1.926117,2.45656 1.701874,5.84834 1.701874,5.84834 0,0 -3.346865,-0.59163 -5.272143,-3.04876 -1.926108,-2.45657 -1.701863,-5.84835 -1.701863,-5.84835 z m 17.236255,0 c 0,0 0.224242,3.39178 -1.701864,5.84835 -1.92528,2.45713 -5.27214,3.04876 -5.27214,3.04876 0,0 -0.22546,-3.39178 1.700651,-5.84834 1.926114,-2.45713 5.273353,-3.04877 5.273353,-3.04877 z m 5.488515,0 c 0,0 3.34602,0.59164 5.27215,3.04877 1.92611,2.45656 1.70064,5.84834 1.70064,5.84834 0,0 -3.34602,-0.59163 -5.27213,-3.04876 -1.92529,-2.45657 -1.70066,-5.84835 -1.70066,-5.84835 z m 17.23625,0 c 0,0 0.22426,3.39178 -1.70185,5.84835 -1.92611,2.45713 -5.27336,3.04876 -5.27336,3.04876 0,0 -0.22341,-3.39178 1.70187,-5.84834 1.92611,-2.45713 5.27334,-3.04877 5.27334,-3.04877 z m 5.73167,0 c 0,0 3.34684,0.59164 5.27211,3.04877 1.92696,2.45656 1.70307,5.84834 1.70307,5.84834 0,0 -3.34723,-0.59163 -5.27334,-3.04876 -1.9261,-2.45657 -1.70184,-5.84835 -1.70184,-5.84835 z m 17.23624,0 c 0,0 0.22583,3.39178 -1.69943,5.84835 -1.92694,2.45713 -5.27457,3.04876 -5.27457,3.04876 0,0 -0.22343,-3.39178 1.70186,-5.84834 1.92612,-2.45713 5.27214,-3.04877 5.27214,-3.04877 z m 5.97721,0 c 0,0 3.34808,0.59164 5.27332,3.04877 1.92612,2.45656 1.70069,5.84834 1.70069,5.84834 -3e-5,0 -3.34728,-0.59163 -5.27338,-3.04876 -1.92529,-2.45657 -1.70063,-5.84835 -1.70063,-5.84835 z m 17.23625,0 c 0,0 0.22546,3.39178 -1.70066,5.84835 -1.92527,2.45713 -5.27214,3.04876 -5.27214,3.04876 0,0 -0.22587,-3.39178 1.69943,-5.84834 1.92695,-2.45713 5.27337,-3.04877 5.27337,-3.04877 z m 4.99984,0 c 0,0 3.34804,0.59164 5.27335,3.04877 1.92528,2.45656 1.70064,5.84834 1.70064,5.84834 0,0 -3.34602,-0.59163 -5.27211,-3.04876 -1.92614,-2.45657 -1.70188,-5.84835 -1.70188,-5.84835 z m 17.23624,0 c 0,0 0.22462,3.39178 -1.70064,5.84835 -1.92528,2.45713 -5.27214,3.04876 -5.27214,3.04876 0,0 -0.22584,-3.39178 1.69942,-5.84834 1.9261,-2.45713 5.27336,-3.04877 5.27336,-3.04877 z"
       inkscape:connector-curvature="0" />
  </g>
</svg>
