<?xml version="1.0" encoding="UTF-8" standalone="no"?>
<svg
   xmlns:dc="http://purl.org/dc/elements/1.1/"
   xmlns:cc="http://creativecommons.org/ns#"
   xmlns:rdf="http://www.w3.org/1999/02/22-rdf-syntax-ns#"
   xmlns:svg="http://www.w3.org/2000/svg"
   xmlns="http://www.w3.org/2000/svg"
   xmlns:sodipodi="http://sodipodi.sourceforge.net/DTD/sodipodi-0.dtd"
   xmlns:inkscape="http://www.inkscape.org/namespaces/inkscape"
   sodipodi:docname="mexican style buntings - happy 30th birthday kevy.svg"
   inkscape:version="1.0beta2 (2b71d25, 2019-12-03)"
   id="svg4738"
   version="1.1"
   viewBox="0 0 210 297"
   height="297mm"
   width="210mm">
  <defs
     id="defs4732" />
  <sodipodi:namedview
     inkscape:window-maximized="0"
     inkscape:window-y="23"
     inkscape:window-x="0"
     inkscape:window-height="880"
     inkscape:window-width="1600"
     showgrid="false"
     inkscape:document-rotation="0"
     inkscape:current-layer="layer1"
     inkscape:document-units="mm"
     inkscape:cy="560"
     inkscape:cx="305.71429"
     inkscape:zoom="0.35"
     inkscape:pageshadow="2"
     inkscape:pageopacity="0.0"
     borderopacity="1.0"
     bordercolor="#666666"
     pagecolor="#ffffff"
     id="base" />
  <metadata
     id="metadata4735">
    <rdf:RDF>
      <cc:Work
         rdf:about="">
        <dc:format>image/svg+xml</dc:format>
        <dc:type
           rdf:resource="http://purl.org/dc/dcmitype/StillImage" />
        <dc:title></dc:title>
      </cc:Work>
    </rdf:RDF>
  </metadata>
  <g
     id="layer1"
     inkscape:groupmode="layer"
     inkscape:label="Layer 1">
    <g
       transform="translate(-23.335741,-3.06864)"
       id="g4807">
      <path
         d="m 30.425428,147.84224 q 0.15495,-0.33573 0.645625,-0.69728 0.490673,-0.36155 1.136298,-0.64562 0.645623,-0.3099 1.368723,-0.5165 0.748923,-0.2066 1.394548,-0.23242 0.206598,0 0.413199,0.0774 0.232425,0.0774 0.439023,0.0774 0.206601,0 0.4132,-0.0258 0.206601,-0.0517 0.361549,-0.0517 0.98135,0.10329 1.652798,0.64562 0.697273,0.54232 1.007173,1.13629 0.309899,0.6198 0.284076,1.2396 -0.02582,0.59398 -0.258251,1.16213 -0.206599,0.56815 -0.568148,1.08465 -0.361549,0.49066 -0.748924,0.90387 -0.206601,0.15494 -0.593976,0.30989 -0.387374,0.12913 -0.774748,0.18078 -0.258249,0.12913 -0.464848,0.1033 -0.2066,-0.0517 -0.1033,0.12913 0,0.0517 0.07747,0.0774 0.103299,0 0.154949,0.0517 0.387375,0.0774 0.774749,0.12912 0.387374,0.0517 0.748923,0.15495 0.387374,0.10331 0.723099,0.28408 0.361549,0.18077 0.697274,0.5165 0.490673,0.49067 0.774749,1.00717 0.284075,0.5165 0.284075,1.00718 0.129124,0.69727 -0.103301,1.57531 -0.232423,0.85223 -0.671448,1.4462 -0.542325,0.64563 -1.342899,0.98135 -0.800572,0.33572 -1.472021,0.67145 -0.542324,0.23242 -1.136298,0.3099 -0.593974,0.0774 -1.187948,0.0774 -0.568149,0 -1.084649,-0.0517 -0.490674,-0.0517 -0.826399,-0.0517 -0.645624,0 -1.110472,-0.15494 -0.439026,-0.15495 -0.8264,-0.28407 -0.180774,-0.0517 -0.413199,-0.18078 -0.232425,-0.15495 -0.439024,-0.33573 -0.180775,-0.18077 -0.3099,-0.38737 -0.129126,-0.2066 -0.129126,-0.38737 -0.05165,-0.2066 0.180776,-0.28407 0.232424,-0.0775 0.387375,-0.28408 0.1033,-0.23242 0.232424,-0.43902 0.129125,-0.20661 0.284075,-0.33573 0.154949,-0.12912 0.3099,-0.12912 0.180773,0 0.335723,0.18077 0.206599,0.28408 0.774749,0.74892 0.568151,0.43903 1.291249,0.77475 0.748923,0.33573 1.523672,0.4132 0.774749,0.0517 1.420372,-0.49067 0.335725,-0.33573 0.671449,-0.77475 0.335726,-0.43902 0.335726,-1.033 0,-0.5165 -0.15495,-1.05882 -0.154951,-0.54233 -0.439025,-1.00718 -0.284074,-0.49067 -0.697273,-0.85222 -0.4132,-0.36155 -0.929699,-0.5165 -0.2066,-0.12913 -0.593974,-0.25825 -0.36155,-0.12912 -0.903874,-0.25824 -0.206599,-0.0259 -0.387375,0.0258 -0.15495,0.0258 -0.309898,0.0517 -0.129125,0.0258 -0.258249,-0.0258 -0.129126,-0.0517 -0.258251,-0.25826 -0.07747,-0.15494 -0.154949,-0.33572 -0.07748,-0.2066 -0.1033,-0.36155 -0.02582,-0.18077 0,-0.3099 0.05165,-0.12913 0.180773,-0.15494 0.335727,-0.12914 0.878049,-0.12914 0.542325,0 1.110474,-0.0774 0.593974,-0.10329 1.162123,-0.38737 0.56815,-0.28407 1.007174,-0.98135 0.206599,-0.2066 0.232424,-0.49067 0.05165,-0.28408 0.05165,-0.64563 -0.05165,-0.23242 -0.154951,-0.54232 -0.103299,-0.3099 -0.284074,-0.59397 -0.180774,-0.28408 -0.439024,-0.43903 -0.232424,-0.15495 -0.542324,-0.0774 -0.284075,0 -0.439025,0 -0.154949,-0.0258 -0.439023,-0.0774 -0.284075,0 -0.5165,0.0517 -0.2066,0.0517 -0.490675,0.15495 -0.02582,0.0258 -0.180774,0.23243 -0.15495,0.18077 -0.361549,0.43902 -0.206601,0.23243 -0.46485,0.49068 -0.258249,0.23242 -0.490674,0.36154 -0.387375,0.15496 -0.748924,-0.0258 -0.335725,-0.2066 -0.335725,-0.90387 0.02583,-0.12912 0,-0.2066 -0.02583,-0.0774 -0.07747,-0.15495 -0.02582,-0.0774 -0.05165,-0.15495 0,-0.0774 0.05165,-0.2066 z"
         style="font-style:normal;font-variant:normal;font-weight:normal;font-stretch:normal;font-size:169.018px;line-height:1.25;font-family:Trattatello;-inkscape-font-specification:Trattatello;display:inline;stroke-width:0.0617679"
         id="path4672"
         inkscape:connector-curvature="0" />
      <path
         d="m 46.202864,145.95701 q 0.387374,-0.20659 0.903874,-0.25824 0.542324,-0.0517 1.110472,-0.0258 0.593975,0.0258 1.162123,0.10329 0.56815,0.0517 1.007174,0.0517 0.593974,0.1033 1.162125,0.38737 0.568146,0.25825 0.852221,0.74892 0.129126,0.23243 0.232426,0.67146 0.103297,0.41319 0.154949,0.85222 0.07747,0.43902 0.1033,0.82639 0.02582,0.36156 0,0.46486 0,1.54949 -0.180774,3.07316 -0.154951,1.49785 -0.645624,2.86658 -0.464851,1.34289 -1.317074,2.50502 -0.826399,1.13629 -2.169296,1.9627 -0.516499,0.30989 -1.162123,0.49066 -0.645624,0.18078 -1.342897,0.23243 -0.671451,0.0517 -1.342899,-0.0258 -0.671449,-0.0774 -1.239598,-0.25825 -0.284075,-0.0517 -0.46485,-0.0774 -0.154948,-0.0258 -0.464848,-0.15495 -0.490674,-0.25826 -0.723098,-0.87805 -0.206601,-0.64563 -0.284076,-1.36873 -0.07747,-0.74892 -0.07747,-1.44619 0.02582,-0.7231 0,-1.18795 0,-0.46485 0,-1.11047 0.02582,-0.67145 0.05165,-1.36872 0.05165,-0.7231 0.154951,-1.36872 0.103299,-0.67145 0.284074,-1.11048 0.748923,-1.60114 1.807748,-2.63415 1.084647,-1.033 2.427545,-1.96269 z m -0.129124,2.53085 q -0.593974,0.23242 -0.800575,0.56815 -0.206599,0.3099 -0.25825,0.67145 -0.05165,0.33572 -0.05165,0.69727 0,0.36155 -0.180776,0.7231 0,0.15495 -0.07747,0.25825 -0.07747,0.1033 -0.07747,0.3099 v 1.00717 q -0.154948,0.28408 -0.258249,0.5165 -0.1033,0.23242 -0.1033,0.54233 0,0.49067 0.129126,0.98135 0.15495,0.49067 0.103299,0.98134 0,0.43903 0,0.87805 0,0.4132 0.284075,0.90388 0.361549,0.59397 0.800574,0.87804 0.464849,0.28408 1.058823,0.33572 0.2066,0.0258 0.439024,-0.0517 0.258249,-0.1033 0.490674,-0.23242 0.232426,-0.15495 0.4132,-0.33572 0.2066,-0.18078 0.309899,-0.3099 0.697274,-0.69728 1.187949,-1.8594 0.490674,-1.16212 0.645622,-2.42754 0.154949,-1.29125 -0.1033,-2.53085 -0.232423,-1.26542 -1.007173,-2.14347 -0.284074,-0.33573 -0.697272,-0.38738 -0.387375,-0.0774 -0.671449,-0.20659 -0.335726,-0.15495 -0.826399,-0.0517 -0.464849,0.0774 -0.748923,0.28407 z"
         style="font-style:normal;font-variant:normal;font-weight:normal;font-stretch:normal;font-size:169.018px;line-height:1.25;font-family:Trattatello;-inkscape-font-specification:Trattatello;display:inline;stroke-width:0.0617679"
         id="path4674"
         inkscape:connector-curvature="0" />
      <path
         d="m 57.748075,150.15703 q 0.148517,0 0.28053,0.0165 0.148517,0 0.264028,0.0495 0.132015,0.033 0.19802,0.13202 0.08251,0.0825 0.08251,0.24752 0,0.099 -0.231023,0.37955 -0.231025,0.26402 -0.511555,0.59406 -0.26403,0.31354 -0.495052,0.62707 -0.231026,0.29703 -0.231026,0.46205 0,0.13201 0.06601,0.19802 0.08251,0.066 0.181518,0.099 0.09901,0.0165 0.198022,0.033 0.115512,0 0.165018,0 h 0.544558 q 0.033,-0.033 0.09901,-0.0825 0.132014,-0.099 0.214523,-0.099 0.247528,0 0.346538,0.19802 0.115512,0.19801 0.115512,0.44555 v 0.13201 0.31353 q 0,0.18152 -0.198021,0.28053 -0.198021,0.099 -0.445548,0.14852 -0.231025,0.0495 -0.46205,0.0661 -0.214522,0.0165 -0.264028,0.0165 -0.247526,0 -0.28053,-0.0165 -0.03301,-0.033 -0.132013,-0.033 h -0.330035 q -0.09901,0 -0.28053,0.099 -0.181521,0.099 -0.181521,0.23103 0,0.18152 -0.01649,0.33003 -0.0165,0.13202 -0.03301,0.23102 -0.01651,0.11552 -0.03301,0.21453 -0.0495,0.099 -0.09901,0.18152 -0.08251,0.16501 -0.08251,0.28053 v 0.18152 q 0,0.28052 -0.08251,0.61056 -0.08251,0.33004 -0.148515,0.39604 -0.08251,0.0825 -0.132014,0.16502 -0.04951,0.066 -0.04951,0.37955 v 0.33003 q 0,0.099 0.03301,0.24753 0.03301,0.13201 0.115512,0.24752 0.08251,0.11552 0.198022,0.19803 0.115512,0.0825 0.297031,0.0825 0.214524,0 0.363038,-0.11551 0.06601,-0.0495 0.132016,-0.11551 0.132014,0 0.198019,0.0825 0.08251,0.066 0.148517,0.14852 0.06601,0.099 0.115513,0.23103 0,0.13201 -0.115513,0.34653 -0.09901,0.21453 -0.247526,0.42905 -0.148517,0.19802 -0.313534,0.36304 -0.165018,0.14851 -0.28053,0.14851 -0.115513,0 -0.231023,0.18152 -0.09901,0.19802 -0.09901,0.28053 -0.0495,0 -0.181518,0.033 -0.132016,0.033 -0.26403,0.066 -0.165018,0.0495 -0.330034,0.0825 -0.214523,0 -0.346538,-0.033 -0.115514,-0.0165 -0.115514,-0.14851 -0.0495,-0.033 -0.148514,-0.24752 -0.09901,-0.19803 -0.198021,-0.44555 -0.09901,-0.24753 -0.181521,-0.47855 -0.06601,-0.24753 -0.06601,-0.34655 v -0.77558 q 0,-0.066 0.03301,-0.29703 0.0495,-0.24752 0.09901,-0.52805 0.06601,-0.29703 0.09901,-0.57756 0.0495,-0.29704 0.0495,-0.47856 v -0.28053 q 0.132014,-0.37953 0.247526,-0.67657 0.08251,-0.26403 0.165018,-0.47855 0.08251,-0.23102 0.08251,-0.26403 v -0.51155 q 0,-0.21453 -0.132014,-0.26403 -0.09901,-0.0825 -0.214524,-0.16502 -0.115513,-0.0825 -0.115513,-0.21452 0,-0.099 0.06601,-0.19802 0.08251,-0.11552 0.18152,-0.23103 0.115511,-0.11551 0.214522,-0.23102 0.115513,-0.13202 0.181519,-0.24753 0.115512,-0.24753 0.214524,-0.29703 0.115513,-0.066 0.247526,-0.16502 0.214522,-0.24753 0.462049,-0.41254 0.247526,-0.16502 0.462051,-0.51156 0.132013,-0.23102 0.198021,-0.46205 0.06601,-0.23103 0.29703,-0.36304 0.214523,-0.066 0.379541,-0.24752 0.165019,-0.19802 0.264029,-0.19802 z"
         style="font-style:normal;font-variant:normal;font-weight:normal;font-stretch:normal;font-size:108px;line-height:1.25;font-family:Trattatello;-inkscape-font-specification:Trattatello;display:inline;stroke-width:0.0617679"
         id="path4676"
         inkscape:connector-curvature="0" />
      <path
         d="m 63.078145,145.56955 q 0.346539,0 0.577562,0.18152 0.231024,0.18151 0.379541,0.42904 0.148515,0.24753 0.214523,0.51156 0.06601,0.26403 0.06601,0.42905 0,0.13201 -0.198022,0.36303 -0.198021,0.23102 -0.429046,0.46205 -0.280531,0.28053 -0.610565,0.59407 -0.115513,0.1155 -0.247527,0.13201 -0.132013,0.0165 -0.264029,0.0165 -0.181519,0 -0.330035,0.033 -0.132014,0.0165 -0.264027,0.14852 -0.346538,0.19802 -0.544559,0.49505 -0.198022,0.29704 -0.330035,0.64357 0,0.066 -0.0495,0.23103 -0.03301,0.16502 -0.09901,0.34653 -0.0495,0.18153 -0.09901,0.34654 -0.03301,0.16502 -0.03301,0.23102 l -0.181519,0.72608 q -0.01649,0.0495 -0.09901,0.36304 -0.06601,0.31354 -0.148516,0.70958 -0.08251,0.39604 -0.148515,0.77558 -0.06601,0.37954 -0.06601,0.54456 0,0.066 0.01649,0.13201 0.03301,0.13202 0.132016,0.13202 0.198022,0 0.478552,-0.24753 0.28053,-0.24753 0.627065,-0.47855 0.09901,-0.099 0.28053,-0.26403 0.181521,-0.16502 0.37954,-0.31353 0.198021,-0.16502 0.379542,-0.26403 0.198021,-0.11551 0.330035,-0.11551 h 0.28053 q 0.313534,0 0.478552,0.28053 0.165017,0.28053 0.231025,0.62707 0.08251,0.34653 0.09901,0.66007 0.01649,0.29703 0.01649,0.34653 l -0.0495,0.56106 q 0,0.099 0.01649,0.41254 0.033,0.31354 0.033,0.54457 0,0.0495 -0.033,0.13201 -0.01649,0.066 -0.0495,0.14852 -0.033,0.0825 -0.06601,0.18151 v 0.31354 q 0,0.21452 -0.0495,0.29703 -0.033,0.0661 -0.033,0.29703 -0.08251,0.26403 -0.181521,0.37954 -0.115513,0.099 -0.181518,0.24753 -0.0495,0.14851 -0.148517,0.24753 -0.06601,0.24752 -0.214522,0.57756 -0.148517,0.33003 -0.379542,0.57756 -0.115513,0.11551 -0.214522,0.33003 -0.09901,0.19802 -0.214522,0.41255 -0.09901,0.19801 -0.26403,0.34653 -0.148516,0.14852 -0.363038,0.14852 h -0.181519 -0.594064 q -0.0495,0 -0.181521,-0.0165 -0.132013,0 -0.264027,-0.0495 -0.132013,-0.033 -0.231025,-0.13201 -0.09901,-0.0825 -0.09901,-0.26403 0,-0.11551 0.08251,-0.28053 0.09901,-0.16502 0.198022,-0.31353 0.115512,-0.16502 0.231023,-0.29704 0.115512,-0.1485 0.165019,-0.21452 0.247526,-0.19802 0.462049,-0.41254 0.214522,-0.21452 0.330034,-0.31354 0.330035,-0.24752 0.396043,-0.47855 0.08251,-0.24752 0.198022,-0.49505 0.231025,-0.44555 0.363038,-0.72608 0.132014,-0.29703 0.132014,-0.64356 v -0.64357 q 0,-0.066 -0.03301,-0.19802 -0.03301,-0.13202 -0.115513,-0.24753 -0.08251,-0.13202 -0.214522,-0.23103 -0.115513,-0.099 -0.28053,-0.099 -0.09901,0 -0.165018,0.099 -0.0495,0.0825 -0.28053,0.21452 -0.594064,0.44555 -0.9406,0.97361 -0.346538,0.51156 -0.627068,1.08912 -0.09901,0.34654 -0.165017,0.74257 -0.06601,0.37955 -0.132014,0.77559 -0.06601,0.37954 -0.132013,0.74258 -0.06601,0.36304 -0.165018,0.67657 -0.132015,0.21453 -0.330037,0.33003 -0.181519,0.13202 -0.313531,0.13202 -0.247529,0 -0.379542,-0.13202 -0.115514,-0.13201 -0.181519,-0.31352 -0.06601,-0.18153 -0.08251,-0.36304 0,-0.19803 0,-0.29704 v -1.55117 q 0,-0.066 0.09901,-0.44554 0.09901,-0.37954 0.214522,-0.84159 0.132016,-0.47855 0.231026,-0.9241 0.09901,-0.44555 0.09901,-0.67658 0.0495,-0.13201 0.06601,-0.24752 0.03301,-0.11551 0.06601,-0.21452 0.03301,-0.11552 0.0495,-0.23103 v -0.46204 q 0,-0.066 0,-0.099 0.0165,-0.0495 0.09901,-0.0825 0,-0.033 0.0165,-0.066 0.0165,-0.033 0.0165,-0.066 v -0.33003 q 0,-0.0495 0.0495,-0.21453 0.0495,-0.18152 0.115511,-0.39604 0.06601,-0.21453 0.115512,-0.42905 0.0495,-0.21452 0.0495,-0.33003 v -1.00661 q 0,-0.47856 0.115511,-0.85809 0.132015,-0.37954 0.19802,-0.61057 l 0.04951,-0.46205 q 0.0165,-0.11551 0.11551,-0.34654 0.115514,-0.24752 0.247529,-0.49505 0.132013,-0.24753 0.264027,-0.46204 0.132014,-0.21453 0.198022,-0.26404 0.09901,-0.0495 0.132013,-0.18151 0.0495,-0.13202 0.08251,-0.28053 0.0495,-0.14852 0.115513,-0.28054 0.08251,-0.14851 0.264029,-0.21452 0.03301,0 0.09901,0 0.06601,-0.0165 0.132013,-0.0495 0.03301,-0.033 0.09901,-0.033 0.06601,0 0.132014,0 0.132014,-0.13203 0.379541,-0.28054 0.264027,-0.14852 0.528057,-0.28053 0.297031,-0.14852 0.66007,-0.26403 z"
         style="font-style:normal;font-variant:normal;font-weight:normal;font-stretch:normal;font-size:108px;line-height:1.25;font-family:Trattatello;-inkscape-font-specification:Trattatello;display:inline;stroke-width:0.0617679"
         id="path4678"
         inkscape:connector-curvature="0" />
      <path
         d="m 31.785713,128.9648 h 0.284074 q 0.206601,0 0.516499,0.15496 0.335725,0.15494 0.697274,0.15494 l 0.7231,-0.23242 h 1.007174 0.490673 q 0.284075,0 0.387374,0.25825 0.05165,0.1033 0.05165,0.25825 0,0.54232 -0.154949,0.77474 -0.154951,0.20661 -0.4132,0.28408 -0.232425,0.0517 -0.516499,0.0774 -0.258249,0 -0.5165,0.1033 -0.232424,0.1033 -0.387374,0.4132 -0.154949,0.28407 -0.154949,0.9297 0,0.2066 0.103298,0.64562 0.103301,0.43903 0.103301,0.64563 v 0.7231 q 0,0.5165 0.335724,0.90387 0.335724,0.38737 0.878049,0.38737 0.206601,0 0.361549,-0.0774 0.103301,-0.0258 0.15495,-0.0774 l 0.929698,0.15496 h 0.77475 0.439024 q 0.206601,0 0.413198,0.0258 0.4132,0.0517 0.593975,0.25825 0.129125,0 0.2066,-0.0258 0.103298,-0.0517 0.154949,-0.0517 0.1033,-0.0517 0.2066,-0.12912 0.103301,-0.0774 0.154949,-0.0774 h 1.007174 q 0.15495,-0.12913 0.284075,-0.3099 0.129124,-0.2066 0.129124,-0.4132 v -0.36155 -1.6528 l -0.284075,-1.29125 v -0.43903 q 0,-0.25825 -0.180774,-0.36155 -0.180775,-0.10329 -0.387373,-0.18077 -0.206602,-0.0774 -0.387375,-0.2066 -0.180776,-0.15495 -0.180776,-0.54233 0,-0.30989 0.309901,-0.56814 0.309899,-0.28408 0.697273,-0.28408 0.335725,0.12912 0.697274,0.23243 0.309899,0.0774 0.671449,0.15495 0.387375,0.0517 0.774748,0.0517 h 0.284076 0.723098 q 0.258249,0 0.593974,0.0774 0.335725,0.0517 0.593974,0.2066 0.284075,0.12912 0.464849,0.38738 0.2066,0.23242 0.2066,0.6198 l -0.129125,0.28407 -0.593974,0.12913 h -0.697272 q -0.180777,0 -0.464851,0.33572 -0.258251,0.33572 -0.258251,0.59397 v 1.73028 1.00717 q 0,0.15495 0.05165,0.56815 0.07747,0.4132 0.07747,0.59397 0,0.1033 -0.07747,0.23242 -0.07747,0.12913 -0.129124,0.25826 -0.129125,0.33572 -0.129125,0.49067 v 0.72309 0.7231 q 0,0.38738 0.05165,0.74893 0.07747,0.36155 0.07747,0.69728 0,0.20659 -0.07747,0.43902 -0.05165,0.23243 -0.05165,0.56815 0,0.18077 -0.02583,0.28408 -0.02582,0.10329 -0.05165,0.20659 0,0.1033 0,0.23242 0.02582,0.1033 0.07747,0.28408 0.07747,0.28407 0.439024,0.49068 0.387375,0.18077 0.800573,0.33572 0.439025,0.15495 0.774749,0.3099 0.335724,0.15495 0.335724,0.36155 0,0.18077 -0.129124,0.28407 -0.103299,0.12913 -0.232425,0.23243 -0.15495,0.1033 -0.361549,0.2066 h -1.420374 -0.723098 -0.723099 l -1.213771,-0.28407 -0.723099,0.28407 q -0.07747,0 -0.232424,-0.0258 -0.15495,0 -0.309899,-0.0517 -0.15495,-0.0258 -0.284075,-0.12912 -0.1033,-0.1033 -0.1033,-0.3099 0,-0.28407 0.25825,-0.46485 0.258249,-0.18078 0.568148,-0.4132 0.3099,-0.23242 0.568149,-0.56815 0.25825,-0.36154 0.25825,-0.98134 v -0.7231 -0.7231 -0.77475 -0.7231 q 0,-0.18078 -0.15495,-0.43902 -0.129124,-0.28408 -0.335723,-0.28408 h -0.723101 -0.929698 q -0.180774,0 -0.516499,-0.12912 -0.335724,-0.15495 -0.490673,-0.15495 h -0.5165 -0.723098 -0.697274 -0.5165 q -0.542324,0 -0.878048,0.23242 -0.335724,0.23242 -0.335724,0.77475 v 1.6528 q -0.15495,0.43902 -0.180775,0.54232 -0.02582,0.0774 -0.02582,0.23243 0,0.18077 0.103299,0.41319 0.103301,0.2066 0.103301,0.5165 -0.15495,0.38738 0.07747,0.64562 0.25825,0.23243 0.619799,0.46486 0.361549,0.20659 0.697275,0.4132 0.335724,0.2066 0.335724,0.49067 0,0.0774 -0.129125,0.15495 -0.1033,0.1033 -0.25825,0.15495 -0.15495,0.0517 -0.309898,0.0774 -0.154951,0.0517 -0.232426,0.0517 -0.129125,0 -0.361549,-0.0774 -0.206599,-0.0517 -0.490675,-0.15495 -0.258249,-0.0774 -0.568149,-0.12913 -0.309898,-0.0774 -0.593974,-0.0774 -0.129124,0.0774 -0.258249,0.12913 -0.129125,0.0517 -0.258249,0.0774 -0.1033,0.0258 -0.206601,0.0258 h -0.284074 -0.723099 -0.439023 q -0.361551,0 -0.7231,-0.18078 -0.335723,-0.18078 -0.335723,-0.6198 0,-0.33572 0.07747,-0.67144 0.103301,-0.33573 0.490675,-0.33573 l 0.490676,-0.12913 q 0.206598,0 0.464848,-0.28408 0.25825,-0.28407 0.25825,-0.43901 v -1.00718 -0.7231 q 0,-0.2066 -0.154951,-0.69727 -0.129124,-0.49068 -0.129124,-1.03301 v -1.21376 q 0,-0.0774 0.02582,-0.28408 0.05165,-0.2066 0.1033,-0.43902 0.07747,-0.23243 0.1033,-0.43903 0.05165,-0.2066 0.05165,-0.28408 l -0.284076,-1.21376 q 0,-0.20661 0.129125,-0.54233 0.07747,-0.18078 0.15495,-0.38737 v -1.73028 q 0,-0.18077 -0.3099,-0.28407 -0.284073,-0.1033 -0.671448,-0.15495 -0.361551,-0.0774 -0.671449,-0.12912 -0.284075,-0.0775 -0.284075,-0.15496 0,-0.49067 0.284075,-0.85222 0.309898,-0.36154 0.645624,-0.36154 l 1.291248,-0.0775 z"
         style="font-style:normal;font-variant:normal;font-weight:normal;font-stretch:normal;font-size:169.018px;line-height:1.25;font-family:Trattatello;-inkscape-font-specification:Trattatello;display:inline;stroke-width:0.0617679"
         id="path4617"
         inkscape:connector-curvature="0" />
      <path
         d="m 55.790011,128.26753 q 0.568148,0 0.852222,0.25825 0.284075,0.23242 0.387375,0.6198 0.129126,0.38737 0.15495,0.85222 0.05165,0.43903 0.103299,0.85222 v 0.92971 q 0.15495,0.28407 0.387373,0.77474 0.258252,0.46486 0.258252,0.95552 v 0.64563 q 0,0.0774 0.129123,0.46485 0.129126,0.38738 0.284075,0.85222 0.180776,0.46485 0.3099,0.90388 0.129126,0.41319 0.129126,0.56814 0,0.49068 0.129123,1.31708 0.129126,0.80057 0.335726,1.57532 0.206599,0.77475 0.464848,1.3429 0.284074,0.56815 0.593975,0.56815 0.361549,0 0.568149,0.0774 0.206599,0.0774 0.361549,0.0774 0.07747,0 0.258251,0.0258 0.206598,0.0258 0.413199,0.1033 0.232423,0.0774 0.387375,0.23242 0.154947,0.12913 0.154947,0.36156 0,0.51649 -0.361549,0.72309 -0.361549,0.2066 -0.852223,0.2066 l -1.730272,-0.0774 h -0.723098 -1.291247 -0.568151 l -0.723098,0.0774 q -0.154949,0 -0.516498,-0.0258 -0.335726,-0.0258 -0.335726,-0.2066 0,-0.36155 0.309899,-0.59397 0.335725,-0.23243 0.774751,-0.38738 0.361549,-0.12912 0.593972,-0.28407 0.258249,-0.15495 0.258249,-0.5165 0,-0.0774 -0.07747,-0.38738 -0.05165,-0.30989 -0.154949,-0.64562 -0.07747,-0.36155 -0.2066,-0.61979 -0.103302,-0.28408 -0.206601,-0.28408 -0.07747,-0.25825 -0.129124,-0.56815 -0.02582,-0.3099 -0.103299,-0.54233 -0.05165,-0.25825 -0.2066,-0.38737 -0.129124,-0.12912 -0.413199,-0.0774 h -0.878048 q -0.07747,0 -0.309901,0 -0.2066,0 -0.439025,0.0258 -0.232424,0.0258 -0.464849,0.0774 -0.206598,0.0258 -0.284073,0.1033 -0.335724,0.15495 -0.284075,0.46485 0.07747,0.28407 0.07747,0.6198 -0.07747,0.1033 -0.232426,0.4132 -0.15495,0.28407 -0.309899,0.6198 -0.129126,0.33572 -0.232426,0.61979 -0.103297,0.28408 -0.103297,0.36155 0,0.3099 0.154947,0.43903 0.180776,0.12912 0.387375,0.25824 0.206602,0.10331 0.361549,0.30991 0.180776,0.20659 0.180776,0.69727 0,0.15495 -0.1033,0.25825 -0.103299,0.0774 -0.258249,0.12913 -0.129126,0.0258 -0.284076,0.0517 -0.129123,0 -0.206599,0 0,0.0774 -0.05165,0.1033 -0.05165,0.0258 -0.154952,0.0258 -0.07747,0 -0.232423,-0.12912 -0.103299,0 -0.284074,0 -0.154949,0 -0.335725,-0.0258 l -0.464848,-0.0517 q -0.335726,0 -0.542326,0.0774 -0.206599,0.0774 -0.542322,0.0774 -0.361549,0 -0.516501,0.0258 -0.154949,0.0517 -0.232423,0.0774 -0.05165,0.0517 -0.07747,0.0774 -0.02583,0.0258 -0.1033,0.0258 -0.129125,0 -0.464849,-0.0258 -0.3099,-0.0258 -0.645623,-0.1033 -0.335725,-0.0517 -0.593976,-0.15496 -0.232424,-0.12912 -0.232424,-0.28407 0,-0.49067 0.284074,-0.82639 0.309902,-0.33573 0.800575,-0.33573 l 0.490674,-0.12913 q 0.05165,0 0.180775,-0.0774 0.154949,-0.1033 0.309899,-0.23243 0.15495,-0.12912 0.3099,-0.25824 0.180773,-0.15495 0.284073,-0.23242 0.154949,-0.64563 0.542324,-1.39455 0.413199,-0.77476 0.748926,-1.47203 0.154949,-0.43902 0.387374,-0.90387 0.25825,-0.49068 0.464849,-0.8264 0.25825,-0.49067 0.439026,-0.95553 0.180773,-0.46484 0.335722,-0.92969 0.15495,-0.49068 0.335726,-0.98134 0.180773,-0.49068 0.413199,-1.00718 0.180772,-0.38737 0.284072,-0.82639 0.1033,-0.46485 0.180775,-0.9297 0.1033,-0.49067 0.232426,-0.98135 0.154949,-0.49067 0.387373,-0.98135 0.154949,-0.12912 0.335725,-0.3099 0.180773,-0.18077 0.516499,-0.33572 z m -0.309901,4.72597 q -0.180774,0 -0.335723,0.15495 -0.129127,0.15495 -0.232424,0.36154 -0.103301,0.18078 -0.154952,0.38738 -0.05165,0.18077 -0.05165,0.25825 0,0.23243 0,0.36155 0,0.1033 -0.02582,0.2066 -0.02582,0.0774 -0.07747,0.23243 -0.02582,0.15495 -0.103301,0.49067 v 0.20659 q 0,0.15496 0.232426,0.30991 0.232424,0.12912 0.413199,0.12912 0.07747,0 0.232424,0 0.180775,0 0.335725,-0.0258 0.180776,-0.0258 0.309899,-0.1033 0.129126,-0.0774 0.129126,-0.23242 0,-0.33573 -0.180776,-0.5165 -0.180773,-0.18077 -0.180773,-0.36155 v -1.1363 q 0,-0.15495 -0.1033,-0.43902 -0.07747,-0.28408 -0.206602,-0.28408 z"
         style="font-style:normal;font-variant:normal;font-weight:normal;font-stretch:normal;font-size:169.018px;line-height:1.25;font-family:Trattatello;-inkscape-font-specification:Trattatello;display:inline;stroke-width:0.0617679"
         id="path4619"
         inkscape:connector-curvature="0" />
      <path
         d="m 63.804219,128.91315 q 0.180775,0 0.232427,0.0517 0.05165,0.0258 0.206598,0.23243 h 4.441895 l 2.169294,0.4132 h 0.723099 q 0.7231,0 1.213773,0.5165 0.516498,0.5165 0.8264,1.21377 0.3099,0.67145 0.439023,1.36873 0.154949,0.69727 0.154949,1.08465 0,0.43902 -0.07747,0.98134 -0.05165,0.54233 -0.258249,1.08465 -0.180776,0.5165 -0.568151,0.95552 -0.387373,0.43903 -1.032997,0.6198 -0.103301,0 -0.284076,0.0774 -0.180774,0.0517 -0.361549,0.15496 -0.180776,0.0774 -0.335723,0.15495 -0.15495,0.0517 -0.232426,0.0517 -0.180773,0 -0.516501,-0.0258 -0.309896,-0.0517 -0.645621,-0.15495 -0.3099,-0.12912 -0.542325,-0.28408 -0.232426,-0.18077 -0.232426,-0.46484 0,-0.36156 0.206602,-0.49068 0.206599,-0.12912 0.516498,-0.18077 0.335723,-0.0774 0.697272,-0.15495 0.387375,-0.10331 0.697277,-0.36155 0.335723,-0.28407 0.542322,-0.85222 0.2066,-0.59398 0.2066,-1.62698 0,-0.15495 -0.02582,-0.33572 -0.02582,-0.20661 -0.180774,-0.38738 -0.206599,-0.28407 -0.593974,-0.5165 -0.387373,-0.23242 -0.826398,-0.38738 -0.413199,-0.15495 -0.774748,-0.23242 -0.361549,-0.0774 -0.464851,-0.0774 h -0.439021 q -0.103302,0 -0.232428,0.0774 -0.129126,0.0774 -0.232423,0.18078 -0.1033,0.10329 -0.15495,0.23242 -0.02582,0.12913 0.05165,0.23242 v 3.38307 1.21378 1.49784 l 0.284074,1.16213 q -0.07747,0.36155 -0.154948,0.64562 -0.05165,0.25826 -0.103299,0.5165 -0.02582,0.23242 -0.02582,0.33572 0,0.72311 0.387375,0.92971 0.387373,0.18077 0.826399,0.20659 0.464848,0 0.852221,0.0517 0.387375,0.0517 0.387375,0.46485 v 0.28407 q 0,0.1033 -0.07747,0.28408 -0.07747,0.15495 -0.180776,0.33572 -0.103299,0.15495 -0.232423,0.25825 -0.129126,0.12913 -0.232425,0.12913 h -0.439025 q -0.2066,0 -0.645624,-0.15496 -0.439026,-0.12912 -0.645623,-0.12912 H 66.46419 q -0.103298,0 -0.439024,0.0258 -0.309898,0.0517 -0.697273,0.1033 -0.387375,0.0774 -0.748924,0.1033 -0.361549,0.0517 -0.542323,0.0517 -0.284075,0 -0.542324,-0.0258 -0.25825,0 -0.464851,-0.1033 -0.180774,-0.1033 -0.3099,-0.28407 -0.129123,-0.2066 -0.129123,-0.59398 0,-0.18077 0,-0.41319 0.02582,-0.25826 0.103299,-0.46485 0.1033,-0.23243 0.284074,-0.38738 0.180775,-0.15495 0.542325,-0.15495 l 0.284073,0.2066 h 0.955525 q 0.697275,0 0.697275,-0.7231 v -0.77475 l 0.284073,-0.95552 -0.284073,-0.49067 q 0.05165,-0.2066 0.129124,-0.38737 0.05165,-0.15496 0.103299,-0.30991 0.05165,-0.15495 0.05165,-0.23242 0,-0.18078 -0.154949,-0.49068 -0.129124,-0.30989 -0.129124,-0.5165 0,-0.0774 0.02582,-0.12912 0.05165,-0.0517 0.103301,-0.15495 0.07747,-0.1033 0.103299,-0.25825 0.05165,-0.15495 0.05165,-0.46485 v -0.9297 -0.5165 q 0,-0.15495 -0.154949,-0.33572 -0.129124,-0.2066 -0.129124,-0.59398 v -0.72309 q 0,-0.25826 0.129124,-0.59398 0.07747,-0.18077 0.154949,-0.38738 0,-0.38737 -0.335725,-0.67144 -0.335723,-0.28408 -0.878047,-0.28408 h -0.284075 q -0.07747,0 -0.309899,-0.0517 -0.232426,-0.0517 -0.490676,-0.12912 -0.258247,-0.10331 -0.464848,-0.23243 -0.180774,-0.12912 -0.180774,-0.28407 0,-0.23243 0.103297,-0.4132 0.129127,-0.18078 0.284078,-0.3099 0.180774,-0.12912 0.335724,-0.2066 0.180773,-0.0775 0.284073,-0.0775 z"
         style="font-style:normal;font-variant:normal;font-weight:normal;font-stretch:normal;font-size:169.018px;line-height:1.25;font-family:Trattatello;-inkscape-font-specification:Trattatello;display:inline;stroke-width:0.0617679"
         id="path4621"
         inkscape:connector-curvature="0" />
      <path
         d="m 76.060985,128.91315 q 0.180776,0 0.232428,0.0517 0.05165,0.0258 0.206598,0.23243 h 4.441893 l 2.169296,0.4132 h 0.723098 q 0.723098,0 1.213774,0.5165 0.516501,0.5165 0.8264,1.21377 0.309897,0.67145 0.439023,1.36873 0.154949,0.69727 0.154949,1.08465 0,0.43902 -0.07747,0.98134 -0.05165,0.54233 -0.258249,1.08465 -0.180775,0.5165 -0.568148,0.95552 -0.387375,0.43903 -1.033,0.6198 -0.1033,0 -0.284075,0.0774 -0.180776,0.0517 -0.361549,0.15496 -0.180774,0.0774 -0.335726,0.15495 -0.154947,0.0517 -0.232423,0.0517 -0.180773,0 -0.516499,-0.0258 -0.309899,-0.0517 -0.645624,-0.15495 -0.309899,-0.12912 -0.542325,-0.28408 -0.232424,-0.18077 -0.232424,-0.46484 0,-0.36156 0.2066,-0.49068 0.2066,-0.12912 0.516498,-0.18077 0.335726,-0.0774 0.697275,-0.15495 0.387373,-0.10331 0.697275,-0.36155 0.335722,-0.28407 0.542324,-0.85222 0.206598,-0.59398 0.206598,-1.62698 0,-0.15495 -0.02582,-0.33572 -0.02582,-0.20661 -0.180773,-0.38738 -0.206602,-0.28407 -0.593977,-0.5165 -0.387373,-0.23242 -0.826396,-0.38738 -0.4132,-0.15495 -0.774749,-0.23242 -0.361552,-0.0774 -0.46485,-0.0774 h -0.439024 q -0.1033,0 -0.232426,0.0774 -0.129123,0.0774 -0.232423,0.18078 -0.1033,0.10329 -0.154952,0.23242 -0.02582,0.12913 0.05165,0.23242 v 3.38307 1.21378 1.49784 l 0.284075,1.16213 q -0.07747,0.36155 -0.154952,0.64562 -0.05165,0.25826 -0.103299,0.5165 -0.02582,0.23242 -0.02582,0.33572 0,0.72311 0.387373,0.92971 0.387375,0.18077 0.8264,0.20659 0.464849,0 0.852224,0.0517 0.387373,0.0517 0.387373,0.46485 v 0.28407 q 0,0.1033 -0.07747,0.28408 -0.07747,0.15495 -0.180775,0.33572 -0.1033,0.15495 -0.232424,0.25825 -0.129125,0.12913 -0.232426,0.12913 h -0.439024 q -0.206597,0 -0.645623,-0.15496 -0.439024,-0.12912 -0.645624,-0.12912 h -1.652796 q -0.1033,0 -0.439025,0.0258 -0.3099,0.0517 -0.697274,0.1033 -0.387373,0.0774 -0.748924,0.1033 -0.361549,0.0517 -0.542323,0.0517 -0.284076,0 -0.542325,-0.0258 -0.258249,0 -0.464851,-0.1033 -0.180773,-0.1033 -0.309899,-0.28407 -0.129124,-0.2066 -0.129124,-0.59398 0,-0.18077 0,-0.41319 0.02582,-0.25826 0.1033,-0.46485 0.1033,-0.23243 0.284075,-0.38738 0.180774,-0.15495 0.542323,-0.15495 l 0.284073,0.2066 h 0.955526 q 0.697275,0 0.697275,-0.7231 v -0.77475 l 0.284072,-0.95552 -0.284072,-0.49067 q 0.05165,-0.2066 0.129123,-0.38738 0.05165,-0.15495 0.1033,-0.3099 0.05165,-0.15495 0.05165,-0.23242 0,-0.18078 -0.154949,-0.49068 -0.129123,-0.3099 -0.129123,-0.5165 0,-0.0774 0.02582,-0.12912 0.05165,-0.0517 0.1033,-0.15495 0.07747,-0.1033 0.1033,-0.25825 0.05165,-0.15495 0.05165,-0.46485 v -0.9297 -0.5165 q 0,-0.15495 -0.154949,-0.33572 -0.129124,-0.2066 -0.129124,-0.59398 v -0.72309 q 0,-0.25826 0.129124,-0.59398 0.07747,-0.18077 0.154949,-0.38738 0,-0.38737 -0.335725,-0.67144 -0.335723,-0.28408 -0.878048,-0.28408 h -0.284075 q -0.07747,0 -0.309899,-0.0517 -0.232421,-0.0517 -0.490672,-0.12912 -0.258249,-0.10331 -0.464847,-0.23243 -0.180775,-0.12912 -0.180775,-0.28407 0,-0.23243 0.1033,-0.4132 0.129123,-0.18078 0.284073,-0.3099 0.180775,-0.12912 0.335725,-0.2066 0.180775,-0.0775 0.284073,-0.0775 z"
         style="font-style:normal;font-variant:normal;font-weight:normal;font-stretch:normal;font-size:169.018px;line-height:1.25;font-family:Trattatello;-inkscape-font-specification:Trattatello;display:inline;stroke-width:0.0617679"
         id="path4623"
         inkscape:connector-curvature="0" />
      <path
         d="m 101.66926,128.91315 q 0.15495,0 0.38737,0.0517 0.25825,0.0517 0.49068,0.12914 0.23242,0.0517 0.38737,0.12912 0.18077,0.0517 0.18077,0.1033 0,0.59397 -0.33572,0.95552 -0.33572,0.33572 -0.87805,0.33572 h -0.80057 q -0.36155,0 -0.54233,0.12913 -0.18077,0.12912 -0.3099,0.33573 -0.1033,0.18077 -0.15495,0.46485 -0.0516,0.25824 -0.129122,0.51649 -0.129123,0.15496 -0.232424,0.3099 -0.103299,0.15495 -0.284075,0.25825 -0.1033,0.18077 -0.258247,0.33572 -0.129126,0.15496 -0.232426,0.30991 -0.154949,0.28407 -0.464848,0.87804 -0.284076,0.56815 -0.568149,1.29125 -0.284076,0.69727 -0.490675,1.42038 -0.2066,0.7231 -0.2066,1.29124 v 0.9297 l -0.129125,0.7231 q 0,0.0774 0.02582,0.33572 0.02582,0.23243 0.07747,0.49068 0.05165,0.23242 0.129124,0.43902 0.07747,0.18078 0.180773,0.18078 0.180776,0.1033 0.748925,0.25824 0.568151,0.12913 1.162123,0.33573 0.619796,0.18077 1.084646,0.4132 0.46485,0.23243 0.46485,0.49067 0,0.12912 -0.0258,0.23243 -0.0517,0.2066 -0.25825,0.2066 -0.23243,0.2066 -0.4132,0.28407 -0.15495,0.0774 -0.309903,0.28408 -0.103297,0 -0.180773,0.1033 -0.05165,0.12912 -0.129124,0.25825 -0.05165,0.12913 -0.154949,0.23242 -0.1033,0.12913 -0.258249,0.12913 -0.206602,0 -0.542325,-0.15495 -0.3099,-0.12912 -0.671449,-0.12912 h -1.730272 q -0.206601,0 -0.413201,-0.0258 -0.180773,-0.0258 -0.413199,-0.0774 -0.206599,-0.0258 -0.387375,-0.12913 h -1.162123 q -0.439025,0 -0.645622,0.10331 -0.2066,0.12912 -0.645625,0.12912 h -0.439025 q -0.903873,0 -1.213771,-0.23243 -0.284075,-0.23242 -0.284075,-0.92969 0,-0.43903 0.232424,-0.85222 0.232423,-0.43903 0.774749,-0.43903 l 1.213774,0.28407 q 0.154949,0 0.361549,-0.0774 0.232423,-0.1033 0.387373,-0.23242 0.180776,-0.12913 0.258249,-0.30991 0.07747,-0.18077 0,-0.38737 l -0.284073,-2.86656 q 0,-0.20661 -0.02582,-0.41321 -0.02582,-0.23242 0.103302,-0.43901 0,-0.15496 -0.07747,-0.30991 -0.07747,-0.18078 -0.07747,-0.33573 0,-0.54231 -0.284072,-0.95552 -0.258253,-0.43902 -0.852228,-0.98135 -0.180773,-0.38737 -0.697274,-0.7231 -0.490675,-0.33572 -1.032997,-0.7231 -0.154951,-0.36155 -0.464852,-0.74892 -0.309896,-0.38738 -0.464848,-0.74892 -0.15495,-0.12913 -0.335724,-0.18077 -0.180775,-0.0517 -0.387374,-0.18078 -0.490676,-0.12913 -1.007174,-0.2066 -0.439023,-0.18077 -0.697274,-0.46485 -0.232424,-0.3099 -0.232424,-0.8264 0,-0.43903 0.180773,-0.7231 0.206602,-0.28408 0.748925,-0.28408 h 1.239599 q 0.361549,0 0.697272,0.15496 0.335725,0.12912 0.516499,0.12912 h 1.213775 q 0.07747,0 0.284073,0.0258 0.2066,0.0258 0.439025,0.0517 0.25825,0 0.516499,0.0258 0.258249,0.0258 0.413199,0.0258 h 0.568149 q 0.180775,0 0.206599,0.0517 0.02582,0.0258 0.02582,0.23242 0,0.20661 -0.154949,0.38738 -0.15495,0.18077 -0.335725,0.4132 -0.15495,0.2066 -0.309899,0.43902 -0.154951,0.23243 -0.154951,0.49068 0,0.28407 0.284074,0.7231 0.284075,0.43902 0.645624,0.87805 0.413202,0.49067 0.955524,1.05882 0,0.0774 0.05165,0.23242 0.05165,0.15496 0.103299,0.3099 0.07747,0.15495 0.15495,0.28408 0.1033,0.10329 0.180774,0.10329 0.180775,0 0.361549,-0.25824 0.180776,-0.25825 0.335725,-0.59398 0.15495,-0.33572 0.284075,-0.6198 0.129124,-0.30989 0.232424,-0.38737 0,-0.1033 0.154952,-0.36155 0.154947,-0.25825 0.335722,-0.54233 0.2066,-0.30989 0.361549,-0.59397 0.154951,-0.3099 0.154951,-0.51649 0,-0.15496 -0.2066,-0.25826 -0.206594,-0.1033 -0.43902,-0.23242 -0.232424,-0.15495 -0.439025,-0.36155 -0.206598,-0.2066 -0.206598,-0.59398 0,-0.1033 0.103298,-0.18077 0.129126,-0.0774 0.284075,-0.12912 0.180776,-0.0517 0.335726,-0.0774 0.180773,-0.0258 0.284073,-0.0258 0.154952,0.0517 0.284076,0.0774 0.129125,0.0258 0.232425,0.0517 0.129124,0 0.206599,0 h 0.490673 q 0.387375,-0.1033 0.671451,-0.1033 0.284072,-0.0258 0.981346,-0.0258 0.25825,0 0.4132,-0.0258 0.18077,-0.0517 0.28407,-0.10331 0.12913,-0.0774 0.25825,-0.1033 0.12913,-0.0517 0.33573,-0.0517 z"
         style="font-style:normal;font-variant:normal;font-weight:normal;font-stretch:normal;font-size:169.018px;line-height:1.25;font-family:Trattatello;-inkscape-font-specification:Trattatello;display:inline;stroke-width:0.0617679"
         id="path4625"
         inkscape:connector-curvature="0" />
      <path
         d="m 114.63743,128.9648 h 0.2066 0.20659 0.7231 q 0.12913,0.18078 0.33573,0.20661 0.2066,0.0258 0.3099,0.0258 h 0.28407 0.15495 q 0.69728,0 1.36872,0.15494 0.67145,0.12913 1.26543,0.49068 0.6198,0.33572 1.11047,0.90387 0.49067,0.56815 0.85222,1.39455 v 1.36872 q 0,0.43903 -0.23242,0.82641 -0.23243,0.36154 -0.5165,0.69727 -0.25825,0.30989 -0.49067,0.56815 -0.2066,0.25825 -0.2066,0.41319 0,0.0774 0.1033,0.2066 0.12912,0.10331 0.25824,0.23243 0.15495,0.12912 0.36156,0.28407 0.25824,0 0.49067,0.25826 0.25825,0.23242 0.4132,0.59397 0.18078,0.33572 0.28408,0.7231 0.1033,0.38737 0.1033,0.64562 v 0.7231 q -0.1033,0.49067 -0.1033,0.87805 0.0258,0.36155 -0.25826,0.90387 -0.18077,0.15495 -0.25824,0.33573 -0.0517,0.15494 -0.12913,0.30989 -0.0517,0.12912 -0.18078,0.25826 -0.1033,0.10329 -0.36154,0.18077 -0.8264,0.54232 -1.70445,0.87804 -0.87805,0.33573 -1.9627,0.33573 h -1.70444 -0.7231 -0.7231 -0.15496 l -0.69727,-0.28408 -0.25824,0.15496 q -0.2066,0.12912 -0.38738,0.12912 h -0.5165 q 0.0517,-0.0517 0,-0.1033 -0.0517,-0.0258 -0.15495,-0.0774 -0.1033,-0.0258 -0.25825,-0.0517 -0.12912,-0.0258 -0.23242,-0.0517 -0.36155,0 -0.5165,-0.12912 -0.12913,-0.12914 -0.12913,-0.30991 0,-0.36155 0.12913,-0.74892 0.15495,-0.38738 0.5165,-0.38738 h 0.43902 q 0.15495,0 0.56815,-0.1033 0.4132,-0.1033 0.56815,-0.1033 0.15495,0 0.2066,-0.0774 0.0774,-0.0774 0.0774,-0.18077 0,-0.12912 -0.0258,-0.25825 -0.0258,-0.12913 -0.0258,-0.2066 0.12912,-0.12912 0.0774,-0.3099 -0.0258,-0.0774 -0.0774,-0.12913 v -0.64562 q 0.15494,-0.36155 0.18078,-0.67145 0.0258,-0.3099 0.0258,-0.46484 v -0.7231 q 0.0517,-0.28408 0.12912,-0.56815 0.0517,-0.20661 0.1033,-0.4132 0.0517,-0.23243 0.0517,-0.3099 0,-0.18078 -0.0517,-0.18078 -0.0258,0 -0.0517,-0.0517 -0.0258,-0.0517 -0.0258,-0.28407 0.0258,-0.25826 0.12912,-0.92971 v -0.43902 -0.4132 q 0,-0.18077 0.1033,-0.43903 0.1033,-0.28407 0.1033,-0.49066 0,-0.67145 -0.23243,-1.08466 -0.23233,-0.43902 -0.59387,-0.7231 -0.33572,-0.28407 -0.74892,-0.43902 -0.41321,-0.18077 -0.77476,-0.33573 -0.33572,-0.15495 -0.56814,-0.33572 -0.23243,-0.18077 -0.23243,-0.46485 0,-0.23242 0.18078,-0.4132 0.18077,-0.18078 0.4132,-0.28407 0.23242,-0.12913 0.49067,-0.18078 0.25825,-0.0517 0.4132,-0.0517 h 0.51649 l 1.1363,-0.23243 z m 2.22094,2.53085 q -0.15495,0 -0.38738,0.18078 -0.20659,0.18077 -0.38737,0.43902 -0.18077,0.25825 -0.28407,0.54232 -0.1033,0.25825 -0.0258,0.41321 v 0.43901 0.49068 0.64562 q 0.0517,0.36156 0.1033,0.6198 0.0517,0.23243 0.15496,0.41321 0.1033,0.18077 0.28407,0.25824 0.18077,0.0774 0.54233,0.0774 0.18077,0 0.49067,-0.12912 0.3099,-0.12912 0.61979,-0.3099 0.30991,-0.2066 0.5165,-0.43902 0.23243,-0.25826 0.23243,-0.49068 v -0.64562 -0.7231 q 0,-0.23242 -0.15494,-0.54233 -0.15496,-0.3099 -0.43903,-0.56815 -0.25826,-0.28407 -0.59398,-0.46485 -0.33572,-0.2066 -0.67144,-0.2066 z m -0.15495,5.88809 q -0.36155,0 -0.59397,0.25825 -0.2066,0.25825 -0.33573,0.59397 -0.1033,0.33573 -0.15495,0.67145 -0.0517,0.33573 -0.0517,0.49068 v 0.9297 0.64562 q 0,0.0774 0.0517,0.23242 0.0774,0.15495 0.18078,0.3099 0.12912,0.15496 0.28407,0.28408 0.15495,0.1033 0.33573,0.1033 0.33572,0 0.5165,-0.0774 0.20659,-0.0774 0.4132,-0.12913 0.33572,-0.0774 0.69727,-0.25825 0.38737,-0.2066 0.69728,-0.46484 0.30989,-0.28408 0.49066,-0.59398 0.18078,-0.33573 0.12913,-0.69727 -0.0258,-0.33573 -0.0258,-0.5165 0,-0.2066 0.0258,-0.3099 0.0259,-0.10331 0.0259,-0.15496 0,-0.0774 -0.0259,-0.18077 -0.0258,-0.33573 -0.25825,-0.56815 -0.23242,-0.23242 -0.56815,-0.33572 -0.33572,-0.12913 -0.74891,-0.18078 -0.38738,-0.0517 -0.72311,-0.0517 h -0.2066 z"
         style="font-style:normal;font-variant:normal;font-weight:normal;font-stretch:normal;font-size:169.018px;line-height:1.25;font-family:Trattatello;-inkscape-font-specification:Trattatello;display:inline;stroke-width:0.0617679"
         id="path4627"
         inkscape:connector-curvature="0" />
      <path
         d="m 126.89419,131.05663 q 0.43902,0 0.7231,0.33572 0.28407,0.30989 0.28407,0.67145 l -0.23243,0.7231 q 0.15496,0.15494 0.20661,0.43902 0.0258,0.12913 0.0258,0.28407 0,0.5165 -0.12913,0.95553 -0.1033,0.43903 -0.1033,0.98135 v 0.20659 q 0,0.12913 -0.0258,0.30991 -0.0258,0.15495 -0.0774,0.30989 -0.0517,0.18078 -0.1033,0.38738 v 0.28407 q 0,0.28408 -0.1033,0.46485 -0.0774,0.18078 -0.18077,0.46486 -0.0517,0.20659 -0.18078,0.43902 -0.1033,0.2066 -0.1033,0.49067 0,0.1033 0.0517,0.28408 0.0517,0.15495 0.15496,0.33572 0.1033,0.15496 0.23242,0.28408 0.15495,0.1033 0.33572,0.1033 0.20661,0 0.36155,-0.12913 0.18078,-0.12913 0.28408,-0.28407 0.12912,-0.12913 0.25825,-0.2066 0.15495,-0.1033 0.33572,-0.1033 h 0.49068 q 0.15494,0 0.18077,0.15495 0.0258,0.15495 0.0258,0.36155 0,0.0774 -0.23242,0.3099 -0.23242,0.23242 -0.5165,0.5165 -0.28407,0.25824 -0.56815,0.5165 -0.28407,0.23242 -0.38737,0.30989 -0.0774,0.18078 -0.33573,0.6198 -0.25825,0.43903 -0.56815,0.90387 -0.3099,0.43903 -0.67145,0.77475 -0.33572,0.36155 -0.59397,0.36155 -0.18078,0 -0.4132,-0.12912 -0.2066,-0.1033 -0.38738,-0.3099 -0.18077,-0.18078 -0.30989,-0.38737 -0.1033,-0.20661 -0.1033,-0.41321 v -0.41319 q 0,-0.2066 -0.0258,-0.36155 -0.0258,-0.15495 -0.18078,-0.15495 v -0.49068 l 0.2066,-0.72309 v -1.21378 q 0,-0.38737 0.1033,-0.6198 0.1033,-0.23242 0.1033,-0.59397 v -0.23242 q 0,-0.18078 0.1033,-0.51651 0.12912,-0.33572 0.25824,-0.72309 0.12914,-0.38738 0.23243,-0.74893 0.12913,-0.38737 0.12913,-0.67145 0,-0.20659 -0.18077,-0.43902 -0.15495,-0.25825 -0.54233,-0.25825 -0.15495,0 -0.28408,0.1033 -0.1033,0.1033 -0.64562,0.1033 -0.0517,-0.0258 -0.1033,-0.12912 -0.1033,-0.15495 -0.1033,-0.38738 v -0.4132 q 0,-0.23243 0.43903,-0.67145 0.46485,-0.46485 1.033,-0.90387 0.59397,-0.46485 1.13629,-0.80058 0.54233,-0.36154 0.69727,-0.36154 z m 0.0774,-6.09469 q 0.1033,0 0.25825,-0.0258 0.18078,-0.0517 0.36155,-0.0774 0.18077,-0.0517 0.33573,-0.0774 0.1808,-0.0517 0.25828,-0.0517 0.36155,0.12912 0.46485,0.43902 0.1033,0.3099 0.30989,0.64563 0,0.20659 0.0258,0.41319 0.0517,0.20661 0.0517,0.38738 0,0.15495 -0.1033,0.38737 -0.1033,0.2066 -0.1033,0.54232 -0.0517,0.18078 -0.15495,0.43903 -0.0774,0.25825 -0.23243,0.49068 -0.12912,0.20659 -0.33572,0.36154 -0.18077,0.12913 -0.43903,0.0774 -0.36154,0 -0.80057,-0.23242 -0.4132,-0.25825 -0.6198,-0.64562 -0.18077,-0.15495 -0.12912,-0.46485 0.0517,-0.3099 0.0517,-0.54232 0,-0.69728 0.23242,-1.1363 0.23243,-0.43903 0.56815,-0.9297 z"
         style="font-style:normal;font-variant:normal;font-weight:normal;font-stretch:normal;font-size:169.018px;line-height:1.25;font-family:Trattatello;-inkscape-font-specification:Trattatello;display:inline;stroke-width:0.0617679"
         id="path4629"
         inkscape:connector-curvature="0" />
      <path
         d="m 139.11423,128.62908 q 0.5165,0 0.95552,0.4132 0.46486,0.38737 0.8264,0.7231 0.20661,0.6198 0.64563,0.9297 0.15495,0.18077 0.3099,0.38737 0.15495,0.2066 0.2066,0.49067 0.10329,0 0.20659,0.23243 0.10331,0.2066 0.18078,0.5165 0.0774,0.28407 0.12913,0.54232 0.0517,0.25825 0.0517,0.33573 0,0.36154 -0.12912,0.80057 -0.12913,0.43903 -0.33573,0.87805 -0.18077,0.43902 -0.4132,0.85223 -0.2066,0.38737 -0.36155,0.64562 -0.1033,0.18077 -0.28407,0.28407 -0.15496,0.1033 -0.3099,0.20661 -0.15495,0.0774 -0.28408,0.23242 -0.10329,0.15495 -0.10329,0.41319 0,0.28408 0.15494,0.74893 0.15495,0.46485 0.38737,0.9297 0.23243,0.46485 0.46485,0.82639 0.25825,0.36156 0.41321,0.43903 0.30989,0.2066 0.54232,0.5165 0.25825,0.3099 0.5165,0.61979 0.28407,0.30991 0.59397,0.56815 0.3099,0.23243 0.7231,0.30991 0.15495,0.0517 0.49067,0.20659 0.33573,0.12914 0.51651,0.30991 0.15494,0.15495 0.15494,0.23242 0.0258,0.0517 -0.0258,0.25825 -0.0774,0.28408 -0.38736,0.4132 -0.28407,0.12912 -0.64562,0.15495 -0.33573,0.0517 -0.6198,0.0258 -0.28408,0 -0.33573,-0.0258 -0.18077,-0.15495 -0.49068,-0.15495 -0.28407,0 -0.46484,-0.0517 -0.69727,-0.4132 -0.98135,-0.67145 -0.28407,-0.25825 -0.67145,-0.49067 -0.15495,-0.0774 -0.38738,-0.25825 -0.23242,-0.2066 -0.51649,-0.46485 -0.25826,-0.25825 -0.54233,-0.54232 -0.25824,-0.28408 -0.49067,-0.5165 -0.3099,-0.38738 -0.54233,-0.74893 -0.2066,-0.36155 -0.38737,-0.67145 -0.15495,-0.33572 -0.3099,-0.59397 -0.15495,-0.28407 -0.33572,-0.43903 -0.36156,-0.20659 -0.54233,-0.38737 -0.15495,-0.18078 -0.5165,-0.18078 -0.3099,0 -0.49068,0.20661 -0.15494,0.18077 -0.25824,0.43902 -0.0774,0.25825 -0.1033,0.54232 -0.0258,0.28408 -0.0258,0.46485 l 0.28407,1.21378 v 0.51649 q 0,0.6198 0.38738,0.9297 0.4132,0.3099 0.87804,0.5165 0.46485,0.2066 0.85223,0.4132 0.4132,0.18077 0.4132,0.56815 0,0.18078 -0.18078,0.3099 -0.18077,0.12913 -0.33573,0.12913 h -0.92969 l -1.4462,-0.20661 h -0.56815 -1.21377 -0.43903 -1.00717 q -0.0774,0 -0.5165,-0.0517 -0.41319,-0.0258 -0.90387,-0.12912 -0.46485,-0.0774 -0.85223,-0.25825 -0.38737,-0.15495 -0.38737,-0.43903 0,-0.0774 0.0774,-0.15495 0.0774,-0.0774 0.18078,-0.15494 0.1033,-0.10331 0.25825,-0.18078 0.0774,0 0.23242,0.0258 0.15495,0.0258 0.30991,0.0517 0.18077,0.0258 0.38737,0.0517 h 0.5165 q 0.5165,0 0.85222,-0.28407 0.36155,-0.3099 0.36155,-0.64562 v -2.71162 -4.18365 l 0.2066,-1.85939 q -0.0774,-0.25826 -0.1033,-0.6198 -0.0258,-0.36155 -0.1033,-0.67145 -0.0517,-0.33573 -0.23243,-0.59398 -0.15495,-0.25825 -0.49067,-0.33572 h -1.00717 q -0.28408,0 -0.56815,-0.0517 -0.28408,-0.0517 -0.54233,-0.18077 -0.23242,-0.12912 -0.38737,-0.36155 -0.15495,-0.23242 -0.15495,-0.6198 0,-0.0774 0.1033,-0.15495 0.12912,-0.1033 0.25825,-0.18077 0.15495,-0.1033 0.36155,-0.18077 l 4.36441,-0.20661 h 2.65997 q 0.0774,0 0.28408,-0.0258 0.2066,-0.0258 0.4132,-0.0774 0.25825,-0.0517 0.54232,-0.1033 z m -2.45337,2.63415 q -0.1033,0.0258 -0.23242,0.0517 -0.12913,0.0517 -0.28408,0.1033 -0.15495,0.0258 -0.33572,0.15494 -0.18078,0 -0.36155,0.18079 -0.15495,0.15494 -0.15495,0.5165 v 0.43902 1.00717 0.43902 q 0,0.20661 -0.1033,0.38738 -0.1033,0.15495 -0.1033,0.30989 l 0.1033,0.0517 q 0.0517,0.0517 0.0774,0.1033 0.0258,0.0258 0.0258,0.15495 -0.0774,0.25825 0.0517,0.49067 0.12913,0.2066 0.36156,0.38738 0.23242,0.15495 0.49067,0.25824 0.28408,0.0774 0.46485,0.0774 0.23242,-0.10329 0.46485,-0.20659 0.2066,-0.0774 0.36154,-0.15495 0.18079,-0.0774 0.30991,-0.0774 l 0.51649,0.2066 q 0.33573,0 0.56815,-0.25826 0.23243,-0.28407 0.36155,-0.61979 0.15495,-0.36155 0.23243,-0.67146 0.0774,-0.33572 0.12913,-0.43902 l -0.15496,-0.72309 q 0,-0.18078 -0.0517,-0.33573 -0.0258,-0.18077 -0.23242,-0.38738 0,-0.15495 -0.0517,-0.46484 -0.0259,-0.30991 -0.23243,-0.46486 -0.0775,0 -0.38737,-0.0774 -0.28408,-0.0774 -0.64563,-0.18077 -0.33573,-0.1033 -0.69727,-0.18078 -0.33573,-0.0774 -0.49068,-0.0774 z"
         style="font-style:normal;font-variant:normal;font-weight:normal;font-stretch:normal;font-size:169.018px;line-height:1.25;font-family:Trattatello;-inkscape-font-specification:Trattatello;display:inline;stroke-width:0.0617679"
         id="path4631"
         inkscape:connector-curvature="0" />
      <path
         d="m 160.66677,128.39666 q 0.0774,0 0.15494,0.2066 0.1033,0.18077 0.18078,0.43902 0.0774,0.25825 0.12913,0.5165 0.0517,0.25825 0.0517,0.36155 v 1.8594 q 0,0.1033 -0.0258,0.38737 0,0.28408 -0.0775,0.59397 -0.0517,0.28408 -0.20661,0.5165 -0.15494,0.23242 -0.41319,0.23242 -0.43903,0 -0.64563,-0.18077 -0.18077,-0.2066 -0.28408,-0.49067 -0.0774,-0.3099 -0.12911,-0.64563 -0.0517,-0.36154 -0.18077,-0.64561 -0.12914,-0.30991 -0.41322,-0.49068 -0.25824,-0.20661 -0.80056,-0.20661 h -1.42035 q -0.12912,0 -0.28407,0.0258 -0.15495,0.0259 -0.28408,0.0774 -0.15494,0.0517 -0.30989,0.10329 -0.54232,0 -0.85222,0.36155 -0.28408,0.33573 -0.28408,0.85223 v 1.23959 q 0,0.2066 -0.0258,0.38738 0,0.15494 0.15494,0.30989 l -0.12912,1.00718 v 4.18364 q 0,0.5165 0.0774,0.85223 0.0775,0.3099 0.20661,0.5165 0.12912,0.2066 0.28407,0.36155 0.15495,0.12912 0.28407,0.25824 0.38738,0.12913 0.69728,0.25826 0.3099,0.1033 0.74892,0.1033 0.77475,0.12912 1.16212,0.49066 0.38738,0.33573 0.4132,0.72311 0.0258,0.36154 -0.28407,0.67145 -0.3099,0.33572 -0.92971,0.41319 -0.23241,0 -0.46484,-0.0774 -0.20659,-0.0774 -0.4132,-0.12912 -0.23242,-0.0258 -0.51651,-0.0258 -0.28407,0 -0.59396,-0.0258 -0.28407,0 -0.56814,-0.0517 -0.25826,-0.0517 -0.46486,-0.18077 h -0.15495 -2.29842 q -0.15496,0 -0.64562,0.12912 -0.46486,0.15495 -1.05883,0.15495 -0.41319,0 -0.74892,-0.0258 -0.28407,-0.0258 -0.59398,-0.0517 -0.28407,0 -0.38737,0 -0.12912,0 -0.2066,0.1033 -0.0774,0.1033 -0.5165,0.1033 -0.0517,-0.0258 -0.1033,-0.1033 -0.0517,-0.0517 -0.0774,-0.12913 -0.0258,-0.0517 -0.0258,-0.18077 0.10329,-0.28408 0.25825,-0.56815 0.12912,-0.23243 0.28407,-0.49067 0.18077,-0.25825 0.38738,-0.46486 0.36155,-0.12912 0.67145,-0.23242 0.25824,-0.1033 0.49067,-0.18077 0.25825,-0.0774 0.33572,-0.0774 l 1.2396,-0.28408 q 0.18077,0 0.28408,-0.23242 0.10329,-0.25825 0.15494,-0.54233 0.0517,-0.33572 0.0517,-0.80057 v -2.73744 q 0,-0.1033 0.10331,-0.36156 l 0.1033,-0.20659 v -3.3056 q 0,-0.2066 0.0258,-0.4132 0.0517,-0.2066 0.0517,-0.38737 0,-0.0774 -0.0774,-0.23243 -0.0775,-0.15495 -0.2066,-0.3099 -0.12913,-0.15494 -0.30991,-0.25825 -0.15494,-0.12912 -0.33571,-0.12912 h -2.86657 q -0.54233,0 -0.85223,0.2066 -0.28407,0.18077 -0.43901,0.49067 -0.15496,0.28408 -0.23243,0.64562 -0.0775,0.33573 -0.2066,0.64563 -0.1033,0.28408 -0.30991,0.49067 -0.2066,0.18078 -0.61979,0.18078 -0.38737,0 -0.56815,-0.28407 -0.15495,-0.30991 -0.15495,-0.64563 0,-0.1033 0.0258,-0.30989 0.0258,-0.23243 0.0517,-0.46486 0.0517,-0.23243 0.0775,-0.43902 0.0517,-0.2066 0.0517,-0.28407 l 0.30989,-1.2396 q 0,-0.0774 0.0258,-0.33573 0.0517,-0.28407 0.12913,-0.59398 0.10329,-0.30989 0.23242,-0.54231 0.12912,-0.23243 0.3099,-0.23243 0.33573,0 0.5165,0.12913 0.2066,0.12912 0.43902,0.28407 0.15496,0.12912 0.30991,0.2066 0.18077,0.0774 0.46485,0.0774 0.15495,0 0.46484,-0.0517 0.3099,-0.0774 0.46485,-0.0774 h 0.5165 q 0.0774,0.0517 0.18078,0.0774 0.10329,0 0.23243,0.0258 0.12912,0.0258 0.28407,0.0258 h 3.89957 l 0.69726,-0.12913 0.7231,0.12913 q 0.54232,0 1.11048,-0.0517 0.59397,-0.0774 1.11048,-0.0774 h 1.23959 q 0.46484,0 0.8264,-0.12912 0.36154,-0.12912 0.6198,-0.25825 0.28407,-0.15495 0.43902,-0.28408 0.18078,-0.12912 0.25826,-0.12912 z"
         style="font-style:normal;font-variant:normal;font-weight:normal;font-stretch:normal;font-size:169.018px;line-height:1.25;font-family:Trattatello;-inkscape-font-specification:Trattatello;display:inline;stroke-width:0.0617679"
         id="path4633"
         inkscape:connector-curvature="0" />
      <path
         d="m 164.4917,128.9648 h 0.28407 q 0.20659,0 0.5165,0.15496 0.33572,0.15494 0.69727,0.15494 l 0.7231,-0.23242 h 1.00717 0.49068 q 0.28407,0 0.38737,0.25825 0.0517,0.1033 0.0517,0.25825 0,0.54232 -0.15495,0.77474 -0.15495,0.20661 -0.41321,0.28408 -0.23242,0.0517 -0.51649,0.0774 -0.25825,0 -0.5165,0.1033 -0.23243,0.1033 -0.38737,0.4132 -0.15496,0.28407 -0.15496,0.9297 0,0.2066 0.10331,0.64562 0.10329,0.43903 0.10329,0.64563 v 0.7231 q 0,0.5165 0.33573,0.90387 0.33573,0.38737 0.87805,0.38737 0.20659,0 0.36155,-0.0774 0.1033,-0.0258 0.15494,-0.0774 l 0.92971,0.15496 h 0.77474 0.43903 q 0.2066,0 0.4132,0.0258 0.41319,0.0517 0.59397,0.25825 0.12913,0 0.2066,-0.0258 0.1033,-0.0517 0.15495,-0.0517 0.10331,-0.0517 0.2066,-0.12912 0.1033,-0.0774 0.15494,-0.0774 h 1.00719 q 0.15495,-0.12913 0.28407,-0.3099 0.12912,-0.2066 0.12912,-0.4132 v -0.36155 -1.6528 l -0.28409,-1.29125 v -0.43903 q 0,-0.25825 -0.18078,-0.36155 -0.18077,-0.10329 -0.38737,-0.18077 -0.20661,-0.0774 -0.38738,-0.2066 -0.18078,-0.15495 -0.18078,-0.54233 0,-0.30989 0.3099,-0.56814 0.30991,-0.28408 0.69728,-0.28408 0.33572,0.12912 0.69727,0.23243 0.3099,0.0774 0.67145,0.15495 0.38738,0.0517 0.77475,0.0517 h 0.28407 0.72311 q 0.25824,0 0.59397,0.0774 0.33572,0.0517 0.59397,0.2066 0.28407,0.12912 0.46485,0.38738 0.2066,0.23242 0.2066,0.6198 l -0.12912,0.28407 -0.59398,0.12913 h -0.69728 q -0.18077,0 -0.46484,0.33572 -0.25826,0.33572 -0.25826,0.59397 v 1.73028 1.00717 q 0,0.15495 0.0517,0.56815 0.0775,0.4132 0.0775,0.59397 0,0.1033 -0.0775,0.23242 -0.0774,0.12913 -0.12912,0.25826 -0.12912,0.33572 -0.12912,0.49067 v 0.72309 0.7231 q 0,0.38738 0.0517,0.74893 0.0774,0.36155 0.0774,0.69728 0,0.20659 -0.0774,0.43902 -0.0517,0.23243 -0.0517,0.56815 0,0.18077 -0.0258,0.28408 -0.0258,0.10329 -0.0517,0.20659 0,0.1033 0,0.23242 0.0259,0.1033 0.0775,0.28408 0.0774,0.28407 0.43901,0.49068 0.38738,0.18077 0.80058,0.33572 0.43903,0.15495 0.77475,0.3099 0.33572,0.15495 0.33572,0.36155 0,0.18077 -0.12912,0.28407 -0.1033,0.12913 -0.23242,0.23243 -0.15496,0.1033 -0.36155,0.2066 h -1.42038 -0.7231 -0.7231 l -1.21377,-0.28407 -0.7231,0.28407 q -0.0774,0 -0.23242,-0.0258 -0.15494,0 -0.3099,-0.0517 -0.15495,-0.0258 -0.28407,-0.12912 -0.1033,-0.1033 -0.1033,-0.3099 0,-0.28407 0.25824,-0.46485 0.25825,-0.18078 0.56816,-0.4132 0.30989,-0.23242 0.56814,-0.56815 0.25825,-0.36154 0.25825,-0.98134 v -0.7231 -0.7231 -0.77475 -0.7231 q 0,-0.18078 -0.15494,-0.43902 -0.12913,-0.28408 -0.33573,-0.28408 h -0.72311 -0.92969 q -0.18077,0 -0.5165,-0.12912 -0.33572,-0.15495 -0.49067,-0.15495 h -0.5165 -0.7231 -0.69728 -0.51649 q -0.54232,0 -0.87805,0.23242 -0.33573,0.23242 -0.33573,0.77475 v 1.6528 q -0.15496,0.43902 -0.18077,0.54232 -0.0258,0.0774 -0.0258,0.23243 0,0.18077 0.1033,0.41319 0.10329,0.2066 0.10329,0.5165 -0.15495,0.38738 0.0775,0.64562 0.25824,0.23243 0.61979,0.46486 0.36155,0.20659 0.69728,0.4132 0.33571,0.2066 0.33571,0.49067 0,0.0774 -0.12912,0.15495 -0.10329,0.1033 -0.25824,0.15495 -0.15496,0.0517 -0.3099,0.0774 -0.15496,0.0517 -0.23243,0.0517 -0.12912,0 -0.36155,-0.0774 -0.2066,-0.0517 -0.49067,-0.15495 -0.25825,-0.0774 -0.56815,-0.12913 -0.3099,-0.0774 -0.59397,-0.0774 -0.12913,0.0774 -0.25826,0.12913 -0.12913,0.0517 -0.25825,0.0774 -0.1033,0.0258 -0.20659,0.0258 h -0.28407 -0.7231 -0.43903 q -0.36155,0 -0.72309,-0.18078 -0.33574,-0.18078 -0.33574,-0.6198 0,-0.33572 0.0775,-0.67144 0.10329,-0.33573 0.49068,-0.33573 l 0.49068,-0.12913 q 0.20658,0 0.46484,-0.28408 0.25825,-0.28407 0.25825,-0.43901 v -1.00718 -0.7231 q 0,-0.2066 -0.15495,-0.69727 -0.12912,-0.49068 -0.12912,-1.03301 v -1.21376 q 0,-0.0774 0.0258,-0.28408 0.0517,-0.2066 0.1033,-0.43902 0.0774,-0.23243 0.10331,-0.43903 0.0517,-0.20659 0.0517,-0.28408 l -0.28407,-1.21376 q 0,-0.20661 0.12912,-0.54233 0.0774,-0.18078 0.15495,-0.38737 v -1.73028 q 0,-0.18077 -0.3099,-0.28407 -0.28407,-0.1033 -0.67145,-0.15495 -0.36155,-0.0774 -0.67145,-0.12912 -0.28407,-0.0775 -0.28407,-0.15496 0,-0.49067 0.28407,-0.85222 0.3099,-0.36154 0.64562,-0.36154 l 1.29125,-0.0775 z"
         style="font-style:normal;font-variant:normal;font-weight:normal;font-stretch:normal;font-size:169.018px;line-height:1.25;font-family:Trattatello;-inkscape-font-specification:Trattatello;display:inline;stroke-width:0.0617679"
         id="path4635"
         inkscape:connector-curvature="0" />
      <path
         d="m 189.19327,129.19723 q 1.34289,0 2.60831,0.43903 1.26543,0.43902 2.24677,1.26541 1.00719,0.80057 1.60115,1.98852 0.59398,1.16213 0.59398,2.60833 l -0.20659,1.23959 v 1.70446 q 0,0.18077 -0.15496,0.49067 -0.15494,0.3099 -0.15494,0.51649 -0.15496,0.33573 -0.28408,0.67145 -0.12914,0.28408 -0.28407,0.6198 -0.15495,0.30991 -0.36156,0.59398 -0.1033,0.2066 -0.36154,0.46485 -0.23243,0.25825 -0.56816,0.49068 -0.30989,0.23242 -0.64562,0.38736 -0.33572,0.15495 -0.64562,0.15495 h -0.49068 q -0.28408,0 -0.56815,0.0774 -0.28407,0.0774 -0.56814,0.18078 -0.25825,0.0775 -0.46486,0.15495 -0.20659,0.0774 -0.28407,0.0774 h -0.69728 q -0.43901,0 -0.77474,0.12913 -0.30991,0.10329 -0.54233,0.10329 h -0.92969 -2.22095 -0.43902 q -0.15496,0.0775 -0.28408,0.15496 -0.25826,0.12912 -0.49068,0.12912 l -0.7231,-0.28408 h -0.72309 l -0.69728,0.28408 q -0.18077,0 -0.49067,-0.18078 -0.28407,-0.15494 -0.46485,-0.33572 -0.1033,0 -0.30989,0 -0.20661,-0.0258 -0.41321,-0.0774 -0.18078,-0.0774 -0.33572,-0.20659 -0.15495,-0.15496 -0.15495,-0.41321 0,-0.20659 0.18078,-0.38738 0.18077,-0.18077 0.41319,-0.30989 0.28407,-0.15495 0.6198,-0.3099 h 0.7231 l 1.21378,-0.28408 q 0.20659,0.0774 0.38736,0.15495 0.33573,0.12913 0.56815,0.12913 0.25826,0 0.38737,-0.15495 0.15496,-0.18077 0.20661,-0.4132 0.0775,-0.23243 0.0775,-0.46485 0.0258,-0.25824 0.0258,-0.4132 v -0.49067 -1.08465 q 0,-0.1033 -0.10329,-0.3099 -0.0517,-0.1033 -0.1033,-0.18078 v -1.60114 q 0,-0.2066 0.1033,-0.5165 0.10329,-0.3099 0.10329,-0.69727 v -1.00717 -1.21378 q 0,-0.69727 -0.23242,-1.16212 -0.23242,-0.49068 -0.98135,-0.49068 -0.15495,0 -0.25824,0.0517 -0.10331,0.0258 -0.2066,0.0775 -0.0774,0.0258 -0.18078,0.0517 -0.10329,0.0258 -0.28408,0.0258 l -0.72316,-0.2066 h -0.49068 q -0.18077,0 -0.46485,-0.15494 -0.25824,-0.18078 -0.25824,-0.33573 0,-0.38737 0.4132,-0.67145 0.43903,-0.28407 0.98135,-0.46485 0.54232,-0.2066 1.05882,-0.28407 0.5165,-0.1033 0.69727,-0.1033 h 0.43902 q 0.20661,0 0.38738,0.15494 0.18077,0.12913 0.38738,0.12913 0.20659,-0.0517 0.38737,-0.12913 0.15495,-0.0517 0.3099,-0.10329 0.18077,-0.0517 0.3099,-0.0517 h 0.95552 0.49067 q 0.5165,-0.0517 0.95553,-0.10329 0.36155,-0.0517 0.69727,-0.0774 0.36156,-0.0258 0.49068,-0.0258 z m -1.21377,2.50501 q -0.0774,0 -0.30991,0.10331 -0.23241,0.1033 -0.49067,0.28407 -0.23243,0.18078 -0.43902,0.38738 -0.18078,0.2066 -0.18078,0.38737 0.0516,0.0517 0.10329,0.12913 0.10331,0.15495 0.10331,0.36155 v 0.72309 1.42038 3.17647 1.21377 q 0.1033,0.2066 0.12913,0.43903 0.0258,0.23242 0.0517,0.43903 0.0517,0.20659 0.15494,0.36154 0.1033,0.15495 0.38738,0.2066 h 0.28407 q 0.0775,0 0.25826,-0.0258 0.20659,-0.0258 0.4132,-0.0517 0.23241,-0.0258 0.43903,-0.0517 0.20658,-0.0258 0.30989,-0.0258 1.11047,-0.0258 1.8594,-0.49068 0.77474,-0.49067 1.26542,-1.21377 0.49067,-0.7231 0.72309,-1.54949 0.23243,-0.8264 0.25826,-1.5495 0.0258,-0.56815 -0.25826,-1.36872 -0.28407,-0.80058 -0.69726,-1.47202 -0.41321,-0.69728 -0.85222,-1.05883 -0.43903,-0.38738 -0.69728,-0.12912 -0.15495,-0.10331 -0.28408,-0.20661 -0.12913,-0.0774 -0.25825,-0.15494 -0.1033,-0.0774 -0.18077,-0.0774 h -0.23242 z"
         style="font-style:normal;font-variant:normal;font-weight:normal;font-stretch:normal;font-size:169.018px;line-height:1.25;font-family:Trattatello;-inkscape-font-specification:Trattatello;display:inline;stroke-width:0.0617679"
         id="path4637"
         inkscape:connector-curvature="0" />
      <path
         d="m 205.49405,128.26753 q 0.56815,0 0.85222,0.25825 0.28407,0.23242 0.38738,0.6198 0.12913,0.38737 0.15494,0.85222 0.0517,0.43903 0.1033,0.85222 v 0.92971 q 0.15496,0.28407 0.38738,0.77474 0.25825,0.46486 0.25825,0.95552 v 0.64563 q 0,0.0774 0.12913,0.46485 0.12911,0.38738 0.28407,0.85222 0.18078,0.46485 0.3099,0.90388 0.12913,0.41319 0.12913,0.56814 0,0.49068 0.12913,1.31708 0.12911,0.80057 0.33572,1.57532 0.20659,0.77475 0.46484,1.3429 0.28408,0.56815 0.59398,0.56815 0.36155,0 0.56815,0.0774 0.2066,0.0774 0.36154,0.0774 0.0775,0 0.25826,0.0258 0.20659,0.0258 0.41319,0.1033 0.23243,0.0774 0.38739,0.23242 0.15494,0.12913 0.15494,0.36156 0,0.51649 -0.36155,0.72309 -0.36155,0.2066 -0.85223,0.2066 l -1.73027,-0.0774 h -0.72309 -1.29125 -0.56816 l -0.7231,0.0774 q -0.15494,0 -0.51649,-0.0258 -0.33573,-0.0258 -0.33573,-0.2066 0,-0.36155 0.3099,-0.59397 0.33573,-0.23243 0.77476,-0.38738 0.36155,-0.12912 0.59397,-0.28407 0.25824,-0.15495 0.25824,-0.5165 0,-0.0774 -0.0774,-0.38738 -0.0517,-0.30989 -0.15495,-0.64562 -0.0774,-0.36155 -0.2066,-0.61979 -0.10331,-0.28408 -0.20661,-0.28408 -0.0774,-0.25825 -0.12912,-0.56815 -0.0258,-0.3099 -0.1033,-0.54233 -0.0517,-0.25825 -0.2066,-0.38737 -0.12912,-0.12912 -0.4132,-0.0774 h -0.87804 q -0.0774,0 -0.3099,0 -0.2066,0 -0.43903,0.0258 -0.23242,0.0258 -0.46484,0.0774 -0.20661,0.0258 -0.28409,0.1033 -0.33572,0.15495 -0.28407,0.46485 0.0775,0.28407 0.0775,0.6198 -0.0775,0.1033 -0.23242,0.4132 -0.15495,0.28407 -0.3099,0.6198 -0.12912,0.33572 -0.23242,0.61979 -0.10332,0.28408 -0.10332,0.36155 0,0.3099 0.15496,0.43903 0.18078,0.12912 0.38737,0.25824 0.2066,0.10331 0.36156,0.30991 0.18076,0.20659 0.18076,0.69727 0,0.15495 -0.10329,0.25825 -0.1033,0.0774 -0.25826,0.12913 -0.12911,0.0258 -0.28407,0.0517 -0.12912,0 -0.20659,0 0,0.0774 -0.0517,0.1033 -0.0517,0.0258 -0.15495,0.0258 -0.0774,0 -0.23242,-0.12912 -0.1033,0 -0.28408,0 -0.15495,0 -0.33572,-0.0258 l -0.46485,-0.0517 q -0.33573,0 -0.54232,0.0774 -0.2066,0.0774 -0.54233,0.0774 -0.36155,0 -0.5165,0.0258 -0.15494,0.0517 -0.23243,0.0774 -0.0517,0.0517 -0.0774,0.0774 -0.0258,0.0258 -0.1033,0.0258 -0.12912,0 -0.46484,-0.0258 -0.3099,-0.0258 -0.64563,-0.1033 -0.33572,-0.0517 -0.59398,-0.15496 -0.23242,-0.12912 -0.23242,-0.28407 0,-0.49067 0.28407,-0.82639 0.30991,-0.33573 0.80058,-0.33573 l 0.49068,-0.12913 q 0.0516,0 0.18077,-0.0774 0.15494,-0.1033 0.3099,-0.23243 0.15495,-0.12912 0.3099,-0.25824 0.18077,-0.15495 0.28407,-0.23242 0.15495,-0.64563 0.54233,-1.39455 0.41319,-0.77476 0.74892,-1.47203 0.15495,-0.43902 0.38737,-0.90387 0.25825,-0.49068 0.46486,-0.8264 0.25824,-0.49067 0.43901,-0.95553 0.18078,-0.46484 0.33574,-0.92969 0.15495,-0.49068 0.33572,-0.98134 0.18077,-0.49068 0.41319,-1.00718 0.18079,-0.38738 0.28409,-0.8264 0.10329,-0.46485 0.18077,-0.9297 0.1033,-0.49067 0.23242,-0.98135 0.15495,-0.49067 0.38738,-0.98135 0.15495,-0.12912 0.33572,-0.30989 0.18077,-0.18078 0.51649,-0.33573 z m -0.30991,4.72597 q -0.18077,0 -0.33571,0.15495 -0.12913,0.15495 -0.23243,0.36154 -0.10331,0.18078 -0.15495,0.38738 -0.0517,0.18077 -0.0517,0.25825 0,0.23243 0,0.36155 0,0.1033 -0.0258,0.2066 -0.0258,0.0774 -0.0774,0.23243 -0.0258,0.15495 -0.1033,0.49067 v 0.20659 q 0,0.15496 0.23242,0.30991 0.23243,0.12912 0.41321,0.12912 0.0774,0 0.23242,0 0.18077,0 0.33572,-0.0258 0.18078,-0.0258 0.30989,-0.1033 0.12914,-0.0774 0.12914,-0.23242 0,-0.33573 -0.18079,-0.5165 -0.18077,-0.18077 -0.18077,-0.36155 v -1.1363 q 0,-0.15495 -0.1033,-0.43902 -0.0774,-0.28408 -0.2066,-0.28408 z"
         style="font-style:normal;font-variant:normal;font-weight:normal;font-stretch:normal;font-size:169.018px;line-height:1.25;font-family:Trattatello;-inkscape-font-specification:Trattatello;display:inline;stroke-width:0.0617679"
         id="path4639"
         inkscape:connector-curvature="0" />
      <path
         d="m 226.25449,128.91315 q 0.15496,0 0.38738,0.0517 0.25825,0.0517 0.49068,0.12914 0.23242,0.0517 0.38737,0.12912 0.18077,0.0517 0.18077,0.1033 0,0.59397 -0.33572,0.95552 -0.33573,0.33572 -0.87805,0.33572 h -0.80057 q -0.36156,0 -0.54232,0.12913 -0.18078,0.12912 -0.3099,0.33573 -0.10331,0.18077 -0.15496,0.46485 -0.0517,0.25824 -0.12913,0.51649 -0.12912,0.15496 -0.23242,0.3099 -0.1033,0.15495 -0.28407,0.25825 -0.1033,0.18077 -0.25825,0.33572 -0.12913,0.15496 -0.23243,0.30991 -0.15495,0.28407 -0.46484,0.87804 -0.28408,0.56815 -0.56815,1.29125 -0.28407,0.69727 -0.49068,1.42038 -0.20659,0.7231 -0.20659,1.29124 v 0.9297 l -0.12913,0.7231 q 0,0.0774 0.0258,0.33572 0.0258,0.23243 0.0775,0.49068 0.0517,0.23242 0.12912,0.43902 0.0774,0.18078 0.18077,0.18078 0.18078,0.1033 0.74894,0.25824 0.56814,0.12913 1.1621,0.33573 0.61981,0.18077 1.08465,0.4132 0.46486,0.23243 0.46486,0.49067 0,0.12912 -0.0258,0.23243 -0.0517,0.2066 -0.25825,0.2066 -0.23242,0.2066 -0.4132,0.28407 -0.15494,0.0774 -0.3099,0.28408 -0.1033,0 -0.18077,0.1033 -0.0517,0.12912 -0.12912,0.25825 -0.0517,0.12913 -0.15495,0.23242 -0.1033,0.12913 -0.25826,0.12913 -0.20659,0 -0.54232,-0.15495 -0.3099,-0.12912 -0.67145,-0.12912 h -1.73027 q -0.2066,0 -0.41319,-0.0258 -0.18077,-0.0258 -0.4132,-0.0774 -0.2066,-0.0258 -0.38738,-0.12913 h -1.16213 q -0.43902,0 -0.64561,0.10331 -0.20661,0.12912 -0.64564,0.12912 h -0.43901 q -0.90388,0 -1.21378,-0.23243 -0.28408,-0.23242 -0.28408,-0.92969 0,-0.43903 0.23244,-0.85222 0.23242,-0.43903 0.77474,-0.43903 l 1.21377,0.28407 q 0.15495,0 0.36156,-0.0774 0.23242,-0.1033 0.38737,-0.23242 0.18077,-0.12913 0.25824,-0.30991 0.0775,-0.18077 0,-0.38737 l -0.28407,-2.86656 q 0,-0.20661 -0.0258,-0.41321 -0.0258,-0.23242 0.10331,-0.43901 0,-0.15496 -0.0775,-0.30991 -0.0774,-0.18078 -0.0774,-0.33573 0,-0.54231 -0.28407,-0.95552 -0.25825,-0.43902 -0.85223,-0.98135 -0.18077,-0.38737 -0.69727,-0.7231 -0.49067,-0.33572 -1.033,-0.7231 -0.15498,-0.36155 -0.46488,-0.74892 -0.3099,-0.38738 -0.46484,-0.74892 -0.15496,-0.12913 -0.33574,-0.18077 -0.18077,-0.0517 -0.38736,-0.18078 -0.49068,-0.12913 -1.00719,-0.2066 -0.43902,-0.18077 -0.69726,-0.46485 -0.23242,-0.3099 -0.23242,-0.8264 0,-0.43903 0.18077,-0.7231 0.20659,-0.28408 0.74891,-0.28408 h 1.23961 q 0.36155,0 0.69727,0.15496 0.33572,0.12912 0.51651,0.12912 h 1.21376 q 0.0774,0 0.28407,0.0258 0.20661,0.0258 0.43903,0.0517 0.25825,0 0.5165,0.0258 0.25825,0.0258 0.4132,0.0258 h 0.56814 q 0.18079,0 0.20661,0.0517 0.0258,0.0258 0.0258,0.23242 0,0.20661 -0.15494,0.38738 -0.15495,0.18077 -0.33573,0.4132 -0.15494,0.2066 -0.30989,0.43902 -0.15496,0.23243 -0.15496,0.49068 0,0.28407 0.28407,0.7231 0.28409,0.43902 0.64563,0.87805 0.41321,0.49067 0.95552,1.05882 0,0.0774 0.0517,0.23242 0.0517,0.15496 0.1033,0.3099 0.0775,0.15495 0.15495,0.28408 0.1033,0.10329 0.18077,0.10329 0.18078,0 0.36156,-0.25824 0.18077,-0.25825 0.33572,-0.59398 0.15495,-0.33572 0.28408,-0.6198 0.12912,-0.30989 0.23242,-0.38737 0,-0.1033 0.15495,-0.36155 0.15495,-0.25825 0.33572,-0.54233 0.2066,-0.30989 0.36156,-0.59397 0.15494,-0.3099 0.15494,-0.51649 0,-0.15496 -0.20659,-0.25826 -0.20661,-0.1033 -0.43903,-0.23242 -0.23242,-0.15495 -0.43903,-0.36155 -0.2066,-0.2066 -0.2066,-0.59398 0,-0.1033 0.10331,-0.18077 0.12912,-0.0774 0.28407,-0.12912 0.18077,-0.0517 0.33573,-0.0774 0.18077,-0.0258 0.28407,-0.0258 0.15494,0.0517 0.28407,0.0774 0.12913,0.0258 0.23242,0.0517 0.12913,0 0.2066,0 h 0.49068 q 0.38737,-0.1033 0.67145,-0.1033 0.28407,-0.0258 0.98134,-0.0258 0.25825,0 0.41321,-0.0258 0.18078,-0.0517 0.28407,-0.10331 0.12913,-0.0774 0.25825,-0.1033 0.12913,-0.0517 0.33572,-0.0517 z"
         style="font-style:normal;font-variant:normal;font-weight:normal;font-stretch:normal;font-size:169.018px;line-height:1.25;font-family:Trattatello;-inkscape-font-specification:Trattatello;display:inline;stroke-width:0.0617679"
         id="path4641"
         inkscape:connector-curvature="0" />
      <path
         d="m 42.55472,162.62837 q 0.542324,0 0.903873,0.4132 0.387376,0.41319 0.387376,0.80057 0,0.46485 -0.46485,0.69728 -0.439025,0.20659 -1.007173,0.30989 -0.542324,0.0774 -1.058824,0.0774 -0.490674,0 -0.56815,0 -0.206598,0.15496 -0.619798,0.4132 -0.387375,0.23243 -0.593974,0.43903 -0.3099,0.3099 -0.671449,0.7231 -0.335725,0.41319 -0.645623,0.80057 -0.284076,0.38738 -0.490674,0.7231 -0.206601,0.33573 -0.206601,0.49068 0,0.20659 0.129125,0.36154 0.129124,0.15496 0.3099,0.49068 0.180776,0.3099 0.4132,0.59397 0.258249,0.25826 0.490673,0.49068 0.232425,0.23242 0.439024,0.41319 0.206601,0.15496 0.309899,0.23243 0.180776,0.18077 0.387375,0.49067 0.2066,0.3099 0.413199,0.64562 0.232425,0.33573 0.464849,0.67145 0.232427,0.30991 0.516499,0.49068 0.206601,0.2066 0.516499,0.46485 0.335726,0.25825 0.645625,0.54233 0.36155,0.30989 0.774749,0.64562 h 0.5165 q 0.206599,0 0.568148,-0.0258 0.361549,-0.0258 0.56815,0.23242 0.129124,0.15495 0.309899,0.56815 0.180774,0.38737 0.154949,0.80057 0,0.38738 -0.36155,0.69728 -0.335723,0.33573 -1.239596,0.36155 -0.439025,0 -0.697275,-0.0258 -0.258249,0 -0.46485,-0.0517 -0.206599,-0.0517 -0.439023,-0.15496 -0.2066,-0.1033 -0.568149,-0.25825 l -0.490675,-0.28407 q -0.335724,-0.12912 -0.645623,-0.4132 -0.284076,-0.28407 -0.568151,-0.67145 -0.542322,-0.59397 -1.239596,-1.42037 -0.671449,-0.85222 -1.213774,-1.60115 -0.361549,-0.64562 -0.748923,-1.21377 -0.387375,-0.59397 -0.748924,-0.9297 -0.387374,-0.28407 -0.723098,-0.28407 -0.15495,0 -0.335725,0.15495 -0.15495,0.15494 -0.15495,0.28407 0,0.43902 0.129125,0.9297 0.154949,0.46485 0.154949,0.77475 v 0.5165 l 0.206601,0.49067 v 0.7231 q 0,0.7231 0.413198,1.05882 0.4132,0.33573 0.903873,0.49068 0.5165,0.15495 0.9297,0.25824 0.413199,0.0774 0.413199,0.33573 0,0.3099 -0.15495,0.5165 -0.15495,0.2066 -0.361549,0.33572 -0.206599,0.12913 -0.4132,0.18078 -0.180774,0.0517 -0.232424,0.0517 l -0.361549,-0.12914 q -0.15495,0 -0.206601,0.0517 -0.02582,0.0774 -0.129124,0.0774 h -1.291248 q -0.232424,-0.0258 -0.439024,-0.1033 -0.180775,-0.0517 -0.361549,-0.12912 -0.180775,-0.0774 -0.284075,-0.2066 h -0.723099 q -0.1033,0 -0.490674,0.1033 -0.387375,0.0774 -0.852224,0.18078 -0.464849,0.12912 -0.955523,0.2066 -0.464849,0.10329 -0.723098,0.10329 h -0.284075 q -0.206601,0 -0.439026,-0.12912 -0.232423,-0.10331 -0.284074,-0.38738 0,-0.15494 0.103301,-0.4132 0.129126,-0.28407 0.309899,-0.54232 0.2066,-0.28408 0.413199,-0.49067 0.206599,-0.2066 0.4132,-0.2066 h 0.206599 l 0.800573,-0.20661 h 0.9297 q 0.15495,0 0.180773,-0.15494 0.02583,-0.18078 0.02583,-0.36155 v -0.49067 q 0.02583,-0.15495 0.05165,-0.30991 0.05165,-0.33572 -0.05165,-0.6198 -0.129124,-0.49067 -0.07747,-0.92969 0.07747,-0.46485 0.07747,-0.80057 v -0.49068 -1.00717 q 0,-0.33573 -0.02583,-0.64563 -0.02582,-0.33572 -0.180773,-0.5165 v -1.21377 q 0.05165,-0.36155 0.103299,-0.64562 0.05165,-0.25826 0.07747,-0.49068 0.02583,-0.23242 0.02583,-0.36154 0,-0.80058 -0.4132,-1.11048 -0.413197,-0.3099 -0.929697,-0.43903 -0.490675,-0.12912 -0.903873,-0.23242 -0.4132,-0.12912 -0.4132,-0.59397 0,-0.30991 0.154951,-0.49068 0.180772,-0.2066 0.413197,-0.3099 0.232426,-0.12912 0.490676,-0.15495 0.258249,-0.0517 0.464848,-0.0517 h 0.4132 0.284076 q 0.07747,0 0.284073,0.0517 0.2066,0.0258 0.4132,0.0774 0.232424,0.0258 0.439025,0.0517 0.206598,0.0258 0.309898,0.0258 h 0.723099 l 1.007173,-0.20659 q 0.309901,0 0.723101,0.18078 0.413197,0.18077 0.413197,0.6198 0,0.15494 -0.02582,0.28407 0,0.12912 -0.103301,0.12912 -0.232425,0 -0.464849,0.12913 -0.206599,0.12912 -0.4132,0.33572 -0.180773,0.18077 -0.309898,0.46485 -0.103301,0.25825 -0.103301,0.5165 v 0.49067 q 0,0.25826 0.129125,0.85223 0.07747,0.3099 0.154949,0.67145 v 0.2066 q 0.05165,0.15494 0.129125,0.25824 0.05165,0.1033 0.129125,0.18078 0.07748,0.0774 0.15495,0.0774 0.129125,0 0.206599,-0.10331 0.103302,-0.1033 0.232426,-0.25825 0.439023,-0.56815 1.007173,-1.65279 0.284075,-0.49068 0.542324,-0.98135 0.25825,-0.5165 0.542324,-0.95552 0.361549,-0.67145 0.723099,-1.05883 0.361549,-0.38737 0.619798,-0.38737 h 0.3099 q 0.206599,0 0.284073,-0.10331 0.103301,-0.10329 0.4132,-0.10329 z"
         style="font-style:normal;font-variant:normal;font-weight:normal;font-stretch:normal;font-size:169.018px;line-height:1.25;font-family:Trattatello;-inkscape-font-specification:Trattatello;display:inline;stroke-width:0.0617679"
         id="path4643"
         inkscape:connector-curvature="0" />
      <path
         d="m 51.655192,162.91245 q 0.15495,0 0.284076,0.0258 0.15495,0.0258 0.335725,0.0517 0.2066,0 0.464847,0.0258 0.284078,0.0258 0.723102,0.0258 l 0.852222,-0.2066 q 0.206597,-0.0517 0.387373,-0.1033 0.154952,-0.0517 0.309901,-0.0774 0.154948,-0.0258 0.232424,-0.0258 0.180773,0 0.439023,0.12912 0.284075,0.12912 0.490677,0.28408 0.180773,0.33572 0.232423,0.80057 0.05165,0.46484 0.2066,0.80057 0.07747,0.0774 0.180775,0.3099 0.1033,0.2066 0.206599,0.4132 0.1033,0.28408 0.25825,0.56815 0,0.49068 -0.645624,0.49068 -0.154951,0 -0.464849,-0.23243 -0.309899,-0.25825 -0.800575,-0.54232 -0.490672,-0.3099 -1.162122,-0.54233 -0.671449,-0.25825 -1.601147,-0.25825 l -0.490674,0.12912 q -0.15495,0.23243 -0.309899,0.38738 -0.129127,0.15495 -0.129127,0.25826 v 0.23242 q -0.05165,0.20659 -0.103299,0.38737 -0.05165,0.15495 -0.07747,0.3099 -0.02582,0.15495 -0.02582,0.23242 v 1.8594 q 0,0.38738 0.154951,0.74892 0.154951,0.33573 0.490674,0.33573 0.07747,0 0.25825,-0.0258 0.180775,-0.0258 0.387373,-0.0774 0.232425,-0.0517 0.490674,-0.1033 h 0.516499 q 0.206602,0 0.361551,-0.1033 0.180774,-0.1033 0.335723,-0.2066 0.15495,-0.12913 0.284076,-0.23242 0.154949,-0.1033 0.309899,-0.1033 0.07747,0 0.180776,0.1033 0.103297,0.10329 0.206597,0.23242 l 0.258249,0.3099 v 1.70444 q 0,0.7231 -0.645622,0.7231 -0.284074,0 -0.490675,-0.1033 -0.206601,-0.12912 -0.36155,-0.25824 -0.284076,-0.1033 -0.490673,-0.23243 -0.180776,-0.12913 -0.464851,-0.12913 h -0.413199 -0.516497 q -0.645627,0 -0.8264,0.23243 -0.180776,0.23243 -0.180776,0.9297 v 0.64562 q 0.07747,0.36155 0.103302,0.7231 0.02582,0.36155 0.07747,0.67145 0.07747,0.3099 0.25825,0.54233 0.180775,0.20659 0.56815,0.28407 h 1.446194 q 0.361552,0 0.774748,-0.12913 0.439026,-0.15494 0.87805,-0.38737 0.439026,-0.15495 0.800575,-0.28408 0.387372,-0.12912 0.697274,-0.12912 0.103299,0.0774 0.206599,0.18077 0.07747,0.0774 0.15495,0.15495 0.07747,0.0774 0.07747,0.15496 0,0.18077 -0.129124,0.33572 -0.129123,0.15495 -0.309899,0.3099 -0.361549,0.33572 -0.516499,0.69728 -0.154952,0.33572 -0.309901,0.64562 -0.129124,0.28407 -0.335724,0.46484 -0.206599,0.20661 -0.619797,0.20661 -0.154952,0 -0.284076,-0.0517 -0.129126,-0.0259 -0.284075,-0.1033 -0.129124,-0.0517 -0.335724,-0.10331 -0.180775,-0.0258 -0.464851,-0.0258 l -2.505019,0.0774 -0.878049,0.20661 h -1.368722 -0.774749 l -0.5165,0.15494 -0.774748,0.0517 q -0.129124,0 -0.284075,-0.1033 -0.15495,-0.10331 -0.284074,-0.25826 -0.129126,-0.12912 -0.232425,-0.25824 -0.07747,-0.15495 -0.07747,-0.23243 0,-0.64563 0.955522,-0.64563 0.206601,-0.0774 0.4132,-0.18077 0.387374,-0.18077 0.645623,-0.25825 0.542325,-0.1033 0.723101,-0.33573 0.206599,-0.23242 0.206599,-1.08465 0,-0.12912 0.07747,-0.25824 0.1033,-0.15495 -0.07747,-0.3099 0,-0.12913 -0.02583,-0.25825 -0.02582,-0.15495 -0.07747,-0.28407 -0.05165,-0.15495 -0.103298,-0.33573 v -0.49067 -0.9297 -0.64563 l 0.206598,-1.80775 v -0.43902 q 0,-0.15494 0.02582,-0.20659 0.05165,-0.0517 0.05165,-0.20661 v -1.36872 -0.7231 -0.77475 q 0,-0.23243 -0.258249,-0.36155 -0.25825,-0.15495 -0.387374,-0.15495 h -0.723101 q -0.490673,0 -0.723098,-0.41319 -0.2066,-0.4132 -0.2066,-0.95553 0,-0.15495 0.129124,-0.28407 0.154951,-0.12913 0.309901,-0.12913 h 0.852222 0.5165 q 0.15495,0 0.46485,-0.0258 0.335723,-0.0517 0.826397,-0.0517 z"
         style="font-style:normal;font-variant:normal;font-weight:normal;font-stretch:normal;font-size:169.018px;line-height:1.25;font-family:Trattatello;-inkscape-font-specification:Trattatello;display:inline;stroke-width:0.0617679"
         id="path4645"
         inkscape:connector-curvature="0" />
      <path
         d="m 63.816711,162.62837 q 0.335723,0 0.516499,0.0517 0.206599,0.0517 0.206599,0.36155 0,0.49067 -0.309899,0.7231 -0.309899,0.23242 -0.697272,0.36155 -0.387375,0.12912 -0.697275,0.25825 -0.309899,0.12912 -0.309899,0.38737 0,0.2066 0.07747,0.46485 0.07747,0.25825 0.15495,0.49068 0.103299,0.23242 0.206601,0.38737 0.129124,0.15495 0.2066,0.15495 0.180775,0.18078 0.309899,0.38737 0.129123,0.18078 0.232425,0.38737 0.103298,0.18078 0.103298,0.38738 0,0.0774 0.1033,0.4132 0.129126,0.3099 0.309899,0.77475 0.180776,0.43903 0.387375,0.95552 0.232425,0.5165 0.464849,0.95553 0.258249,0.4132 0.490675,0.69727 0.232425,0.28407 0.413199,0.28407 0.15495,0 0.309899,-0.25824 0.180776,-0.25825 0.309902,-0.56815 0.154947,-0.36155 0.309896,-0.8264 0.180776,-0.25826 0.542325,-0.9297 0.387375,-0.69728 0.748924,-1.49785 0.361549,-0.80057 0.645625,-1.52367 0.284075,-0.74892 0.284075,-1.1363 0,-0.28407 -0.180775,-0.36155 -0.15495,-0.1033 -0.309899,-0.2066 -0.180776,-0.0517 -0.361549,-0.18077 -0.15495,-0.12913 -0.15495,-0.38738 0,-0.25825 0.15495,-0.41319 0.154947,-0.15495 0.361549,-0.20661 0.232423,-0.0774 0.413199,-0.0774 0.206599,-0.0258 0.284072,-0.0258 h 1.2396 q 0.07747,0 0.154951,0.0258 0.07747,0.0258 0.129124,0.0517 0.07747,0.0258 0.129123,0.0517 0.568149,0 0.826401,-0.0258 0.284073,-0.0258 0.439023,-0.0517 0.180773,-0.0517 0.335723,-0.0774 0.180776,-0.0517 0.568151,-0.0517 l 0.490674,0.0774 0.516499,-0.0774 q 0.3099,0 0.542325,0.18078 0.232423,0.18077 0.232423,0.61979 0,0.28408 -0.103299,0.46485 -0.1033,0.15496 -0.25825,0.23243 -0.154949,0.0774 -0.361549,0.12912 -0.206599,0.0517 -0.413199,0.1033 -0.593975,0.1033 -1.213775,0.25825 -0.619799,0.12912 -0.878048,0.67145 l -0.129124,0.56815 q -0.05165,0.0774 -0.206599,0.28408 -0.129126,0.20659 -0.284074,0.46484 -0.154951,0.25826 -0.309901,0.56815 -0.129123,0.28407 -0.206599,0.54233 -0.07747,0.15494 -0.180776,0.28407 -0.07747,0.12913 -0.180774,0.25825 -0.07747,0.1033 -0.154949,0.18077 -0.15495,0.38738 -0.387375,0.87806 -0.206599,0.46484 -0.542323,0.85222 -0.645624,1.52367 -1.110473,2.81492 -0.206601,0.54232 -0.413199,1.11047 -0.206601,0.56815 -0.361549,1.05882 -0.154952,0.46485 -0.258251,0.85222 -0.07747,0.36156 -0.07747,0.54233 v 0.7231 q 0,0.38737 -0.103297,0.64563 -0.07747,0.28407 -0.619801,0.28407 -0.2066,0 -0.439025,-0.0258 -0.206598,-0.0258 -0.413199,-0.18078 -0.335724,-0.15495 -0.387375,-0.36155 -0.02582,-0.20659 -0.180774,-0.36155 -0.232425,-0.3099 -0.232425,-0.56814 -0.05165,-0.28408 -0.103298,-0.49068 -0.05165,-0.23243 -0.180775,-0.43903 0,-0.18077 -0.15495,-0.46485 -0.129126,-0.30989 -0.129126,-0.46485 -0.284073,-0.49067 -0.464848,-0.92969 -0.154948,-0.46485 -0.335724,-0.9297 -0.180777,-0.46485 -0.413201,-0.95553 -0.206597,-0.51649 -0.593972,-1.08464 -0.05165,-0.25825 -0.129126,-0.5165 -0.05165,-0.2066 -0.1033,-0.41319 -0.05165,-0.23243 -0.103299,-0.36156 l -0.232426,-0.64562 q -0.05165,-0.15495 -0.25825,-0.43903 -0.180773,-0.28407 -0.387373,-0.56815 -0.258251,-0.30989 -0.568148,-0.69727 -0.129126,-0.98135 -0.464851,-1.83357 -0.309899,-0.85223 -0.903874,-1.18795 -1.291246,-0.67145 -1.291246,-1.16212 0,-0.41321 0.723098,-0.41321 h 0.490674 q 0.361549,0 0.878049,-0.12912 0.284075,-0.0774 0.56815,-0.15495 h 0.929697 l 0.645623,0.12913 0.464851,-0.0517 q 0.180774,-0.0258 0.335723,-0.0517 0.180776,-0.0258 0.284075,-0.0258 z"
         style="font-style:normal;font-variant:normal;font-weight:normal;font-stretch:normal;font-size:169.018px;line-height:1.25;font-family:Trattatello;-inkscape-font-specification:Trattatello;display:inline;stroke-width:0.0617679"
         id="path4649"
         inkscape:connector-curvature="0" />
      <path
         d="m 89.941077,162.62837 q 0.154949,0 0.387372,0.0517 0.258252,0.0517 0.490675,0.12912 0.232423,0.0517 0.387375,0.12913 0.180776,0.0517 0.180776,0.1033 0,0.59397 -0.335728,0.95552 -0.335723,0.33572 -0.878045,0.33572 h -0.800574 q -0.36155,0 -0.542325,0.12913 -0.180774,0.12913 -0.3099,0.33572 -0.103299,0.18078 -0.154951,0.46486 -0.05165,0.25824 -0.129124,0.5165 -0.129124,0.15495 -0.232426,0.30989 -0.103297,0.15495 -0.284072,0.25826 -0.1033,0.18077 -0.25825,0.33572 -0.129125,0.15495 -0.232426,0.30989 -0.154949,0.28408 -0.464848,0.87806 -0.284073,0.56815 -0.568149,1.29125 -0.284075,0.69727 -0.490673,1.42037 -0.206601,0.7231 -0.206601,1.29125 v 0.92969 l -0.129126,0.7231 q 0,0.0774 0.02582,0.33573 0.02582,0.23242 0.07747,0.49067 0.05165,0.23243 0.129126,0.43902 0.07747,0.18078 0.180776,0.18078 0.180775,0.1033 0.748922,0.25825 0.568151,0.12912 1.162123,0.33572 0.619799,0.18078 1.084649,0.4132 0.464849,0.23242 0.464849,0.49068 0,0.12912 -0.02582,0.23242 -0.05165,0.20661 -0.258249,0.20661 -0.232426,0.20659 -0.413197,0.28407 -0.154952,0.0774 -0.309901,0.28407 -0.103301,0 -0.180776,0.1033 -0.05165,0.12913 -0.129124,0.25825 -0.05165,0.12912 -0.15495,0.23242 -0.103299,0.12913 -0.258249,0.12913 -0.206599,0 -0.542324,-0.15495 -0.3099,-0.12913 -0.671449,-0.12913 h -1.730274 q -0.206597,0 -0.413196,-0.0258 -0.180776,-0.0258 -0.413199,-0.0774 -0.206602,-0.0258 -0.387376,-0.12912 h -1.162122 q -0.439025,0 -0.645624,0.1033 -0.2066,0.12912 -0.645623,0.12912 h -0.439025 q -0.903874,0 -1.213775,-0.23242 -0.284073,-0.23243 -0.284073,-0.9297 0,-0.43902 0.232425,-0.85223 0.232423,-0.43901 0.774748,-0.43901 l 1.213774,0.28407 q 0.154949,0 0.361549,-0.0774 0.232425,-0.1033 0.387375,-0.23243 0.180773,-0.12912 0.258249,-0.3099 0.07747,-0.18077 0,-0.38737 l -0.284075,-2.86658 q 0,-0.20659 -0.02582,-0.41319 -0.02582,-0.23243 0.103299,-0.43903 0,-0.15494 -0.07747,-0.3099 -0.07747,-0.18077 -0.07747,-0.33572 0,-0.54233 -0.284073,-0.95552 -0.25825,-0.43903 -0.852225,-0.98135 -0.180773,-0.38738 -0.697271,-0.7231 -0.490677,-0.33573 -1.033,-0.7231 -0.154949,-0.36155 -0.464849,-0.74892 -0.309899,-0.38738 -0.464848,-0.74892 -0.154951,-0.12914 -0.335726,-0.18078 -0.180774,-0.0517 -0.387375,-0.18078 -0.490675,-0.12912 -1.007171,-0.20659 -0.439026,-0.18079 -0.697275,-0.46486 -0.232425,-0.3099 -0.232425,-0.82639 0,-0.43903 0.180775,-0.7231 0.2066,-0.28408 0.748925,-0.28408 h 1.239596 q 0.361549,0 0.697274,0.15495 0.335726,0.12913 0.5165,0.12913 h 1.213772 q 0.07747,0 0.284076,0.0258 0.206599,0.0258 0.439022,0.0517 0.25825,0 0.5165,0.0258 0.258249,0.0258 0.4132,0.0258 h 0.568149 q 0.180773,0 0.2066,0.0517 0.02582,0.0258 0.02582,0.23242 0,0.2066 -0.154952,0.38737 -0.154949,0.18078 -0.335722,0.4132 -0.154951,0.2066 -0.3099,0.43903 -0.154952,0.23242 -0.154952,0.49067 0,0.28408 0.284076,0.7231 0.284075,0.43902 0.645624,0.87805 0.413199,0.49067 0.955524,1.05882 0,0.0774 0.05165,0.23243 0.05165,0.15494 0.103302,0.30989 0.07747,0.15496 0.154949,0.28408 0.103302,0.1033 0.180774,0.1033 0.180775,0 0.361549,-0.25825 0.180776,-0.25825 0.335727,-0.59398 0.154948,-0.33572 0.284074,-0.61979 0.129124,-0.3099 0.232426,-0.38738 0,-0.1033 0.154949,-0.36154 0.154947,-0.25826 0.335723,-0.54233 0.206599,-0.3099 0.361549,-0.59397 0.154952,-0.30991 0.154952,-0.5165 0,-0.15495 -0.206601,-0.25825 -0.2066,-0.10331 -0.439023,-0.23243 -0.232426,-0.15495 -0.439026,-0.36155 -0.206599,-0.2066 -0.206599,-0.59397 0,-0.1033 0.1033,-0.18078 0.129123,-0.0774 0.284075,-0.12912 0.180773,-0.0517 0.335724,-0.0774 0.180774,-0.0258 0.284075,-0.0258 0.154949,0.0517 0.284075,0.0774 0.129124,0.0258 0.232423,0.0517 0.129126,0 0.2066,0 h 0.490674 q 0.387376,-0.1033 0.671449,-0.1033 0.284074,-0.0258 0.981349,-0.0258 0.25825,0 0.4132,-0.0258 0.180773,-0.0517 0.284073,-0.1033 0.129123,-0.0774 0.258249,-0.1033 0.129126,-0.0517 0.335726,-0.0517 z"
         style="font-style:normal;font-variant:normal;font-weight:normal;font-stretch:normal;font-size:169.018px;line-height:1.25;font-family:Trattatello;-inkscape-font-specification:Trattatello;display:inline;stroke-width:0.0617679"
         id="path4651"
         inkscape:connector-curvature="0" />
    </g>
  </g>
</svg>
