<?xml version="1.0" encoding="UTF-8" standalone="no"?>
<svg
   xmlns:dc="http://purl.org/dc/elements/1.1/"
   xmlns:cc="http://creativecommons.org/ns#"
   xmlns:rdf="http://www.w3.org/1999/02/22-rdf-syntax-ns#"
   xmlns:svg="http://www.w3.org/2000/svg"
   xmlns="http://www.w3.org/2000/svg"
   xmlns:sodipodi="http://sodipodi.sourceforge.net/DTD/sodipodi-0.dtd"
   xmlns:inkscape="http://www.inkscape.org/namespaces/inkscape"
   sodipodi:docname="mexican style buntings - letters background.svg"
   inkscape:version="1.0beta2 (2b71d25, 2019-12-03)"
   id="svg4529"
   version="1.1"
   viewBox="0 0 210 297"
   height="297mm"
   width="210mm">
  <defs
     id="defs4523" />
  <sodipodi:namedview
     inkscape:window-maximized="0"
     inkscape:window-y="23"
     inkscape:window-x="0"
     inkscape:window-height="880"
     inkscape:window-width="1600"
     showgrid="false"
     inkscape:document-rotation="0"
     inkscape:current-layer="layer1"
     inkscape:document-units="mm"
     inkscape:cy="561.25984"
     inkscape:cx="396.85039"
     inkscape:zoom="0.5986532"
     inkscape:pageshadow="2"
     inkscape:pageopacity="0.0"
     borderopacity="1.0"
     bordercolor="#666666"
     pagecolor="#ffffff"
     id="base" />
  <metadata
     id="metadata4526">
    <rdf:RDF>
      <cc:Work
         rdf:about="">
        <dc:format>image/svg+xml</dc:format>
        <dc:type
           rdf:resource="http://purl.org/dc/dcmitype/StillImage" />
        <dc:title></dc:title>
      </cc:Work>
    </rdf:RDF>
  </metadata>
  <g
     id="layer1"
     inkscape:groupmode="layer"
     inkscape:label="Layer 1">
    <path
       id="path644"
       style="fill:#0daa4c;fill-opacity:1;fill-rule:nonzero;stroke:none;stroke-width:0.0600374"
       d="M 137.86523,0 C 118.9414,2.20037 93.139103,2.44049 69.43387,2.44049 c -23.70402,0 -50.33361,1.1758 -69.25805255,-1.02457 -0.431069,12.50042 -0.04473,38.18715 0.88825305,40.52622 0.127878,0.3224 0.274753,0.63148 0.434452,0.93046 -1.21636705,2.26642 -1.46169605,5.03488 -0.434452,7.61169 0.386044,0.96901 0.922908,1.83202 1.570714,2.57769 -0.689832,1.97884 -0.699734,4.20471 0.137188,6.30482 0.8165119,2.04848 2.3003829,3.63111 4.1009009,4.60131 -0.479693,1.80714 -0.404428,3.77886 0.341235,5.64963 1.162925,2.91722 3.6771326,4.89007 6.5361116,5.49044 0.033,1.01824 0.23896,2.04941 0.63761,3.05084 1.30822,3.28165 4.32707,5.36925 7.62313,5.64962 0.11647,0.58477 0.28398,1.166214 0.51272,1.739574 2.01666,5.05936 7.75195,7.52646 12.81192,5.50979 0.74506,-0.29718 1.43201,-0.67703 2.0588,-1.12131 1.37726,4.98912 5.94574,8.65562 11.37313,8.65562 3.28826,0 6.26083,-1.34631 8.40057,-3.51607 1.98664,4.977706 6.849,8.496416 12.53576,8.496416 5.65914,0 10.50238,-3.48469 12.50763,-8.425186 2.13373,2.12893 5.07886,3.44484 8.33109,3.44484 5.427393,0 9.99587,-3.6665 11.37313,-8.65562 0.62679,0.44428 1.31401,0.82413 2.05968,1.12131 5.05876,2.01667 10.79526,-0.45043 12.81192,-5.50979 0.22755,-0.57336 0.39597,-1.154804 0.51185,-1.739574 3.29545,-0.28037 6.31462,-2.36797 7.62224,-5.64962 0.39925,-1.00143 0.60547,-2.0326 0.63848,-3.05084 2.85899,-0.60037 5.37408,-2.57322 6.537,-5.49044 0.74507,-1.87077 0.82005,-3.84249 0.34035,-5.64963 1.80052,-0.9702 3.285,-2.55283 4.1009,-4.60131 0.83753,-2.10011 0.82704,-4.32598 0.1372,-6.30482 0.6478,-0.74567 1.18495,-1.60868 1.57159,-2.57769 1.02724,-2.57681 0.78103,-5.34527 -0.43534,-7.61169 0.16031,-0.29898 0.30686,-0.60806 0.43534,-0.93046 C 139.48369,38.8388 138.82884,12.26507 137.86523,0 Z M 7.3389884,7.41909 c 0.647206,0 1.172316,0.52451 1.172316,1.17231 0,0.64661 -0.52511,1.17144 -1.172316,1.17144 -0.647199,0 -1.171434,-0.52483 -1.171434,-1.17144 0,-0.6478 0.524235,-1.17231 1.171434,-1.17231 z m 4.7833626,0 c 0.647209,0 1.172309,0.52451 1.172309,1.17231 0,0.64661 -0.5251,1.17144 -1.172309,1.17144 -0.647203,0 -1.172316,-0.52483 -1.172316,-1.17144 0,-0.6478 0.525113,-1.17231 1.172316,-1.17231 z m 4.783369,0 c 0.6472,0 1.17143,0.52451 1.17143,1.17231 0,0.64661 -0.52423,1.17144 -1.17143,1.17144 -0.64722,0 -1.17144,-0.52483 -1.17144,-1.17144 0,-0.6478 0.52422,-1.17231 1.17144,-1.17231 z m 4.78336,0 c 0.64721,0 1.17143,0.52451 1.17143,1.17231 0,0.64661 -0.52422,1.17144 -1.17143,1.17144 -0.64721,0 -1.17232,-0.52483 -1.17232,-1.17144 0,-0.6478 0.52511,-1.17231 1.17232,-1.17231 z m 4.78248,0 c 0.6472,0 1.17232,0.52451 1.17232,1.17231 0,0.64661 -0.52512,1.17144 -1.17232,1.17144 -0.6466,0 -1.17055,-0.52483 -1.17055,-1.17144 0,-0.6478 0.52395,-1.17231 1.17055,-1.17231 z m 4.78424,0 c 0.64661,0 1.17144,0.52451 1.17144,1.17231 0,0.64661 -0.52483,1.17144 -1.17144,1.17144 -0.64721,0 -1.17231,-0.52483 -1.17231,-1.17144 0,-0.6478 0.5251,-1.17231 1.17231,-1.17231 z m 4.78248,0 c 0.64781,0 1.17232,0.52451 1.17232,1.17231 0,0.64661 -0.52451,1.17144 -1.17232,1.17144 -0.6466,0 -1.17143,-0.52483 -1.17143,-1.17144 0,-0.6478 0.52483,-1.17231 1.17143,-1.17231 z m 4.78424,0 c 0.6472,0 1.17056,0.52451 1.17056,1.17231 0,0.64661 -0.52336,1.17144 -1.17056,1.17144 -0.6472,0 -1.17232,-0.52483 -1.17232,-1.17144 0,-0.6478 0.52512,-1.17231 1.17232,-1.17231 z m 4.78248,0 c 0.64721,0 1.17232,0.52451 1.17232,1.17231 0,0.64661 -0.52511,1.17144 -1.17232,1.17144 -0.6472,0 -1.17143,-0.52483 -1.17143,-1.17144 0,-0.6478 0.52423,-1.17231 1.17143,-1.17231 z m 4.78337,0 c 0.6472,0 1.17231,0.52451 1.17231,1.17231 0,0.64661 -0.52511,1.17144 -1.17231,1.17144 -0.6472,0 -1.17144,-0.52483 -1.17144,-1.17144 0,-0.6478 0.52424,-1.17231 1.17144,-1.17231 z m 4.78336,0 c 0.6472,0 1.17144,0.52451 1.17144,1.17231 0,0.64661 -0.52424,1.17144 -1.17144,1.17144 -0.6472,0 -1.17231,-0.52483 -1.17231,-1.17144 0,-0.6478 0.52511,-1.17231 1.17231,-1.17231 z m 4.78336,0 c 0.64721,0 1.17144,0.52451 1.17144,1.17231 0,0.64661 -0.52423,1.17144 -1.17144,1.17144 -0.6472,0 -1.17143,-0.52483 -1.17143,-1.17144 0,-0.6478 0.52423,-1.17231 1.17143,-1.17231 z m 4.78336,0 c 0.64721,0 1.17144,0.52451 1.17144,1.17231 0,0.64661 -0.52423,1.17144 -1.17144,1.17144 -0.6466,0 -1.17143,-0.52483 -1.17143,-1.17144 0,-0.6478 0.52483,-1.17231 1.17143,-1.17231 z m 4.78248,0 c 0.64781,0 1.17232,0.52451 1.17232,1.17231 0,0.64661 -0.52451,1.17144 -1.17232,1.17144 -0.6466,0 -1.17143,-0.52483 -1.17143,-1.17144 0,-0.6478 0.52483,-1.17231 1.17143,-1.17231 z m 4.78425,0 c 0.64721,0 1.17144,0.52451 1.17144,1.17231 0,0.64661 -0.52423,1.17144 -1.17144,1.17144 -0.6472,0 -1.17232,-0.52483 -1.17232,-1.17144 0,-0.6478 0.52512,-1.17231 1.17232,-1.17231 z m 4.78336,0 c 0.64721,0 1.17144,0.52451 1.17144,1.17231 0,0.64661 -0.52423,1.17144 -1.17144,1.17144 -0.64781,0 -1.17231,-0.52483 -1.17231,-1.17144 0,-0.6478 0.5245,-1.17231 1.17231,-1.17231 z m 4.78248,0 c 0.64661,0 1.17144,0.52451 1.17144,1.17231 0,0.64661 -0.52483,1.17144 -1.17144,1.17144 -0.6472,0 -1.17143,-0.52483 -1.17143,-1.17144 0,-0.6478 0.52423,-1.17231 1.17143,-1.17231 z m 4.78337,0 c 0.6472,0 1.17231,0.52451 1.17231,1.17231 0,0.64661 -0.52511,1.17144 -1.17231,1.17144 -0.64721,0 -1.17144,-0.52483 -1.17144,-1.17144 0,-0.6478 0.52423,-1.17231 1.17144,-1.17231 z m 4.783363,0 c 0.6472,0 1.17231,0.52451 1.17231,1.17231 0,0.64661 -0.52511,1.17144 -1.17231,1.17144 -0.647203,0 -1.171433,-0.52483 -1.171433,-1.17144 0,-0.6478 0.52423,-1.17231 1.171433,-1.17231 z m 4.78424,0 c 0.64661,0 1.17055,0.52451 1.17055,1.17231 0,0.64661 -0.52394,1.17144 -1.17055,1.17144 -0.6472,0 -1.17232,-0.52483 -1.17232,-1.17144 0,-0.6478 0.52512,-1.17231 1.17232,-1.17231 z m 4.782477,0 c 0.64781,0 1.17232,0.52451 1.17232,1.17231 0,0.64661 -0.52451,1.17144 -1.17232,1.17144 -0.6472,0 -1.17231,-0.52483 -1.17231,-1.17144 0,-0.6478 0.52511,-1.17231 1.17231,-1.17231 z m 4.78249,0 c 0.6472,0 1.17231,0.52451 1.17231,1.17231 0,0.64661 -0.52511,1.17144 -1.17231,1.17144 -0.64721,0 -1.17056,-0.52483 -1.17056,-1.17144 0,-0.6478 0.52335,-1.17231 1.17056,-1.17231 z m 4.78424,0 c 0.6466,0 1.17143,0.52451 1.17143,1.17231 0,0.64661 -0.52483,1.17144 -1.17143,1.17144 -0.64721,0 -1.17232,-0.52483 -1.17232,-1.17144 0,-0.6478 0.52511,-1.17231 1.17232,-1.17231 z m 4.78336,0 c 0.6472,0 1.17144,0.52451 1.17144,1.17231 0,0.64661 -0.52424,1.17144 -1.17144,1.17144 -0.64721,0 -1.17231,-0.52483 -1.17231,-1.17144 0,-0.6478 0.5251,-1.17231 1.17231,-1.17231 z m 4.78336,0 c 0.6472,0 1.17144,0.52451 1.17144,1.17231 0,0.64661 -0.52424,1.17144 -1.17144,1.17144 -0.6472,0 -1.17231,-0.52483 -1.17231,-1.17144 0,-0.6478 0.52511,-1.17231 1.17231,-1.17231 z m 4.78248,0 c 0.64721,0 1.17232,0.52451 1.17232,1.17231 0,0.64661 -0.52511,1.17144 -1.17232,1.17144 -0.6472,0 -1.17144,-0.52483 -1.17144,-1.17144 0,-0.6478 0.52424,-1.17231 1.17144,-1.17231 z m 4.78336,0 c 0.64721,0 1.17232,0.52451 1.17232,1.17231 0,0.64661 -0.52511,1.17144 -1.17232,1.17144 -0.6472,0 -1.17143,-0.52483 -1.17143,-1.17144 0,-0.6478 0.52423,-1.17231 1.17143,-1.17231 z M 23.11468,10.11198 c 0.16112,-0.008 0.30727,-0.005 0.43621,0.008 2.06289,0.20893 3.58716,1.83463 3.40525,3.63216 -0.18252,1.79752 -2.00195,3.08475 -4.06485,2.87582 -2.06289,-0.20893 -7.93005,-4.09124 -7.93005,-4.09124 0,0 5.73662,-2.3083 8.15344,-2.42465 z m 92.51263,0 c 2.41724,0.11635 8.15256,2.42466 8.15256,2.42466 0,0 -5.86629,3.8823 -7.92918,4.09123 -2.06289,0.20893 -3.88321,-1.07829 -4.06573,-2.87582 -0.18191,-1.79752 1.34296,-3.42323 3.40525,-3.63216 0.12897,-0.013 0.27594,-0.0157 0.4371,-0.008 z M 69.44002,10.2993 c 0.54635,0.002 0.9868,0.51123 0.985,1.13802 -0.002,0.62679 -0.99643,2.50733 -0.99643,2.50733 0,0 -0.98387,-1.88609 -0.98147,-2.51348 0.002,-0.62679 0.44716,-1.13367 0.9929,-1.13187 z m -2.50996,1.07998 c 0.27166,0.0196 0.54947,0.14341 0.7704,0.36585 0.44248,0.44428 1.06854,2.47743 1.06854,2.47743 0,0 -2.0294,-0.63861 -2.47127,-1.08349 -0.44188,-0.44488 -0.48574,-1.11727 -0.0985,-1.50211 0.19392,-0.19272 0.45916,-0.27727 0.73083,-0.25768 z m 5.01817,0.004 c 0.27197,-0.0178 0.53577,0.0684 0.7282,0.26207 0.38483,0.38785 0.33698,1.05996 -0.10729,1.50124 -0.44488,0.44187 -2.47832,1.06765 -2.47832,1.06765 0,0 0.63922,-2.02791 1.08349,-2.47039 0.22244,-0.22093 0.50195,-0.34279 0.77392,-0.36057 z m -15.69301,1.01137 c 0.20841,0.005 0.41898,0.0202 0.63057,0.0457 3.38491,0.40765 5.81145,3.38063 5.81145,3.38063 0,0 -3.06326,2.31168 -6.44818,1.90403 -3.38552,-0.40766 -5.81233,-3.37975 -5.81233,-3.37975 0,0 2.69238,-2.03253 5.81849,-1.95064 z m 26.23154,0 c 3.12647,-0.0819 5.8176,1.95064 5.8176,1.95064 0,0 -2.4268,2.97209 -5.81232,3.37975 -3.38492,0.40765 -6.4473,-1.90403 -6.4473,-1.90403 0,0 2.42593,-2.97297 5.81145,-3.38063 0.21163,-0.0255 0.42215,-0.0403 0.63057,-0.0457 z M 5.6302064,12.73941 c 0.647809,0 1.172316,0.52422 1.172316,1.17143 0,0.6472 -0.524507,1.17144 -1.172316,1.17144 -0.647199,-1e-5 -1.171437,-0.52424 -1.171437,-1.17144 0,-0.64721 0.524238,-1.17143 1.171437,-1.17143 z m 127.6073336,0 c 0.6466,0 1.17143,0.52422 1.17143,1.17143 0,0.6472 -0.52483,1.17144 -1.17143,1.17144 -0.64721,-1e-5 -1.17231,-0.52424 -1.17231,-1.17144 0,-0.64721 0.5251,-1.17143 1.17231,-1.17143 z M 35.0656,13.03658 c 0.56972,0.0237 1.14321,0.14925 1.70967,0.39927 2.48975,1.09929 2.73416,3.19974 0.98587,5.00147 -2.29644,2.36667 -7.45792,-2.69447 -11.11721,8.44189 -0.20233,0.23475 -0.32281,-0.59432 -0.34562,-1.00258 -0.18972,-3.45636 0.23693,-6.60487 2.4229,-9.31256 1.47463,-1.82585 3.87561,-3.63024 6.34439,-3.52749 z m 66.902,0 c 2.46878,-0.10275 4.86887,1.70164 6.34351,3.52749 2.18657,2.70769 2.6135,5.8562 2.42378,9.31256 -0.0228,0.40826 -0.14242,1.23733 -0.34474,1.00258 -3.65929,-11.13636 -8.82078,-6.07522 -11.117207,-8.44189 -1.74829,-1.80173 -1.50476,-3.90218 0.984987,-5.00147 0.56646,-0.25002 1.13995,-0.37557 1.70967,-0.39927 z m -91.912851,0.0976 c 0,0 10.215631,3.16547 12.447821,5.39107 2.2316,2.22559 2.46865,5.60639 0.52944,7.551 -1.93922,1.94462 -5.32058,1.71727 -7.55277,-0.50832 -2.2316,-2.22619 -5.424491,-12.43375 -5.424491,-12.43375 z m 118.632481,0 c 0,0 -3.19289,10.20756 -5.42449,12.43375 -2.23219,2.22559 -5.61355,2.45294 -7.55277,0.50832 -1.93921,-1.94461 -1.70216,-5.32541 0.52944,-7.551 2.23219,-2.2256 12.44782,-5.39107 12.44782,-5.39107 z m -82.96877,0.33507 c 0.89396,-0.003 1.62135,0.71896 1.62436,1.61293 0.002,0.89395 -0.71957,1.62135 -1.61293,1.62435 -0.89456,0.003 -1.62135,-0.71896 -1.62436,-1.61292 -0.003,-0.89396 0.71897,-1.62135 1.61293,-1.62436 z m 47.304193,0 c 0.89396,0.003 1.61679,0.7304 1.6138,1.62436 -0.003,0.89396 -0.73012,1.61593 -1.62348,1.61292 -0.893953,-0.003 -1.616213,-0.7304 -1.613803,-1.62435 0.003,-0.89397 0.72952,-1.61593 1.623483,-1.61293 z m -27.030093,0.4195 c 0.62679,0.002 2.50644,0.99731 2.50644,0.99731 0,0 -1.88669,0.98239 -2.51348,0.98059 -0.62679,-0.002 -1.13366,-0.44656 -1.13186,-0.99291 10e-4,-0.54634 0.51211,-0.98739 1.1389,-0.98499 z m 6.88966,0.004 c 0.62679,0.002 1.13367,0.44744 1.13186,0.99378 -0.002,0.54574 -0.51211,0.9868 -1.1389,0.985 -0.62679,-0.002 -2.50644,-0.99731 -2.50644,-0.99731 0,0 1.88669,-0.98327 2.51348,-0.98147 z m -3.44835,0.60243 c 0.21254,0 0.3852,0.17267 0.3852,0.3852 0,0.21253 -0.17266,0.38432 -0.3852,0.38432 -0.21253,0 -0.38432,-0.17179 -0.38432,-0.38432 0,-0.21253 0.17179,-0.3852 0.38432,-0.3852 z m 0.66487,1.04215 c 0,0 2.0294,0.63861 2.47127,1.08349 0.44188,0.44488 0.48574,1.11727 0.0985,1.50211 -0.38724,0.38484 -1.05936,0.33671 -1.50123,-0.10817 -0.44248,-0.44485 -1.06854,-2.47739 -1.06854,-2.47739 z m -1.32095,0.008 c 0,0 -0.64008,2.02852 -1.08436,2.4704 -0.44488,0.44247 -1.11668,0.48634 -1.50212,0.0985 -0.38483,-0.38724 -0.33698,-1.05935 0.10729,-1.50123 0.44488,-0.44188 2.47919,-1.06766 2.47919,-1.06766 z m 0.66223,0.27 c 0,0 0.9824,1.88582 0.9806,2.51261 -0.002,0.62679 -0.44628,1.13426 -0.99203,1.13186 -0.54634,-0.001 -0.98827,-0.51063 -0.98587,-1.13802 0.002,-0.62679 0.9973,-2.50645 0.9973,-2.50645 z M 9.2289454,17.66921 c 0,0 3.4641346,6.12403 3.5283746,8.19653 0.0643,2.07249 -1.347806,3.79822 -3.1537276,3.85466 -1.80593,0.0558 -3.321668,-1.57841 -3.385908,-3.65151 -0.06424,-2.07189 3.011261,-8.39968 3.011261,-8.39968 z m 120.2832146,0 c 0,0 3.0761,6.32779 3.01126,8.39968 -0.0642,2.0731 -1.57998,3.70734 -3.38591,3.65151 -1.80593,-0.0564 -3.21769,-1.78217 -3.15285,-3.85466 0.0642,-2.0725 3.5275,-8.19653 3.5275,-8.19653 z M 4.6056414,17.86442 c 0.647202,0 1.172312,0.52512 1.172312,1.17232 0,0.64721 -0.52511,1.17144 -1.172312,1.17144 -0.647206,0 -1.172316,-0.52423 -1.172316,-1.17144 0,-0.6472 0.52511,-1.17232 1.172316,-1.17232 z m 129.6564586,0 c 0.64721,0 1.17143,0.52512 1.17143,1.17232 0,0.64721 -0.52422,1.17144 -1.17143,1.17144 -0.6472,0 -1.17231,-0.52423 -1.17231,-1.17144 0,-0.6472 0.52511,-1.17232 1.17231,-1.17232 z m -103.31938,5.4183 c 0.89335,-0.003 1.62047,0.71985 1.62347,1.61381 0.003,0.89396 -0.71897,1.62047 -1.61292,1.62347 -0.89396,0.002 -1.62047,-0.71956 -1.62348,-1.61292 -0.003,-0.89396 0.71837,-1.62135 1.61293,-1.62436 z m 73.43898,0 c 0.89456,0.003 1.61681,0.7304 1.6138,1.62436 -0.003,0.89336 -0.72951,1.61533 -1.62347,1.61292 -0.89336,-0.003 -1.61681,-0.72951 -1.6138,-1.62347 0.003,-0.89396 0.72951,-1.61681 1.62347,-1.61381 z M 4.3576384,23.33462 c 0.543362,0.043 1.000076,0.46247 1.069418,1.02458 0.07925,0.64239 -0.376891,1.22761 -1.019292,1.30686 -0.642401,0.0793 -1.227624,-0.37748 -1.306876,-1.01929 -0.07925,-0.6424 0.377494,-1.22822 1.019288,-1.30687 0.08031,-0.01 0.159833,-0.0114 0.237462,-0.005 z m 130.1524716,0 c 0.0777,-0.006 0.15708,-0.005 0.23745,0.005 0.64181,0.0787 1.09854,0.66448 1.01929,1.30688 -0.0793,0.6418 -0.66447,1.09853 -1.30687,1.01928 -0.6418,-0.0793 -1.09854,-0.66447 -1.01929,-1.30686 0.0693,-0.56211 0.52576,-0.98154 1.06942,-1.02457 z M 4.6056414,28.60259 c 0.647202,0 1.172312,0.52483 1.172312,1.17143 0,0.6478 -0.52511,1.17231 -1.172312,1.17231 -0.647206,0 -1.172316,-0.52451 -1.172316,-1.17231 0,-0.6466 0.52511,-1.17143 1.172316,-1.17143 z m 129.6564586,0 c 0.64721,0 1.17143,0.52483 1.17143,1.17143 0,0.6478 -0.52422,1.17231 -1.17143,1.17231 -0.6472,0 -1.17231,-0.52451 -1.17231,-1.17231 0,-0.6466 0.52511,-1.17143 1.17231,-1.17143 z M 27.86814,30.28674 c 1.41508,0 2.56185,1.14793 2.56185,2.56362 0,1.41448 -1.14677,2.56185 -2.56185,2.56185 -1.41509,0 -2.56274,-1.14737 -2.56274,-2.56185 0,-1.41569 1.14765,-2.56362 2.56274,-2.56362 z m 78.90568,0 c 1.41508,0 2.56274,1.14793 2.56274,2.56362 0,1.41448 -1.14766,2.56185 -2.56274,2.56185 -1.41568,0 -2.56186,-1.14737 -2.56186,-2.56185 0,-1.41569 1.14618,-2.56362 2.56186,-2.56362 z m -89.50225,2.56362 c 0.78889,-0.021 1.44648,0.76817 1.46869,1.76419 0.0222,0.99482 -1.34029,4.02351 -1.34029,4.02351 0,0 -1.49485,-2.95158 -1.51707,-3.947 -0.0216,-0.99542 0.59917,-1.81969 1.38867,-1.8407 z m 102.30889,0.11433 c 0.096,-0.007 0.19318,-0.002 0.29022,0.0159 0.77629,0.14409 1.25493,1.05441 1.06942,2.03242 -0.18611,0.97801 -2.15115,3.65502 -2.15115,3.65502 0,0 -0.84659,-3.19853 -0.66047,-4.17654 0.16285,-0.85576 0.78011,-1.4801 1.45198,-1.52673 z M 4.6056414,33.23908 c 0.647202,0 1.172312,0.52511 1.172312,1.17232 0,0.6472 -0.52511,1.17143 -1.172312,1.17143 -0.647206,0 -1.172316,-0.52423 -1.172316,-1.17143 0,-0.64721 0.52511,-1.17232 1.172316,-1.17232 z m 129.6564586,0 c 0.64721,0 1.17143,0.52511 1.17143,1.17232 0,0.6472 -0.52422,1.17143 -1.17143,1.17143 -0.6472,0 -1.17231,-0.52423 -1.17231,-1.17143 0,-0.64721 0.52511,-1.17232 1.17231,-1.17232 z M 114.2448,33.495 c 0.0674,-0.007 0.13804,-0.007 0.21195,7.9e-4 0.49272,0.0521 1.12627,0.44063 1.84335,1.26203 1.14731,1.31421 1.58829,3.74648 1.58829,3.74648 0,0 -2.20221,-0.59772 -3.35073,-1.91194 -1.14732,-1.31422 -1.29073,-2.34096 -0.80382,-2.84768 0.13677,-0.14251 0.30881,-0.2287 0.51096,-0.24977 z M 12.2789,34.47735 c 0.47614,0.0217 1.10778,0.28288 1.87148,0.85483 1.39647,1.04586 2.33495,3.33314 2.33495,3.33314 0,0 -2.27937,-0.12558 -3.67524,-1.17143 -1.396473,-1.04646 -1.751181,-2.02049 -1.380746,-2.61727 0.138687,-0.22379 0.35947,-0.36299 0.655193,-0.39399 0.06161,-0.007 0.126333,-0.008 0.194363,-0.005 z m 10.24126,0.17062 c 0.068,-0.003 0.13275,-10e-4 0.19436,0.005 0.29573,0.031 0.51651,0.17021 0.6552,0.39399 0.37043,0.59678 0.016,1.57082 -1.37987,2.61727 -1.39647,1.04585 -3.67613,1.17144 -3.67613,1.17144 0,0 0.93848,-2.28669 2.33497,-3.33315 0.76369,-0.57227 1.39533,-0.83324 1.87147,-0.85482 z m 101.9835,1.17055 c 0.46161,0.0393 0.75443,0.25258 0.8733,0.58308 0.23775,0.66042 -0.31172,1.53978 -1.89611,2.27164 -1.58379,0.73185 -3.83883,0.37904 -3.83883,0.37904 0,0 1.39465,-2.04019 2.97784,-2.77204 0.7922,-0.36623 1.42218,-0.50097 1.8838,-0.46172 z m -11.45668,1.23564 c 0.12943,0.002 0.26126,0.0164 0.39312,0.0439 1.05486,0.22094 3.83794,2.71225 3.83794,2.71225 0,0 -3.55145,1.16547 -4.6057,0.94453 -1.05487,-0.22093 -1.7384,-1.21871 -1.52586,-2.22854 0.18596,-0.8836 0.99453,-1.48374 1.9005,-1.47221 z M 5.2898574,37.48597 c 0.646606,0 1.170559,0.52511 1.170559,1.17232 0,0.6466 -0.523953,1.17143 -1.170559,1.17143 -0.647203,0 -1.172316,-0.52483 -1.172316,-1.17143 0,-0.64721 0.525113,-1.17232 1.172316,-1.17232 z m 128.2880326,0 c 0.6472,0 1.17232,0.52511 1.17232,1.17232 0,0.6466 -0.52512,1.17143 -1.17232,1.17143 -0.6472,0 -1.17056,-0.52483 -1.17056,-1.17143 0,-0.64721 0.52336,-1.17232 1.17056,-1.17232 z M 11.840926,38.21768 c 1.077674,-0.004 4.319894,1.85213 4.319894,1.85213 0,0 -3.23167,1.8802 -4.309339,1.8838 -1.077676,0.004 -1.9529136,-0.82949 -1.9559086,-1.86093 -0.0032,-1.03204 0.8676806,-1.8714 1.9453536,-1.875 z m 11.105774,0.0343 c 1.07767,-0.004 1.95379,0.82976 1.95679,1.86181 0.003,1.03144 -0.86769,1.87079 -1.94536,1.875 -1.07767,0.004 -4.31901,-1.85301 -4.31901,-1.85301 0,0 3.22991,-1.8802 4.30758,-1.8838 z m -5.5054,0.77832 c 0.51992,-0.002 0.94334,0.45976 0.94454,1.03071 0.002,0.57096 -0.41817,1.03509 -0.9375,1.03689 -0.51992,0.002 -0.94245,-0.45888 -0.94366,-1.02985 -0.002,-0.57095 0.4173,-1.03595 0.93662,-1.03775 z m 101.11723,0.0123 c 0.0628,-10e-4 0.1264,0.005 0.18997,0.0185 0.50852,0.10626 0.82503,0.6459 0.70796,1.20485 -0.11767,0.55835 -0.62422,0.92504 -1.13274,0.81877 -0.50852,-0.10686 -0.82591,-0.6459 -0.70884,-1.20485 0.10296,-0.48909 0.50427,-0.83069 0.94365,-0.83725 z m 5.51068,0.37904 c 0.0839,0.004 0.15928,0.0117 0.22513,0.0255 1.05486,0.22095 1.73839,1.21932 1.52586,2.22855 -0.21193,1.00983 -1.23876,1.64917 -2.29362,1.42823 -1.05485,-0.22093 -3.83794,-2.71224 -3.83794,-2.71224 0,0 3.12209,-1.02413 4.38057,-0.97004 z m -8.06989,1.64283 c 0.7618,-0.003 1.32534,0.0853 1.32534,0.0853 0,0 -1.39345,2.04019 -2.97784,2.77204 -1.5838,0.73186 -2.51875,0.53965 -2.7571,-0.12136 -0.23714,-0.66102 0.31292,-1.53978 1.89611,-2.27164 0.79219,-0.36623 1.75168,-0.46105 2.51349,-0.46435 z m 2.21447,0.30253 c 0,0 0.70189,3.24563 0.47314,4.21523 -0.22934,0.96842 -1.03736,1.60348 -1.80464,1.41857 -0.76788,-0.18552 -1.20378,-1.12059 -0.97444,-2.08959 0.22935,-0.969 2.30594,-3.54421 2.30594,-3.54421 z M 16.48533,41.369 c 0,0 -0.93848,2.28669 -2.33495,3.33314 -1.39648,1.04587 -2.351209,1.05321 -2.721036,0.45645 -0.370435,-0.59679 -0.01574,-1.5717 1.380746,-2.61815 1.39587,-1.04646 3.67524,-1.17144 3.67524,-1.17144 z m 0.91464,0.0273 c 0,0 1.3625,3.0281 1.34029,4.02352 -0.0222,0.99542 -0.6798,1.78608 -1.46869,1.76507 -0.7895,-0.0216 -1.41028,-0.84529 -1.38867,-1.84071 0.0222,-0.99542 1.51707,-3.94788 1.51707,-3.94788 z m 0.91375,0.14336 c 0,0 2.27966,0.12558 3.67613,1.17143 1.39587,1.04586 1.7503,2.02137 1.37987,2.61814 -0.36983,0.59678 -1.32457,0.59002 -2.72103,-0.45643 -1.39649,-1.04646 -2.33497,-3.33314 -2.33497,-3.33314 z m -12.3414076,0.0459 c 0.64661,0 1.171441,0.52483 1.171441,1.17143 0,0.64781 -0.524831,1.17231 -1.171441,1.17231 -0.647198,0 -1.171433,-0.5245 -1.171433,-1.17231 0,-0.6466 0.524235,-1.17143 1.171433,-1.17143 z m 126.9231076,0 c 0.64722,0 1.17144,0.52483 1.17144,1.17143 0,0.64781 -0.52422,1.17231 -1.17144,1.17231 -0.64779,0 -1.17231,-0.5245 -1.17231,-1.17231 0,-0.6466 0.52452,-1.17143 1.17231,-1.17143 z m -13.81712,0.11193 c 0,0 2.20252,0.59771 3.34984,1.91194 1.14792,1.31422 1.29101,2.34096 0.80471,2.84767 -0.48691,0.50612 -1.41862,0.3011 -2.56714,-1.01313 -1.14731,-1.31482 -1.58741,-3.74648 -1.58741,-3.74648 z M 6.9977634,46.36844 c 0.647199,0 1.171438,0.52511 1.171438,1.17231 0,0.64721 -0.524239,1.17056 -1.171438,1.17056 -0.647202,0 -1.172315,-0.52335 -1.172315,-1.17056 0,-0.6472 0.525113,-1.17231 1.172315,-1.17231 z m 124.8730966,0 c 0.6466,0 1.17144,0.52511 1.17144,1.17231 0,0.64721 -0.52484,1.17056 -1.17144,1.17056 -0.64781,0 -1.17231,-0.52335 -1.17231,-1.17056 0,-0.6472 0.5245,-1.17231 1.17231,-1.17231 z m -20.3682,1.83015 c 0,0 2.97237,2.4262 3.38063,5.81232 0.40705,3.38492 -1.9049,6.44729 -1.9049,6.44729 0,0 -2.9721,-2.42592 -3.37976,-5.81144 -0.40825,-3.38551 1.90403,-6.44817 1.90403,-6.44817 z M 8.0223294,51.00493 c 0.647206,0 1.172316,0.52424 1.172316,1.17144 -4e-6,0.6472 -0.52511,1.17232 -1.172316,1.17232 -0.647203,0 -1.171434,-0.52512 -1.171434,-1.17232 0,-0.6472 0.524231,-1.17144 1.171434,-1.17144 z m 122.8230806,0 c 0.64721,0 1.17233,0.52424 1.17233,1.17144 0,0.6472 -0.52512,1.17232 -1.17233,1.17232 -0.6472,0 -1.17231,-0.52512 -1.17231,-1.17232 0,-0.6472 0.52511,-1.17144 1.17231,-1.17144 z m -115.849,0.0211 c 0,0 3.77543,0.68913 5.76748,3.45626 1.99204,2.76773 1.4467,6.56602 1.4467,6.56602 10e-6,0 -3.77455,-0.68854 -5.76659,-3.45626 -1.99205,-2.76714 -1.44759,-6.56602 -1.44759,-6.56602 z m 108.74828,0 c 0,0 0.54594,3.79888 -1.44671,6.56602 -1.99204,2.76772 -5.76659,3.45626 -5.76659,3.45626 0,0 -0.54534,-3.79829 1.4467,-6.56602 1.99205,-2.76713 5.7666,-3.45626 5.7666,-3.45626 z M 9.7311104,55.25181 c 0.6466066,0 1.1714336,0.52423 1.1714336,1.17144 0,0.6472 -0.524827,1.17231 -1.1714336,1.17231 -0.647806,0 -1.172312,-0.52511 -1.172312,-1.17231 0,-0.64721 0.524506,-1.17144 1.172312,-1.17144 z m 119.4063996,0 c 0.64661,0 1.17144,0.52423 1.17144,1.17144 0,0.6472 -0.52483,1.17231 -1.17144,1.17231 -0.6472,0 -1.17232,-0.52511 -1.17232,-1.17231 0,-0.64721 0.52512,-1.17144 1.17232,-1.17144 z M 11.781123,59.54619 c 0.647207,0 1.171437,0.52423 1.171437,1.17144 0,0.6472 -0.52423,1.17232 -1.171437,1.17232 -0.647206,0 -1.172319,-0.52512 -1.172319,-1.17232 0,-0.64721 0.525113,-1.17144 1.172319,-1.17144 z m 115.305497,0 c 0.6472,0 1.17232,0.52423 1.17232,1.17144 0,0.6472 -0.52512,1.17232 -1.17232,1.17232 -0.64721,0 -1.17056,-0.52512 -1.17056,-1.17232 0,-0.64721 0.52335,-1.17144 1.17056,-1.17144 z m -113.1948,3.90655 c 0.54441,0.0282 1.01298,0.43554 1.09756,0.99554 0.0973,0.6394 -0.34384,1.23688 -0.98323,1.33414 -0.64,0.0967 -1.23748,-0.34411 -1.33414,-0.98412 -0.0973,-0.63999 0.34384,-1.23659 0.98323,-1.33325 0.08,-0.0121 0.1588,-0.0163 0.23658,-0.0123 z m 111.0841,0 c 0.0778,-0.004 0.15658,1.9e-4 0.23658,0.0123 0.6394,0.0966 1.0805,0.69325 0.98323,1.33324 -0.0967,0.64001 -0.69386,1.08078 -1.33326,0.98412 -0.6406,-0.0973 -1.08077,-0.69474 -0.98411,-1.33414 0.0846,-0.56 0.55315,-0.96732 1.09756,-0.99555 z M 25.3054,63.93995 c 1.41508,0 2.56274,1.14706 2.56274,2.56274 0,1.41509 -1.14766,2.56185 -2.56274,2.56185 -1.41509,0 -2.56273,-1.14676 -2.56273,-2.56185 0,-1.41568 1.14764,-2.56274 2.56273,-2.56274 z m 88.13118,0 c 1.41508,0 2.56185,1.14706 2.56185,2.56274 0,1.41509 -1.14677,2.56185 -2.56185,2.56185 -1.41509,0 -2.56273,-1.14676 -2.56273,-2.56185 0,-1.41568 1.14764,-2.56274 2.56273,-2.56274 z m -44.08977,0.0985 c 1.14431,0.004 2.06768,0.93357 2.06408,2.07728 -0.004,1.14372 -0.93357,2.06856 -2.07728,2.06496 -1.14371,-0.004 -2.06769,-0.93444 -2.06408,-2.07815 0.004,-1.14372 0.93356,-2.06829 2.07728,-2.06409 z m -10.73728,0.24361 c 1.99384,-0.0486 8.06021,2.95146 8.06021,2.95146 0,0 -5.91334,3.29242 -7.90719,3.34105 -1.99385,0.0486 -3.64493,-1.32126 -3.68756,-3.05874 -0.042,-1.73749 1.54009,-3.18454 3.53454,-3.23377 z m 21.64957,0 c 1.99384,0.0492 3.5754,1.49628 3.53277,3.23377 -0.042,1.73748 -1.69283,3.10737 -3.68668,3.05874 -1.99385,-0.0486 -7.90719,-3.34105 -7.90719,-3.34105 0,0 6.06605,-3.00009 8.0611,-2.95146 z m -41.17438,0.394 c 1.76407,-0.0202 3.54589,0.28803 5.08765,0.76601 4.9537,1.53576 8.09432,5.07663 10.72937,9.51219 0.3104,0.52294 0.8503,1.64862 0.40543,1.52674 -13.77381,-10.74371 -15.95939,-0.1956 -20.7666,-1.21805 -3.65869,-0.77808 -5.09979,-3.57996 -2.93123,-7.0075 1.64465,-2.59888 4.53526,-3.54568 7.47538,-3.57939 z m 60.572543,0 c 2.940097,0.0337 5.830217,0.98051 7.474497,3.57939 2.16975,3.42754 0.72746,6.22942 -2.93123,7.0075 -4.807197,1.02245 -6.992787,-9.52566 -20.76659,1.21805 -0.44428,0.12188 0.0956,-1.0038 0.40718,-1.52674 2.63445,-4.43556 5.77479,-7.97643 10.728493,-9.51219 1.54153,-0.47798 3.32359,-0.78623 5.08765,-0.76601 z M 16.72983,66.73399 c 0.6472,0 1.17231,0.52511 1.17231,1.17232 0,0.6472 -0.52511,1.17143 -1.17231,1.17143 -0.64721,0 -1.17144,-0.52423 -1.17144,-1.17143 0,-0.64721 0.52423,-1.17232 1.17144,-1.17232 z m 105.40809,0 c 0.6472,0 1.17144,0.52511 1.17144,1.17232 0,0.6472 -0.52424,1.17143 -1.17144,1.17143 -0.6472,0 -1.17231,-0.52423 -1.17231,-1.17143 0,-0.64721 0.52511,-1.17232 1.17231,-1.17232 z M 10.672127,67.44107 c 0.893968,-0.003 1.620483,0.71896 1.623473,1.61293 0.002,0.89395 -0.718961,1.62134 -1.612917,1.62435 -0.8939606,0.003 -1.6213496,-0.71984 -1.6243586,-1.61381 -0.0032,-0.89395 0.719847,-1.62046 1.6138026,-1.62347 z m 118.063473,0 c 0.89336,0.003 1.61592,0.72952 1.61292,1.62347 -0.002,0.89397 -0.72951,1.61681 -1.62347,1.61381 -0.89396,-0.003 -1.61681,-0.7304 -1.6138,-1.62435 0.003,-0.89397 0.73039,-1.61593 1.62435,-1.61293 z m -62.01134,1.46517 c 0,0 -0.25047,5.01796 -2.34638,8.09188 -2.09591,3.07393 -4.04737,3.85559 -5.24332,3.04029 -1.19535,-0.81472 -1.18216,-2.91722 0.91376,-5.99174 2.0959,-3.07393 6.67594,-5.14043 6.67594,-5.14043 z m 5.41921,0 c 0,0 4.58005,2.0665 6.67596,5.14043 2.09591,3.07452 2.10999,5.17702 0.91463,5.99174 -1.19534,0.8153 -3.14856,0.0336 -5.24507,-3.04029 -2.09531,-3.07392 -2.34552,-8.09188 -2.34552,-8.09188 z m -2.81514,0.715 c 0,0 3.71912,7.13808 3.71131,9.50956 -0.007,2.37269 -1.68879,4.29044 -3.75528,4.28383 -2.06709,-0.007 -3.7367,-1.93489 -3.72889,-4.30757 0.007,-2.37208 3.77286,-9.48582 3.77286,-9.48582 z m -50.03049,0.32189 c 0.6472,0 1.17055,0.52422 1.17055,1.17143 0,0.6472 -0.52335,1.17231 -1.17055,1.17231 -0.64722,0 -1.17232,-0.52511 -1.17232,-1.17231 0,-0.64721 0.5251,-1.17143 1.17232,-1.17143 z m 100.27207,0 c 0.6472,0 1.17231,0.52422 1.17231,1.17143 0,0.6472 -0.52511,1.17231 -1.17231,1.17231 -0.64722,0 -1.17144,-0.52511 -1.17144,-1.17231 0,-0.64721 0.52422,-1.17143 1.17144,-1.17143 z m -97.34436,2.73332 c 0.6472,0 1.17143,0.52423 1.17143,1.17144 0,0.6472 -0.52423,1.17231 -1.17143,1.17231 -0.64721,0 -1.17232,-0.52511 -1.17232,-1.17231 0,-0.64721 0.52511,-1.17144 1.17232,-1.17144 z m 94.41665,0 c 0.64721,0 1.17143,0.52423 1.17143,1.17144 0,0.6472 -0.52422,1.17231 -1.17143,1.17231 -0.64721,0 -1.17143,-0.52511 -1.17143,-1.17231 0,-0.64721 0.52422,-1.17144 1.17143,-1.17144 z m -71.542,1.1301 c 0.19999,7.9e-4 0.40345,0.0217 0.60682,0.0642 1.62702,0.34041 6.87559,4.51337 6.87559,4.51337 0,0 -6.48157,1.72028 -8.10859,1.37986 -1.62701,-0.34041 -2.67008,-1.93565 -2.32967,-3.56267 0.29786,-1.42364 1.55588,-2.40084 2.95585,-2.39476 z M 27.00891,75.4098 c 0.6472,0 1.17144,0.52483 1.17144,1.17143 0,0.64721 -0.52424,1.17144 -1.17144,1.17144 -0.64721,0 -1.17232,-0.52423 -1.17232,-1.17144 0,-0.6466 0.52511,-1.17143 1.17232,-1.17143 z m 84.84993,0 c 0.6472,0 1.17231,0.52483 1.17231,1.17143 0,0.64721 -0.52511,1.17144 -1.17231,1.17144 -0.64722,0 -1.17144,-0.52423 -1.17144,-1.17144 0,-0.6466 0.52422,-1.17143 1.17144,-1.17143 z m -91.84953,1.85477 c 0.89396,-0.003 1.62108,0.71984 1.62348,1.61381 0.003,0.89396 -0.71836,1.62047 -1.61292,1.62347 -0.89336,0.002 -1.62047,-0.71957 -1.62348,-1.61293 -0.003,-0.89455 0.71896,-1.62195 1.61292,-1.62435 z m 99.3891,0 c 0.89337,0.002 1.61593,0.7298 1.61293,1.62435 -0.003,0.89336 -0.73012,1.61534 -1.62348,1.61293 -0.89456,-0.003 -1.6168,-0.72951 -1.6138,-1.62347 0.003,-0.89397 0.7304,-1.61682 1.62435,-1.61381 z m -88.0872,0.53823 c 0.6466,0.0306 1.14488,0.57908 1.11426,1.22508 -0.0306,0.64661 -0.57935,1.14665 -1.22595,1.11603 -0.64601,-0.0306 -1.14489,-0.57935 -1.11427,-1.22596 0.0306,-0.6466 0.57935,-1.14577 1.22596,-1.11515 z m 76.24533,0 c 0.64661,-0.0306 1.19534,0.46855 1.22596,1.11515 0.0306,0.64661 -0.46827,1.19534 -1.11427,1.22596 -0.64661,0.0306 -1.19534,-0.46942 -1.22596,-1.11603 -0.0306,-0.646 0.46767,-1.19446 1.11427,-1.22508 z m -71.74868,1.90402 c 0.64661,0.0306 1.14518,0.57996 1.11515,1.22597 -0.0312,0.6472 -0.57995,1.14576 -1.22595,1.11514 -0.64661,-0.0306 -1.14578,-0.57995 -1.11516,-1.22596 0.0306,-0.6466 0.57996,-1.14577 1.22596,-1.11515 z m 67.25114,0 c 0.64661,-0.0306 1.19534,0.46855 1.22596,1.11515 0.0312,0.64601 -0.46826,1.19534 -1.11427,1.22596 -0.64661,0.0306 -1.19534,-0.46794 -1.22596,-1.11514 -0.0312,-0.64601 0.46827,-1.19535 1.11427,-1.22597 z m -63.0104,1.79849 c 0.646,0.0306 1.14577,0.57936 1.11515,1.22596 -0.0306,0.64661 -0.57936,1.14577 -1.22596,1.11516 -0.6466,-0.0306 -1.14577,-0.57937 -1.11515,-1.22597 0.0306,-0.646 0.57936,-1.14577 1.22596,-1.11515 z m 58.770543,0 c 0.64601,-0.0306 1.195337,0.46915 1.225957,1.11515 0.0312,0.6466 -0.468547,1.19534 -1.115147,1.22597 -0.6466,0.0306 -1.19534,-0.46855 -1.22596,-1.11516 -0.03,-0.6466 0.46854,-1.19534 1.11515,-1.22596 z M 44.63585,83.2695 c 0.6466,0.0306 1.14577,0.57936 1.11515,1.22596 -0.0306,0.646614 -0.57936,1.144894 -1.22596,1.114274 -0.64601,-0.0306 -1.14578,-0.57935 -1.11516,-1.225964 0.0306,-0.6466 0.57936,-1.14489 1.22597,-1.11427 z m 49.596053,0 c 0.646,-0.0306 1.19534,0.46767 1.22596,1.11427 0.0306,0.646614 -0.46827,1.195344 -1.11427,1.225964 -0.6466,0.0306 -1.19535,-0.46766 -1.22597,-1.114274 -0.0306,-0.6466 0.46767,-1.19534 1.11428,-1.22596 z M 29.57604,83.75584 c 0.89396,-0.002 1.62047,0.71984 1.62348,1.613804 0.003,0.89336 -0.71897,1.62047 -1.61293,1.62348 -0.89395,0.003 -1.62135,-0.71897 -1.62435,-1.61292 -0.003,-0.893964 0.72044,-1.621364 1.6138,-1.624364 z m 80.25565,0 c 0.89396,0.003 1.61532,0.7304 1.61292,1.624364 -0.003,0.89395 -0.72951,1.61592 -1.62347,1.61292 -0.89396,-0.003 -1.61621,-0.73012 -1.6138,-1.62348 0.002,-0.893964 0.72979,-1.616204 1.62435,-1.613804 z m -60.55847,0.48282 c 0.6466,0.0306 1.14577,0.579364 1.11515,1.225964 -0.0306,0.64601 -0.57936,1.14577 -1.22597,1.11515 -0.6466,-0.0306 -1.14576,-0.57936 -1.11515,-1.22596 0.0306,-0.64661 0.57936,-1.145774 1.22597,-1.115154 z m 40.32131,0 c 0.646,-0.0306 1.19474,0.468544 1.22596,1.115154 0.03,0.6466 -0.46915,1.19534 -1.11515,1.22596 -0.64661,0.0306 -1.19534,-0.46914 -1.22596,-1.11515 -0.0306,-0.6466 0.46794,-1.195344 1.11515,-1.225964 z m -35.53795,0.683384 c 0.6466,0.0306 1.14577,0.57936 1.11515,1.22596 -0.0306,0.64661 -0.57936,1.14577 -1.22596,1.11515 -0.64661,-0.0306 -1.14577,-0.57936 -1.11515,-1.22596 0.0306,-0.64661 0.57935,-1.14577 1.22596,-1.11515 z m 30.75459,0 c 0.6466,-0.0306 1.19533,0.46854 1.22595,1.11515 0.0306,0.6466 -0.46942,1.19534 -1.11603,1.22596 -0.646,0.0306 -1.19474,-0.46854 -1.22596,-1.11515 -0.03,-0.6466 0.47003,-1.19535 1.11604,-1.22596 z m -26.22276,0.39575 c 0.64721,0 1.17233,0.52511 1.17233,1.17232 0,0.6472 -0.52512,1.17143 -1.17233,1.17143 -0.6472,0 -1.17231,-0.52423 -1.17231,-1.17143 0,-0.64721 0.52511,-1.17232 1.17231,-1.17232 z m 4.10004,0 c 0.64719,0 1.17143,0.52511 1.17143,1.17232 0,0.6472 -0.52424,1.17143 -1.17143,1.17143 -0.64721,0 -1.17232,-0.52423 -1.17232,-1.17143 0,-0.64721 0.52511,-1.17232 1.17232,-1.17232 z m 13.49085,0 c 0.64721,0 1.17232,0.52511 1.17232,1.17232 0,0.6472 -0.52511,1.17143 -1.17232,1.17143 -0.6472,0 -1.17143,-0.52423 -1.17143,-1.17143 0,-0.64721 0.52423,-1.17232 1.17143,-1.17232 z m 4.10002,0 c 0.64721,0 1.17232,0.52511 1.17232,1.17232 0,0.6472 -0.52511,1.17143 -1.17232,1.17143 -0.6472,0 -1.17231,-0.52423 -1.17231,-1.17143 0,-0.64721 0.52511,-1.17232 1.17231,-1.17232 z m -13.63772,0.34123 c 0.6466,0 1.17143,0.52511 1.17143,1.17231 0,0.64722 -0.52483,1.17232 -1.17143,1.17232 -0.64781,0 -1.17232,-0.5251 -1.17232,-1.17232 0,-0.6472 0.52451,-1.17231 1.17232,-1.17231 z m 5.58455,0 c 0.6466,0 1.17143,0.52511 1.17143,1.17231 0,0.64722 -0.52483,1.17232 -1.17143,1.17232 -0.64721,0 -1.17144,-0.5251 -1.17144,-1.17232 0,-0.6472 0.52423,-1.17231 1.17144,-1.17231 z m -24.5597,4.07628 c 1.41569,0 2.56274,1.14765 2.56274,2.56274 0,1.41508 -1.14705,2.56185 -2.56274,2.56185 -1.41508,0 -2.56274,-1.14677 -2.56274,-2.56185 0,-1.41509 1.14766,-2.56274 2.56274,-2.56274 z m 44.07483,0 c 1.415083,0 2.561853,1.14765 2.561853,2.56274 0,1.41508 -1.14677,2.56185 -2.561853,2.56185 -1.41569,0 -2.56274,-1.14677 -2.56274,-2.56185 0,-1.41509 1.14705,-2.56274 2.56274,-2.56274 z m -21.8668,3.41669 c 1.41568,0 2.56185,1.14764 2.56185,2.56273 0,1.41509 -1.14617,2.56185 -2.56185,2.56185 -1.41509,0 -2.56274,-1.14676 -2.56274,-2.56185 0,-1.41509 1.14765,-2.56273 2.56274,-2.56273 z"
       inkscape:connector-curvature="0" />
  </g>
</svg>
